Monoto-Condensed.ufo
<glyph name="exclam" format="2">
  <advance width="300"/>
  <unicode hex="0021"/>
  <outline>
    <contour>
      <point x="113" y="196" type="line"/>
      <point x="161" y="196" type="line"/>
      <point x="172" y="714" type="line"/>
      <point x="101" y="714" type="line"/>
    </contour>
    <contour>
      <point x="137" y="-12" type="curve" smooth="yes"/>
      <point x="158" y="-12"/>
      <point x="173" y="8"/>
      <point x="173" y="49" type="curve" smooth="yes"/>
      <point x="173" y="90"/>
      <point x="159" y="108"/>
      <point x="137" y="108" type="curve" smooth="yes"/>
      <point x="113" y="108"/>
      <point x="100" y="89"/>
      <point x="100" y="49" type="curve" smooth="yes"/>
      <point x="100" y="8"/>
      <point x="114" y="-12"/>
    </contour>
  </outline>
</glyph>
<glyph name="quotedbl" format="2">
  <advance width="300"/>
  <unicode hex="0022"/>
  <outline>
    <contour>
      <point x="162" y="456" type="line"/>
      <point x="209" y="456" type="line"/>
      <point x="218" y="714" type="line"/>
      <point x="153" y="714" type="line"/>
    </contour>
    <contour>
      <point x="62" y="456" type="line"/>
      <point x="107" y="456" type="line"/>
      <point x="118" y="714" type="line"/>
      <point x="52" y="714" type="line"/>
    </contour>
  </outline>
</glyph>
<glyph name="numbersign" format="2">
  <advance width="300"/>
  <unicode hex="0023"/>
  <outline>
    <contour>
      <point x="47" y="0" type="line"/>
      <point x="89" y="0" type="line"/>
      <point x="102" y="219" type="line"/>
      <point x="146" y="219" type="line"/>
      <point x="132" y="0" type="line"/>
      <point x="175" y="0" type="line"/>
      <point x="188" y="219" type="line"/>
      <point x="240" y="219" type="line"/>
      <point x="240" y="277" type="line"/>
      <point x="194" y="277" type="line"/>
      <point x="203" y="453" type="line"/>
      <point x="251" y="453" type="line"/>
      <point x="251" y="510" type="line"/>
      <point x="208" y="510" type="line"/>
      <point x="221" y="714" type="line"/>
      <point x="180" y="714" type="line"/>
      <point x="167" y="510" type="line"/>
      <point x="123" y="510" type="line"/>
      <point x="137" y="714" type="line"/>
      <point x="94" y="714" type="line"/>
      <point x="82" y="510" type="line"/>
      <point x="30" y="510" type="line"/>
      <point x="30" y="453" type="line"/>
      <point x="75" y="453" type="line"/>
      <point x="66" y="277" type="line"/>
      <point x="18" y="277" type="line"/>
      <point x="18" y="219" type="line"/>
      <point x="61" y="219" type="line"/>
    </contour>
    <contour>
      <point x="108" y="277" type="line"/>
      <point x="117" y="453" type="line"/>
      <point x="161" y="453" type="line"/>
      <point x="152" y="277" type="line"/>
    </contour>
  </outline>
</glyph>
<glyph name="dollar" format="2">
  <advance width="300"/>
  <unicode hex="0024"/>
  <outline>
    <contour>
      <point x="125" y="-58" type="line"/>
      <point x="154" y="-58" type="line"/>
      <point x="154" y="39" type="line"/>
      <point x="207" y="53"/>
      <point x="237" y="117"/>
      <point x="237" y="207" type="curve" smooth="yes"/>
      <point x="237" y="299"/>
      <point x="210" y="344"/>
      <point x="154" y="388" type="curve"/>
      <point x="154" y="627" type="line"/>
      <point x="175" y="624"/>
      <point x="195" y="615"/>
      <point x="214" y="596" type="curve"/>
      <point x="227" y="654" type="line"/>
      <point x="205" y="675"/>
      <point x="180" y="686"/>
      <point x="154" y="689" type="curve"/>
      <point x="154" y="760" type="line"/>
      <point x="125" y="760" type="line"/>
      <point x="125" y="687" type="line"/>
      <point x="74" y="678"/>
      <point x="40" y="617"/>
      <point x="40" y="524" type="curve" smooth="yes"/>
      <point x="40" y="430"/>
      <point x="67" y="382"/>
      <point x="125" y="339" type="curve"/>
      <point x="125" y="95" type="line"/>
      <point x="96" y="97"/>
      <point x="65" y="115"/>
      <point x="44" y="136" type="curve"/>
      <point x="44" y="68" type="line"/>
      <point x="65" y="49"/>
      <point x="94" y="36"/>
      <point x="125" y="35" type="curve"/>
    </contour>
    <contour>
      <point x="154" y="99" type="curve"/>
      <point x="154" y="320" type="line"/>
      <point x="180" y="291"/>
      <point x="192" y="261"/>
      <point x="192" y="203" type="curve" smooth="yes"/>
      <point x="192" y="149"/>
      <point x="180" y="109"/>
    </contour>
    <contour>
      <point x="125" y="407" type="line"/>
      <point x="97" y="437"/>
      <point x="86" y="464"/>
      <point x="86" y="525" type="curve" smooth="yes"/>
      <point x="86" y="581"/>
      <point x="99" y="619"/>
      <point x="125" y="626" type="curve"/>
    </contour>
  </outline>
</glyph>
<glyph name="percent" format="2">
  <advance width="300"/>
  <unicode hex="0025"/>
  <outline>
    <contour>
      <point x="10" y="168" type="line"/>
      <point x="59" y="168" type="line"/>
      <point x="259" y="545" type="line"/>
      <point x="210" y="545" type="line"/>
    </contour>
    <contour>
      <point x="192" y="-9" type="curve" smooth="yes"/>
      <point x="237" y="-9"/>
      <point x="264" y="55"/>
      <point x="264" y="161" type="curve" smooth="yes"/>
      <point x="264" y="267"/>
      <point x="236" y="330"/>
      <point x="193" y="330" type="curve" smooth="yes"/>
      <point x="147" y="330"/>
      <point x="121" y="267"/>
      <point x="121" y="161" type="curve" smooth="yes"/>
      <point x="121" y="55"/>
      <point x="149" y="-9"/>
    </contour>
    <contour>
      <point x="193" y="39" type="curve" smooth="yes"/>
      <point x="173" y="39"/>
      <point x="165" y="82"/>
      <point x="165" y="161" type="curve" smooth="yes"/>
      <point x="165" y="241"/>
      <point x="173" y="281"/>
      <point x="193" y="281" type="curve" smooth="yes"/>
      <point x="212" y="281"/>
      <point x="220" y="240"/>
      <point x="220" y="161" type="curve" smooth="yes"/>
      <point x="220" y="81"/>
      <point x="211" y="39"/>
    </contour>
    <contour>
      <point x="76" y="383" type="curve" smooth="yes"/>
      <point x="121" y="383"/>
      <point x="148" y="447"/>
      <point x="148" y="553" type="curve" smooth="yes"/>
      <point x="148" y="659"/>
      <point x="120" y="722"/>
      <point x="77" y="722" type="curve" smooth="yes"/>
      <point x="31" y="722"/>
      <point x="5" y="659"/>
      <point x="5" y="553" type="curve" smooth="yes"/>
      <point x="5" y="447"/>
      <point x="33" y="383"/>
    </contour>
    <contour>
      <point x="77" y="431" type="curve" smooth="yes"/>
      <point x="58" y="431"/>
      <point x="49" y="474"/>
      <point x="49" y="553" type="curve" smooth="yes"/>
      <point x="49" y="633"/>
      <point x="57" y="673"/>
      <point x="77" y="673" type="curve" smooth="yes"/>
      <point x="96" y="673"/>
      <point x="104" y="632"/>
      <point x="104" y="553" type="curve" smooth="yes"/>
      <point x="104" y="473"/>
      <point x="95" y="431"/>
    </contour>
  </outline>
</glyph>
<glyph name="ampersand" format="2">
  <advance width="300"/>
  <unicode hex="0026"/>
  <outline>
    <contour>
      <point x="109" y="-10" type="curve" smooth="yes"/>
      <point x="204" y="-10"/>
      <point x="241" y="180"/>
      <point x="250" y="336" type="curve"/>
      <point x="204" y="336" type="line"/>
      <point x="200" y="223"/>
      <point x="170" y="52"/>
      <point x="115" y="52" type="curve" smooth="yes"/>
      <point x="90" y="52"/>
      <point x="71" y="94"/>
      <point x="71" y="166" type="curve" smooth="yes"/>
      <point x="71" y="253"/>
      <point x="97" y="310"/>
      <point x="126" y="359" type="curve" smooth="yes"/>
      <point x="159" y="414"/>
      <point x="190" y="486"/>
      <point x="190" y="578" type="curve" smooth="yes"/>
      <point x="190" y="668"/>
      <point x="166" y="724"/>
      <point x="120" y="724" type="curve" smooth="yes"/>
      <point x="75" y="724"/>
      <point x="48" y="667"/>
      <point x="48" y="580" type="curve" smooth="yes"/>
      <point x="48" y="507"/>
      <point x="68" y="435"/>
      <point x="91" y="362" type="curve" smooth="yes"/>
      <point x="203" y="0" type="line"/>
      <point x="257" y="0" type="line"/>
      <point x="125" y="410" type="line" smooth="yes"/>
      <point x="111" y="454"/>
      <point x="95" y="517"/>
      <point x="95" y="582" type="curve" smooth="yes"/>
      <point x="95" y="635"/>
      <point x="104" y="666"/>
      <point x="120" y="666" type="curve" smooth="yes"/>
      <point x="137" y="666"/>
      <point x="145" y="638"/>
      <point x="145" y="581" type="curve" smooth="yes"/>
      <point x="145" y="489"/>
      <point x="114" y="433"/>
      <point x="97" y="405" type="curve" smooth="yes"/>
      <point x="57" y="340"/>
      <point x="22" y="273"/>
      <point x="22" y="167" type="curve" smooth="yes"/>
      <point x="22" y="70"/>
      <point x="49" y="-10"/>
    </contour>
  </outline>
</glyph>
<glyph name="quotesingle" format="2">
  <advance width="300"/>
  <unicode hex="0027"/>
  <outline>
    <contour>
      <point x="112" y="456" type="line"/>
      <point x="158" y="456" type="line"/>
      <point x="168" y="714" type="line"/>
      <point x="102" y="714" type="line"/>
    </contour>
  </outline>
</glyph>
<glyph name="parenleft" format="2">
  <advance width="300"/>
  <unicode hex="0028"/>
  <outline>
    <contour>
      <point x="156" y="-162" type="curve"/>
      <point x="207" y="-162" type="line"/>
      <point x="165" y="-40"/>
      <point x="141" y="114"/>
      <point x="141" y="272" type="curve" smooth="yes"/>
      <point x="141" y="432"/>
      <point x="164" y="585"/>
      <point x="207" y="714" type="curve"/>
      <point x="156" y="714" type="line"/>
      <point x="111" y="600"/>
      <point x="84" y="442"/>
      <point x="84" y="271" type="curve" smooth="yes"/>
      <point x="84" y="103"/>
      <point x="109" y="-49"/>
    </contour>
  </outline>
</glyph>
<glyph name="asterisk" format="2">
  <advance width="300"/>
  <unicode hex="002A"/>
  <outline>
    <contour>
      <point x="167" y="428" type="line"/>
      <point x="214" y="465" type="line"/>
      <point x="166" y="580" type="line"/>
      <point x="231" y="596" type="line"/>
      <point x="220" y="664" type="line"/>
      <point x="155" y="625" type="line"/>
      <point x="164" y="761" type="line"/>
      <point x="107" y="761" type="line"/>
      <point x="116" y="625" type="line"/>
      <point x="52" y="663" type="line"/>
      <point x="40" y="595" type="line"/>
      <point x="103" y="580" type="line"/>
      <point x="57" y="465" type="line"/>
      <point x="103" y="428" type="line"/>
      <point x="135" y="554" type="line"/>
    </contour>
  </outline>
</glyph>
<glyph name="plus" format="2">
  <advance width="300"/>
  <unicode hex="002B"/>
  <outline>
    <contour>
      <point x="111" y="120" type="line"/>
      <point x="160" y="120" type="line"/>
      <point x="160" y="323" type="line"/>
      <point x="236" y="323" type="line"/>
      <point x="236" y="383" type="line"/>
      <point x="160" y="383" type="line"/>
      <point x="160" y="587" type="line"/>
      <point x="111" y="587" type="line"/>
      <point x="111" y="383" type="line"/>
      <point x="34" y="383" type="line"/>
      <point x="34" y="323" type="line"/>
      <point x="111" y="323" type="line"/>
    </contour>
  </outline>
</glyph>
<glyph name="comma" format="2">
  <advance width="300"/>
  <unicode hex="002C"/>
  <outline>
    <contour>
      <point x="86" y="-131" type="curve"/>
      <point x="133" y="-131" type="line"/>
      <point x="148" y="-59"/>
      <point x="163" y="27"/>
      <point x="172" y="104" type="curve"/>
      <point x="168" y="115" type="line"/>
      <point x="108" y="115" type="line"/>
      <point x="105" y="43"/>
      <point x="95" y="-48"/>
    </contour>
  </outline>
</glyph>
<glyph name="period" format="2">
  <advance width="300"/>
  <unicode hex="002E"/>
  <outline>
    <contour>
      <point x="135" y="-12" type="curve" smooth="yes"/>
      <point x="157" y="-12"/>
      <point x="172" y="8"/>
      <point x="172" y="49" type="curve" smooth="yes"/>
      <point x="172" y="90"/>
      <point x="158" y="108"/>
      <point x="135" y="108" type="curve" smooth="yes"/>
      <point x="112" y="108"/>
      <point x="98" y="89"/>
      <point x="98" y="49" type="curve" smooth="yes"/>
      <point x="98" y="8"/>
      <point x="113" y="-12"/>
    </contour>
  </outline>
</glyph>
<glyph name="slash" format="2">
  <advance width="300"/>
  <unicode hex="002F"/>
  <outline>
    <contour>
      <point x="20" y="-3" type="line"/>
      <point x="74" y="-3" type="line"/>
      <point x="213" y="717" type="line"/>
      <point x="160" y="717" type="line"/>
    </contour>
  </outline>
</glyph>
<glyph name="zero" format="2">
  <advance width="300"/>
  <unicode hex="0030"/>
  <outline>
    <contour>
      <point x="134" y="-10" type="curve" smooth="yes"/>
      <point x="223" y="-10"/>
      <point x="250" y="127"/>
      <point x="250" y="358" type="curve" smooth="yes"/>
      <point x="250" y="586"/>
      <point x="215" y="725"/>
      <point x="134" y="725" type="curve" smooth="yes"/>
      <point x="52" y="725"/>
      <point x="19" y="586"/>
      <point x="19" y="358" type="curve" smooth="yes"/>
      <point x="19" y="127"/>
      <point x="54" y="-10"/>
    </contour>
    <contour>
      <point x="82" y="97" type="line"/>
      <point x="222" y="568" type="line"/>
      <point x="183" y="617" type="line"/>
      <point x="45" y="136" type="line"/>
    </contour>
    <contour>
      <point x="134" y="54" type="curve" smooth="yes"/>
      <point x="93" y="54"/>
      <point x="78" y="169"/>
      <point x="78" y="358" type="curve" smooth="yes"/>
      <point x="78" y="554"/>
      <point x="94" y="661"/>
      <point x="134" y="661" type="curve" smooth="yes"/>
      <point x="180" y="661"/>
      <point x="192" y="549"/>
      <point x="192" y="358" type="curve" smooth="yes"/>
      <point x="192" y="158"/>
      <point x="176" y="54"/>
    </contour>
  </outline>
</glyph>
<glyph name="one" format="2">
  <advance width="300"/>
  <unicode hex="0031"/>
  <outline>
    <contour>
      <point x="115" y="0" type="line"/>
      <point x="179" y="0" type="line"/>
      <point x="179" y="714" type="line"/>
      <point x="126" y="714" type="line"/>
      <point x="28" y="599" type="line"/>
      <point x="58" y="544" type="line"/>
      <point x="90" y="595" type="line" smooth="yes"/>
      <point x="100" y="611"/>
      <point x="108" y="619"/>
      <point x="117" y="635" type="curve"/>
      <point x="116" y="593"/>
      <point x="115" y="524"/>
      <point x="115" y="469" type="curve" smooth="yes"/>
    </contour>
    <contour>
      <point x="48" y="0" type="line"/>
      <point x="240" y="0" type="line"/>
      <point x="240" y="52" type="line"/>
      <point x="178" y="61" type="line"/>
      <point x="116" y="61" type="line"/>
      <point x="48" y="52" type="line"/>
    </contour>
  </outline>
</glyph>
<glyph name="two" format="2">
  <advance width="300"/>
  <unicode hex="0032"/>
  <outline>
    <contour>
      <point x="31" y="0" type="line"/>
      <point x="238" y="0" type="line"/>
      <point x="238" y="69" type="line"/>
      <point x="110" y="69" type="line"/>
      <point x="110" y="74" type="line"/>
      <point x="161" y="229" type="line" smooth="yes"/>
      <point x="199" y="344"/>
      <point x="230" y="421"/>
      <point x="230" y="536" type="curve" smooth="yes"/>
      <point x="230" y="653"/>
      <point x="190" y="724"/>
      <point x="130" y="724" type="curve" smooth="yes"/>
      <point x="88" y="724"/>
      <point x="55" y="693"/>
      <point x="25" y="648" type="curve"/>
      <point x="57" y="598" type="line"/>
      <point x="78" y="631"/>
      <point x="100" y="660"/>
      <point x="124" y="660" type="curve" smooth="yes"/>
      <point x="150" y="660"/>
      <point x="166" y="615"/>
      <point x="166" y="530" type="curve" smooth="yes"/>
      <point x="166" y="428"/>
      <point x="140" y="359"/>
      <point x="103" y="261" type="curve" smooth="yes"/>
      <point x="30" y="66" type="line"/>
    </contour>
  </outline>
</glyph>
<glyph name="three" format="2">
  <advance width="300"/>
  <unicode hex="0033"/>
  <outline>
    <contour>
      <point x="113" y="-10" type="curve" smooth="yes"/>
      <point x="195" y="-10"/>
      <point x="239" y="76"/>
      <point x="239" y="199" type="curve" smooth="yes"/>
      <point x="239" y="298"/>
      <point x="215" y="358"/>
      <point x="165" y="373" type="curve"/>
      <point x="165" y="376" type="line"/>
      <point x="208" y="391"/>
      <point x="231" y="457"/>
      <point x="231" y="546" type="curve" smooth="yes"/>
      <point x="231" y="653"/>
      <point x="193" y="724"/>
      <point x="129" y="724" type="curve" smooth="yes"/>
      <point x="90" y="724"/>
      <point x="57" y="700"/>
      <point x="32" y="661" type="curve"/>
      <point x="59" y="608" type="line"/>
      <point x="79" y="642"/>
      <point x="100" y="660"/>
      <point x="122" y="660" type="curve" smooth="yes"/>
      <point x="151" y="660"/>
      <point x="165" y="617"/>
      <point x="165" y="544" type="curve" smooth="yes"/>
      <point x="165" y="457"/>
      <point x="144" y="401"/>
      <point x="99" y="401" type="curve" smooth="yes"/>
      <point x="76" y="401" type="line"/>
      <point x="76" y="338" type="line"/>
      <point x="99" y="338" type="line" smooth="yes"/>
      <point x="149" y="338"/>
      <point x="170" y="298"/>
      <point x="170" y="201" type="curve" smooth="yes"/>
      <point x="170" y="112"/>
      <point x="152" y="55"/>
      <point x="110" y="55" type="curve" smooth="yes"/>
      <point x="83" y="55"/>
      <point x="55" y="72"/>
      <point x="30" y="100" type="curve"/>
      <point x="30" y="29" type="line"/>
      <point x="59" y="1"/>
      <point x="86" y="-10"/>
    </contour>
  </outline>
</glyph>
<glyph name="four" format="2">
  <advance width="300"/>
  <unicode hex="0034"/>
  <outline>
    <contour>
      <point x="148" y="0" type="line"/>
      <point x="207" y="0" type="line"/>
      <point x="207" y="165" type="line"/>
      <point x="249" y="165" type="line"/>
      <point x="249" y="235" type="line"/>
      <point x="207" y="235" type="line"/>
      <point x="207" y="718" type="line"/>
      <point x="144" y="718" type="line"/>
      <point x="22" y="232" type="line"/>
      <point x="22" y="165" type="line"/>
      <point x="148" y="165" type="line"/>
    </contour>
    <contour>
      <point x="75" y="235" type="line"/>
      <point x="128" y="517" type="line" smooth="yes"/>
      <point x="134" y="549"/>
      <point x="144" y="598"/>
      <point x="148" y="633" type="curve"/>
      <point x="150" y="633" type="line"/>
      <point x="149" y="588"/>
      <point x="148" y="508"/>
      <point x="148" y="438" type="curve" smooth="yes"/>
      <point x="148" y="235" type="line"/>
    </contour>
  </outline>
</glyph>
<glyph name="five" format="2">
  <advance width="300"/>
  <unicode hex="0035"/>
  <outline>
    <contour>
      <point x="113" y="-10" type="curve" smooth="yes"/>
      <point x="192" y="-10"/>
      <point x="234" y="81"/>
      <point x="234" y="227" type="curve" smooth="yes"/>
      <point x="234" y="362"/>
      <point x="193" y="435"/>
      <point x="138" y="435" type="curve" smooth="yes"/>
      <point x="128" y="435"/>
      <point x="115" y="429"/>
      <point x="101" y="423" type="curve"/>
      <point x="107" y="645" type="line"/>
      <point x="214" y="645" type="line"/>
      <point x="214" y="714" type="line"/>
      <point x="51" y="714" type="line"/>
      <point x="40" y="381" type="line"/>
      <point x="64" y="356" type="line"/>
      <point x="77" y="362"/>
      <point x="95" y="370"/>
      <point x="109" y="370" type="curve" smooth="yes"/>
      <point x="146" y="370"/>
      <point x="167" y="317"/>
      <point x="167" y="219" type="curve" smooth="yes"/>
      <point x="167" y="111"/>
      <point x="147" y="55"/>
      <point x="110" y="55" type="curve" smooth="yes"/>
      <point x="87" y="55"/>
      <point x="58" y="73"/>
      <point x="34" y="101" type="curve"/>
      <point x="34" y="29" type="line"/>
      <point x="55" y="3"/>
      <point x="82" y="-10"/>
    </contour>
  </outline>
</glyph>
<glyph name="six" format="2">
  <advance width="300"/>
  <unicode hex="0036"/>
  <outline>
    <contour>
      <point x="138" y="-10" type="curve" smooth="yes"/>
      <point x="202" y="-10"/>
      <point x="240" y="82"/>
      <point x="240" y="226" type="curve" smooth="yes"/>
      <point x="240" y="364"/>
      <point x="208" y="445"/>
      <point x="155" y="445" type="curve" smooth="yes"/>
      <point x="123" y="445"/>
      <point x="103" y="405"/>
      <point x="90" y="357" type="curve"/>
      <point x="87" y="357" type="line"/>
      <point x="90" y="532"/>
      <point x="115" y="661"/>
      <point x="180" y="661" type="curve" smooth="yes"/>
      <point x="194" y="661"/>
      <point x="208" y="657"/>
      <point x="219" y="649" type="curve"/>
      <point x="219" y="714" type="line"/>
      <point x="207" y="721"/>
      <point x="191" y="724"/>
      <point x="176" y="724" type="curve" smooth="yes"/>
      <point x="65" y="724"/>
      <point x="29" y="544"/>
      <point x="29" y="310" type="curve" smooth="yes"/>
      <point x="29" y="93"/>
      <point x="72" y="-10"/>
    </contour>
    <contour>
      <point x="138" y="54" type="curve" smooth="yes"/>
      <point x="105" y="54"/>
      <point x="92" y="162"/>
      <point x="92" y="240" type="curve" smooth="yes"/>
      <point x="92" y="321"/>
      <point x="112" y="384"/>
      <point x="139" y="384" type="curve" smooth="yes"/>
      <point x="166" y="384"/>
      <point x="179" y="324"/>
      <point x="179" y="225" type="curve" smooth="yes"/>
      <point x="179" y="113"/>
      <point x="163" y="54"/>
    </contour>
  </outline>
</glyph>
<glyph name="seven" format="2">
  <advance width="300"/>
  <unicode hex="0037"/>
  <outline>
    <contour>
      <point x="61" y="0" type="line"/>
      <point x="130" y="0" type="line"/>
      <point x="241" y="653" type="line"/>
      <point x="241" y="714" type="line"/>
      <point x="28" y="714" type="line"/>
      <point x="28" y="645" type="line"/>
      <point x="172" y="645" type="line"/>
    </contour>
  </outline>
</glyph>
<glyph name="eight" format="2">
  <advance width="300"/>
  <unicode hex="0038"/>
  <outline>
    <contour>
      <point x="133" y="-10" type="curve" smooth="yes"/>
      <point x="198" y="-10"/>
      <point x="240" y="66"/>
      <point x="240" y="185" type="curve" smooth="yes"/>
      <point x="240" y="280"/>
      <point x="220" y="336"/>
      <point x="177" y="378" type="curve"/>
      <point x="213" y="415"/>
      <point x="231" y="467"/>
      <point x="231" y="553" type="curve" smooth="yes"/>
      <point x="231" y="667"/>
      <point x="192" y="725"/>
      <point x="135" y="725" type="curve" smooth="yes"/>
      <point x="80" y="725"/>
      <point x="39" y="668"/>
      <point x="39" y="552" type="curve" smooth="yes"/>
      <point x="39" y="469"/>
      <point x="56" y="414"/>
      <point x="89" y="376" type="curve"/>
      <point x="50" y="336"/>
      <point x="30" y="279"/>
      <point x="30" y="181" type="curve" smooth="yes"/>
      <point x="30" y="55"/>
      <point x="71" y="-10"/>
    </contour>
    <contour>
      <point x="135" y="55" type="curve" smooth="yes"/>
      <point x="104" y="55"/>
      <point x="89" y="104"/>
      <point x="89" y="181" type="curve" smooth="yes"/>
      <point x="89" y="257"/>
      <point x="102" y="307"/>
      <point x="133" y="346" type="curve"/>
      <point x="169" y="294"/>
      <point x="182" y="256"/>
      <point x="182" y="186" type="curve" smooth="yes"/>
      <point x="182" y="104"/>
      <point x="166" y="55"/>
    </contour>
    <contour>
      <point x="135" y="409" type="curve"/>
      <point x="112" y="443"/>
      <point x="98" y="478"/>
      <point x="98" y="550" type="curve" smooth="yes"/>
      <point x="98" y="622"/>
      <point x="113" y="660"/>
      <point x="135" y="660" type="curve" smooth="yes"/>
      <point x="158" y="660"/>
      <point x="172" y="623"/>
      <point x="172" y="550" type="curve" smooth="yes"/>
      <point x="172" y="481"/>
      <point x="160" y="440"/>
    </contour>
  </outline>
</glyph>
<glyph name="nine" format="2">
  <advance width="300"/>
  <unicode hex="0039"/>
  <outline>
    <contour>
      <point x="92" y="-10" type="curve" smooth="yes"/>
      <point x="203" y="-10"/>
      <point x="239" y="184"/>
      <point x="239" y="410" type="curve" smooth="yes"/>
      <point x="239" y="618"/>
      <point x="198" y="724"/>
      <point x="131" y="724" type="curve" smooth="yes"/>
      <point x="66" y="724"/>
      <point x="29" y="633"/>
      <point x="29" y="487" type="curve" smooth="yes"/>
      <point x="29" y="349"/>
      <point x="60" y="270"/>
      <point x="113" y="270" type="curve" smooth="yes"/>
      <point x="145" y="270"/>
      <point x="165" y="306"/>
      <point x="178" y="356" type="curve"/>
      <point x="181" y="356" type="line"/>
      <point x="178" y="183"/>
      <point x="150" y="53"/>
      <point x="88" y="53" type="curve"/>
      <point x="75" y="53"/>
      <point x="61" y="57"/>
      <point x="50" y="66" type="curve"/>
      <point x="50" y="0" type="line"/>
      <point x="62" y="-7"/>
      <point x="77" y="-10"/>
    </contour>
    <contour>
      <point x="129" y="330" type="curve" smooth="yes"/>
      <point x="103" y="330"/>
      <point x="89" y="390"/>
      <point x="89" y="489" type="curve" smooth="yes"/>
      <point x="89" y="599"/>
      <point x="106" y="660"/>
      <point x="131" y="660" type="curve" smooth="yes"/>
      <point x="164" y="660"/>
      <point x="177" y="549"/>
      <point x="177" y="479" type="curve" smooth="yes"/>
      <point x="177" y="383"/>
      <point x="157" y="330"/>
    </contour>
  </outline>
</glyph>
<glyph name="colon" format="2">
  <advance width="300"/>
  <unicode hex="003A"/>
  <outline>
    <contour>
      <point x="136" y="422" type="curve" smooth="yes"/>
      <point x="157" y="422"/>
      <point x="172" y="441"/>
      <point x="172" y="483" type="curve" smooth="yes"/>
      <point x="172" y="523"/>
      <point x="159" y="543"/>
      <point x="136" y="543" type="curve" smooth="yes"/>
      <point x="112" y="543"/>
      <point x="98" y="523"/>
      <point x="98" y="483" type="curve" smooth="yes"/>
      <point x="98" y="442"/>
      <point x="113" y="422"/>
    </contour>
    <contour>
      <point x="136" y="-12" type="curve" smooth="yes"/>
      <point x="157" y="-12"/>
      <point x="172" y="8"/>
      <point x="172" y="49" type="curve" smooth="yes"/>
      <point x="172" y="90"/>
      <point x="158" y="108"/>
      <point x="136" y="108" type="curve" smooth="yes"/>
      <point x="112" y="108"/>
      <point x="98" y="89"/>
      <point x="98" y="49" type="curve" smooth="yes"/>
      <point x="98" y="8"/>
      <point x="113" y="-12"/>
    </contour>
  </outline>
</glyph>
<glyph name="semicolon" format="2">
  <advance width="300"/>
  <unicode hex="003B"/>
  <outline>
    <contour>
      <point x="85" y="-131" type="curve"/>
      <point x="132" y="-131" type="line"/>
      <point x="148" y="-59"/>
      <point x="162" y="27"/>
      <point x="172" y="102" type="curve"/>
      <point x="169" y="113" type="line"/>
      <point x="107" y="113" type="line"/>
      <point x="104" y="42"/>
      <point x="94" y="-47"/>
    </contour>
    <contour>
      <point x="135" y="423" type="curve" smooth="yes"/>
      <point x="157" y="423"/>
      <point x="172" y="441"/>
      <point x="172" y="483" type="curve" smooth="yes"/>
      <point x="172" y="523"/>
      <point x="158" y="543"/>
      <point x="135" y="543" type="curve" smooth="yes"/>
      <point x="112" y="543"/>
      <point x="98" y="523"/>
      <point x="98" y="483" type="curve" smooth="yes"/>
      <point x="98" y="442"/>
      <point x="113" y="423"/>
    </contour>
  </outline>
</glyph>
<glyph name="greater" format="2">
  <advance width="300"/>
  <unicode hex="003E"/>
  <outline>
    <contour>
      <point x="33" y="134" type="line"/>
      <point x="236" y="336" type="line"/>
      <point x="236" y="378" type="line"/>
      <point x="33" y="576" type="line"/>
      <point x="33" y="508" type="line"/>
      <point x="169" y="357" type="line"/>
      <point x="33" y="202" type="line"/>
    </contour>
  </outline>
</glyph>
<glyph name="question" format="2">
  <advance width="300"/>
  <unicode hex="003F"/>
  <outline>
    <contour>
      <point x="97" y="196" type="line"/>
      <point x="146" y="196" type="line"/>
      <point x="146" y="215" type="line" smooth="yes"/>
      <point x="146" y="273"/>
      <point x="151" y="304"/>
      <point x="177" y="358" type="curve" smooth="yes"/>
      <point x="208" y="423"/>
      <point x="226" y="465"/>
      <point x="226" y="556" type="curve" smooth="yes"/>
      <point x="226" y="663"/>
      <point x="193" y="724"/>
      <point x="132" y="724" type="curve" smooth="yes"/>
      <point x="99" y="724"/>
      <point x="70" y="708"/>
      <point x="42" y="679" type="curve"/>
      <point x="62" y="621" type="line"/>
      <point x="84" y="642"/>
      <point x="104" y="658"/>
      <point x="127" y="658" type="curve" smooth="yes"/>
      <point x="154" y="658"/>
      <point x="168" y="622"/>
      <point x="168" y="552" type="curve" smooth="yes"/>
      <point x="168" y="488"/>
      <point x="160" y="454"/>
      <point x="132" y="392" type="curve" smooth="yes"/>
      <point x="107" y="338"/>
      <point x="97" y="297"/>
      <point x="97" y="222" type="curve" smooth="yes"/>
    </contour>
    <contour>
      <point x="123" y="-12" type="curve" smooth="yes"/>
      <point x="144" y="-12"/>
      <point x="159" y="7"/>
      <point x="159" y="49" type="curve" smooth="yes"/>
      <point x="159" y="91"/>
      <point x="144" y="108"/>
      <point x="123" y="108" type="curve" smooth="yes"/>
      <point x="99" y="108"/>
      <point x="86" y="89"/>
      <point x="86" y="49" type="curve" smooth="yes"/>
      <point x="86" y="8"/>
      <point x="100" y="-12"/>
    </contour>
  </outline>
</glyph>
<glyph name="at" format="2">
  <advance width="300"/>
  <unicode hex="0040"/>
  <outline>
    <contour>
      <point x="143" y="-89" type="curve" smooth="yes"/>
      <point x="169" y="-89"/>
      <point x="194" y="-76"/>
      <point x="218" y="-49" type="curve"/>
      <point x="218" y="0" type="line"/>
      <point x="192" y="-24"/>
      <point x="168" y="-38"/>
      <point x="144" y="-38" type="curve" smooth="yes"/>
      <point x="73" y="-38"/>
      <point x="44" y="85"/>
      <point x="44" y="296" type="curve" smooth="yes"/>
      <point x="44" y="527"/>
      <point x="83" y="663"/>
      <point x="143" y="663" type="curve" smooth="yes"/>
      <point x="197" y="663"/>
      <point x="226" y="545"/>
      <point x="226" y="357" type="curve" smooth="yes"/>
      <point x="226" y="231"/>
      <point x="221" y="157"/>
      <point x="207" y="157" type="curve" smooth="yes"/>
      <point x="199" y="157"/>
      <point x="197" y="191"/>
      <point x="197" y="256" type="curve" smooth="yes"/>
      <point x="197" y="270"/>
      <point x="197" y="289"/>
      <point x="198" y="303" type="curve" smooth="yes"/>
      <point x="203" y="496" type="line"/>
      <point x="189" y="508"/>
      <point x="168" y="518"/>
      <point x="150" y="518" type="curve" smooth="yes"/>
      <point x="100" y="518"/>
      <point x="67" y="429"/>
      <point x="67" y="294" type="curve" smooth="yes"/>
      <point x="67" y="180"/>
      <point x="89" y="110"/>
      <point x="124" y="110" type="curve" smooth="yes"/>
      <point x="142" y="110"/>
      <point x="159" y="139"/>
      <point x="167" y="191" type="curve"/>
      <point x="169" y="190" type="line"/>
      <point x="174" y="142"/>
      <point x="188" y="110"/>
      <point x="206" y="110" type="curve" smooth="yes"/>
      <point x="248" y="110"/>
      <point x="264" y="232"/>
      <point x="264" y="357" type="curve" smooth="yes"/>
      <point x="264" y="576"/>
      <point x="219" y="714"/>
      <point x="143" y="714" type="curve" smooth="yes"/>
      <point x="59" y="714"/>
      <point x="5" y="556"/>
      <point x="5" y="294" type="curve" smooth="yes"/>
      <point x="5" y="55"/>
      <point x="49" y="-89"/>
    </contour>
    <contour>
      <point x="132" y="157" type="curve" smooth="yes"/>
      <point x="117" y="157"/>
      <point x="110" y="206"/>
      <point x="110" y="292" type="curve" smooth="yes"/>
      <point x="110" y="403"/>
      <point x="125" y="471"/>
      <point x="147" y="471" type="curve" smooth="yes"/>
      <point x="152" y="471"/>
      <point x="156" y="468"/>
      <point x="160" y="459" type="curve"/>
      <point x="157" y="323" type="line" smooth="yes"/>
      <point x="154" y="211"/>
      <point x="148" y="157"/>
    </contour>
  </outline>
</glyph>
<glyph name="A" format="2">
  <advance width="300"/>
  <unicode hex="0041"/>
  <anchor x="135" y="0" name="bottom"/>
  <anchor x="239" y="10" name="ogonek"/>
  <anchor x="135" y="718" name="top"/>
  <anchor x="255" y="714" name="topright"/>
  <outline>
    <contour>
      <point x="13" y="0" type="line"/>
      <point x="74" y="0" type="line"/>
      <point x="123" y="548" type="line" smooth="yes"/>
      <point x="126" y="583"/>
      <point x="132" y="624"/>
      <point x="135" y="655" type="curve"/>
      <point x="137" y="624"/>
      <point x="143" y="583"/>
      <point x="146" y="548" type="curve" smooth="yes"/>
      <point x="197" y="0" type="line"/>
      <point x="258" y="0" type="line"/>
      <point x="177" y="714" type="line"/>
      <point x="92" y="714" type="line"/>
    </contour>
    <contour>
      <point x="73" y="235" type="line"/>
      <point x="204" y="235" type="line"/>
      <point x="204" y="301" type="line"/>
      <point x="73" y="301" type="line"/>
    </contour>
  </outline>
</glyph>
<glyph name="B" format="2">
  <advance width="300"/>
  <unicode hex="0042"/>
  <anchor x="135" y="0" name="bottom"/>
  <anchor x="135" y="714" name="top"/>
  <anchor x="255" y="714" name="topright"/>
  <outline>
    <contour>
      <point x="35" y="0" type="line"/>
      <point x="134" y="0" type="line" smooth="yes"/>
      <point x="203" y="0"/>
      <point x="246" y="74"/>
      <point x="246" y="204" type="curve" smooth="yes"/>
      <point x="246" y="308"/>
      <point x="224" y="358"/>
      <point x="185" y="374" type="curve"/>
      <point x="185" y="379" type="line"/>
      <point x="218" y="394"/>
      <point x="238" y="454"/>
      <point x="238" y="542" type="curve" smooth="yes"/>
      <point x="238" y="661"/>
      <point x="198" y="714"/>
      <point x="125" y="714" type="curve" smooth="yes"/>
      <point x="35" y="714" type="line"/>
    </contour>
    <contour>
      <point x="92" y="66" type="line"/>
      <point x="92" y="341" type="line"/>
      <point x="125" y="341" type="line" smooth="yes"/>
      <point x="169" y="341"/>
      <point x="188" y="295"/>
      <point x="188" y="205" type="curve" smooth="yes"/>
      <point x="188" y="116"/>
      <point x="170" y="66"/>
      <point x="128" y="66" type="curve" smooth="yes"/>
    </contour>
    <contour>
      <point x="92" y="407" type="line"/>
      <point x="92" y="648" type="line"/>
      <point x="120" y="648" type="line" smooth="yes"/>
      <point x="161" y="648"/>
      <point x="180" y="613"/>
      <point x="180" y="530" type="curve" smooth="yes"/>
      <point x="180" y="448"/>
      <point x="161" y="407"/>
      <point x="122" y="407" type="curve" smooth="yes"/>
    </contour>
  </outline>
</glyph>
<glyph name="C" format="2">
  <advance width="300"/>
  <unicode hex="0043"/>
  <anchor x="158" y="0" name="bottom"/>
  <anchor x="162" y="714" name="top"/>
  <anchor x="254" y="714" name="topright"/>
  <outline>
    <contour>
      <point x="162" y="-10" type="curve" smooth="yes"/>
      <point x="193" y="-10"/>
      <point x="217" y="-2"/>
      <point x="242" y="16" type="curve"/>
      <point x="242" y="83" type="line"/>
      <point x="219" y="68"/>
      <point x="197" y="56"/>
      <point x="172" y="56" type="curve" smooth="yes"/>
      <point x="115" y="56"/>
      <point x="85" y="174"/>
      <point x="85" y="357" type="curve" smooth="yes"/>
      <point x="85" y="526"/>
      <point x="114" y="660"/>
      <point x="173" y="660" type="curve" smooth="yes"/>
      <point x="194" y="660"/>
      <point x="215" y="648"/>
      <point x="233" y="627" type="curve"/>
      <point x="254" y="689" type="line"/>
      <point x="229" y="712"/>
      <point x="202" y="726"/>
      <point x="166" y="726" type="curve" smooth="yes"/>
      <point x="74" y="726"/>
      <point x="23" y="565"/>
      <point x="23" y="358" type="curve" smooth="yes"/>
      <point x="23" y="131"/>
      <point x="72" y="-10"/>
    </contour>
  </outline>
</glyph>
<glyph name="D" format="2">
  <advance width="300"/>
  <unicode hex="0044"/>
  <anchor x="122" y="0" name="bottom"/>
  <anchor x="139" y="357" name="center"/>
  <anchor x="129" y="714" name="top"/>
  <anchor x="265" y="714" name="topright"/>
  <outline>
    <contour>
      <point x="24" y="0" type="line"/>
      <point x="122" y="0" type="line" smooth="yes"/>
      <point x="204" y="0"/>
      <point x="255" y="125"/>
      <point x="255" y="365" type="curve" smooth="yes"/>
      <point x="255" y="593"/>
      <point x="208" y="714"/>
      <point x="128" y="714" type="curve" smooth="yes"/>
      <point x="24" y="714" type="line"/>
    </contour>
    <contour>
      <point x="85" y="69" type="line"/>
      <point x="85" y="646" type="line"/>
      <point x="118" y="646" type="line" smooth="yes"/>
      <point x="170" y="646"/>
      <point x="192" y="562"/>
      <point x="192" y="364" type="curve" smooth="yes"/>
      <point x="192" y="170"/>
      <point x="169" y="69"/>
      <point x="117" y="69" type="curve" smooth="yes"/>
    </contour>
  </outline>
</glyph>
<glyph name="E" format="2">
  <advance width="300"/>
  <unicode hex="0045"/>
  <anchor x="137" y="0" name="bottom"/>
  <anchor x="207" y="10" name="ogonek"/>
  <anchor x="136" y="714" name="top"/>
  <anchor x="16" y="714" name="topleft"/>
  <anchor x="255" y="714" name="topright"/>
  <outline>
    <contour>
      <point x="34" y="0" type="line"/>
      <point x="239" y="0" type="line"/>
      <point x="239" y="69" type="line"/>
      <point x="95" y="69" type="line"/>
      <point x="95" y="337" type="line"/>
      <point x="230" y="337" type="line"/>
      <point x="230" y="405" type="line"/>
      <point x="95" y="405" type="line"/>
      <point x="95" y="646" type="line"/>
      <point x="239" y="646" type="line"/>
      <point x="239" y="714" type="line"/>
      <point x="34" y="714" type="line"/>
    </contour>
  </outline>
</glyph>
<glyph name="F" format="2">
  <advance width="300"/>
  <unicode hex="0046"/>
  <anchor x="138" y="0" name="bottom"/>
  <anchor x="138" y="714" name="top"/>
  <anchor x="255" y="714" name="topright"/>
  <outline>
    <contour>
      <point x="34" y="0" type="line"/>
      <point x="95" y="0" type="line"/>
      <point x="95" y="309" type="line"/>
      <point x="231" y="309" type="line"/>
      <point x="231" y="378" type="line"/>
      <point x="95" y="378" type="line"/>
      <point x="95" y="646" type="line"/>
      <point x="239" y="646" type="line"/>
      <point x="239" y="714" type="line"/>
      <point x="34" y="714" type="line"/>
    </contour>
  </outline>
</glyph>
<glyph name="G" format="2">
  <advance width="300"/>
  <unicode hex="0047"/>
  <anchor x="152" y="0" name="bottom"/>
  <anchor x="149" y="714" name="top"/>
  <anchor x="254" y="714" name="topright"/>
  <outline>
    <contour>
      <point x="156" y="-10" type="curve" smooth="yes"/>
      <point x="188" y="-10"/>
      <point x="215" y="2"/>
      <point x="245" y="25" type="curve"/>
      <point x="245" y="372" type="line"/>
      <point x="146" y="372" type="line"/>
      <point x="146" y="304" type="line"/>
      <point x="187" y="304" type="line"/>
      <point x="187" y="72" type="line"/>
      <point x="176" y="62"/>
      <point x="165" y="56"/>
      <point x="151" y="56" type="curve" smooth="yes"/>
      <point x="101" y="56"/>
      <point x="77" y="187"/>
      <point x="77" y="358" type="curve" smooth="yes"/>
      <point x="77" y="547"/>
      <point x="106" y="660"/>
      <point x="163" y="660" type="curve" smooth="yes"/>
      <point x="187" y="660"/>
      <point x="204" y="650"/>
      <point x="226" y="622" type="curve"/>
      <point x="246" y="682" type="line"/>
      <point x="223" y="712"/>
      <point x="194" y="726"/>
      <point x="159" y="726" type="curve" smooth="yes"/>
      <point x="66" y="726"/>
      <point x="15" y="572"/>
      <point x="15" y="359" type="curve" smooth="yes"/>
      <point x="15" y="146"/>
      <point x="58" y="-10"/>
    </contour>
  </outline>
</glyph>
<glyph name="H" format="2">
  <advance width="300"/>
  <unicode hex="0048"/>
  <anchor x="135" y="0" name="bottom"/>
  <anchor x="135" y="371" name="center"/>
  <anchor x="135" y="714" name="top"/>
  <anchor x="16" y="714" name="topleft"/>
  <anchor x="265" y="714" name="topright"/>
  <outline>
    <contour>
      <point x="24" y="0" type="line"/>
      <point x="85" y="0" type="line"/>
      <point x="85" y="336" type="line"/>
      <point x="186" y="336" type="line"/>
      <point x="186" y="0" type="line"/>
      <point x="246" y="0" type="line"/>
      <point x="246" y="714" type="line"/>
      <point x="186" y="714" type="line"/>
      <point x="186" y="404" type="line"/>
      <point x="85" y="404" type="line"/>
      <point x="85" y="714" type="line"/>
      <point x="24" y="714" type="line"/>
    </contour>
  </outline>
</glyph>
<glyph name="I" format="2">
  <advance width="300"/>
  <unicode hex="0049"/>
  <anchor x="135" y="0" name="bottom"/>
  <anchor x="177" y="10" name="ogonek"/>
  <anchor x="135" y="714" name="top"/>
  <anchor x="16" y="714" name="topleft"/>
  <anchor x="254" y="714" name="topright"/>
  <outline>
    <contour>
      <point x="38" y="0" type="line"/>
      <point x="232" y="0" type="line"/>
      <point x="232" y="52" type="line"/>
      <point x="165" y="61" type="line"/>
      <point x="165" y="653" type="line"/>
      <point x="232" y="662" type="line"/>
      <point x="232" y="714" type="line"/>
      <point x="38" y="714" type="line"/>
      <point x="38" y="662" type="line"/>
      <point x="105" y="653" type="line"/>
      <point x="105" y="61" type="line"/>
      <point x="38" y="52" type="line"/>
    </contour>
  </outline>
</glyph>
<glyph name="J" format="2">
  <advance width="300"/>
  <unicode hex="004A"/>
  <anchor x="135" y="0" name="bottom"/>
  <anchor x="187" y="714" name="top"/>
  <anchor x="255" y="714" name="topright"/>
  <outline>
    <contour>
      <point x="92" y="-11" type="curve" smooth="yes"/>
      <point x="175" y="-11"/>
      <point x="218" y="75"/>
      <point x="218" y="201" type="curve" smooth="yes"/>
      <point x="218" y="714" type="line"/>
      <point x="158" y="714" type="line"/>
      <point x="158" y="216" type="line" smooth="yes"/>
      <point x="158" y="113"/>
      <point x="129" y="55"/>
      <point x="86" y="55" type="curve" smooth="yes"/>
      <point x="70" y="55"/>
      <point x="49" y="67"/>
      <point x="29" y="87" type="curve"/>
      <point x="29" y="19" type="line"/>
      <point x="47" y="1"/>
      <point x="69" y="-11"/>
    </contour>
  </outline>
</glyph>
<glyph name="K" format="2">
  <advance width="300"/>
  <unicode hex="004B"/>
  <anchor x="139" y="0" name="bottom"/>
  <anchor x="136" y="714" name="top"/>
  <anchor x="255" y="714" name="topright"/>
  <outline>
    <contour>
      <point x="25" y="0" type="line"/>
      <point x="83" y="0" type="line"/>
      <point x="83" y="268" type="line"/>
      <point x="114" y="344" type="line"/>
      <point x="189" y="0" type="line"/>
      <point x="255" y="0" type="line"/>
      <point x="158" y="397" type="line"/>
      <point x="254" y="714" type="line"/>
      <point x="188" y="714" type="line"/>
      <point x="118" y="459" type="line" smooth="yes"/>
      <point x="105" y="412"/>
      <point x="93" y="378"/>
      <point x="83" y="348" type="curve"/>
      <point x="83" y="714" type="line"/>
      <point x="25" y="714" type="line"/>
    </contour>
  </outline>
</glyph>
<glyph name="L" format="2">
  <advance width="300"/>
  <unicode hex="004C"/>
  <anchor x="145" y="0" name="bottom"/>
  <anchor x="135" y="357" name="center"/>
  <anchor x="70" y="714" name="top"/>
  <anchor x="197" y="714" name="topright"/>
  <outline>
    <contour>
      <point x="39" y="0" type="line"/>
      <point x="239" y="0" type="line"/>
      <point x="239" y="70" type="line"/>
      <point x="100" y="70" type="line"/>
      <point x="100" y="714" type="line"/>
      <point x="39" y="714" type="line"/>
    </contour>
  </outline>
</glyph>
<glyph name="M" format="2">
  <advance width="300"/>
  <unicode hex="004D"/>
  <anchor x="135" y="0" name="bottom"/>
  <anchor x="137" y="714" name="top"/>
  <anchor x="264" y="714" name="topright"/>
  <outline>
    <contour>
      <point x="17" y="0" type="line"/>
      <point x="67" y="0" type="line"/>
      <point x="67" y="422" type="line" smooth="yes"/>
      <point x="67" y="505"/>
      <point x="59" y="591"/>
      <point x="57" y="650" type="curve"/>
      <point x="61" y="650" type="line"/>
      <point x="106" y="201" type="line"/>
      <point x="162" y="201" type="line"/>
      <point x="209" y="649" type="line"/>
      <point x="212" y="649" type="line"/>
      <point x="210" y="579"/>
      <point x="204" y="498"/>
      <point x="204" y="424" type="curve" smooth="yes"/>
      <point x="203" y="0" type="line"/>
      <point x="252" y="0" type="line"/>
      <point x="252" y="714" type="line"/>
      <point x="175" y="714" type="line"/>
      <point x="136" y="280" type="line"/>
      <point x="135" y="280" type="line"/>
      <point x="95" y="714" type="line"/>
      <point x="17" y="714" type="line"/>
    </contour>
  </outline>
</glyph>
<glyph name="N" format="2">
  <advance width="300"/>
  <unicode hex="004E"/>
  <anchor x="135" y="0" name="bottom"/>
  <anchor x="138" y="714" name="top"/>
  <anchor x="264" y="714" name="topright"/>
  <outline>
    <contour>
      <point x="25" y="0" type="line"/>
      <point x="76" y="0" type="line"/>
      <point x="76" y="457" type="line" smooth="yes"/>
      <point x="76" y="526"/>
      <point x="72" y="580"/>
      <point x="70" y="637" type="curve"/>
      <point x="73" y="637" type="line"/>
      <point x="168" y="0" type="line"/>
      <point x="245" y="0" type="line"/>
      <point x="245" y="714" type="line"/>
      <point x="192" y="714" type="line"/>
      <point x="192" y="242" type="line" smooth="yes"/>
      <point x="192" y="183"/>
      <point x="197" y="107"/>
      <point x="199" y="80" type="curve"/>
      <point x="196" y="80" type="line"/>
      <point x="103" y="714" type="line"/>
      <point x="25" y="714" type="line"/>
    </contour>
  </outline>
</glyph>
<glyph name="O" format="2">
  <advance width="300"/>
  <unicode hex="004F"/>
  <anchor x="134" y="0" name="bottom"/>
  <anchor x="134" y="357" name="center"/>
  <anchor x="138" y="10" name="ogonek"/>
  <anchor x="134" y="714" name="top"/>
  <anchor x="16" y="714" name="topleft"/>
  <anchor x="265" y="714" name="topright"/>
  <outline>
    <contour>
      <point x="135" y="-10" type="curve" smooth="yes"/>
      <point x="222" y="-10"/>
      <point x="255" y="154"/>
      <point x="255" y="358" type="curve" smooth="yes"/>
      <point x="255" y="565"/>
      <point x="220" y="726"/>
      <point x="134" y="726" type="curve" smooth="yes"/>
      <point x="52" y="726"/>
      <point x="15" y="598"/>
      <point x="15" y="359" type="curve" smooth="yes"/>
      <point x="15" y="159"/>
      <point x="48" y="-10"/>
    </contour>
    <contour>
      <point x="135" y="56" type="curve" smooth="yes"/>
      <point x="95" y="56"/>
      <point x="77" y="163"/>
      <point x="77" y="358" type="curve" smooth="yes"/>
      <point x="77" y="552"/>
      <point x="92" y="660"/>
      <point x="135" y="660" type="curve" smooth="yes"/>
      <point x="175" y="660"/>
      <point x="192" y="554"/>
      <point x="192" y="358" type="curve" smooth="yes"/>
      <point x="192" y="160"/>
      <point x="176" y="56"/>
    </contour>
  </outline>
</glyph>
<glyph name="P" format="2">
  <advance width="300"/>
  <unicode hex="0050"/>
  <anchor x="135" y="0" name="bottom"/>
  <anchor x="137" y="714" name="top"/>
  <anchor x="265" y="714" name="topright"/>
  <outline>
    <contour>
      <point x="35" y="0" type="line"/>
      <point x="94" y="0" type="line"/>
      <point x="94" y="283" type="line"/>
      <point x="131" y="283" type="line" smooth="yes"/>
      <point x="214" y="283"/>
      <point x="246" y="374"/>
      <point x="246" y="507" type="curve" smooth="yes"/>
      <point x="246" y="643"/>
      <point x="211" y="714"/>
      <point x="135" y="714" type="curve" smooth="yes"/>
      <point x="35" y="714" type="line"/>
    </contour>
    <contour>
      <point x="94" y="351" type="line"/>
      <point x="94" y="646" type="line"/>
      <point x="133" y="646" type="line" smooth="yes"/>
      <point x="170" y="646"/>
      <point x="188" y="602"/>
      <point x="188" y="503" type="curve" smooth="yes"/>
      <point x="188" y="392"/>
      <point x="170" y="351"/>
      <point x="125" y="351" type="curve" smooth="yes"/>
    </contour>
  </outline>
</glyph>
<glyph name="Q" format="2">
  <advance width="300"/>
  <unicode hex="0051"/>
  <anchor x="132" y="-218" name="bottom"/>
  <anchor x="132" y="714" name="top"/>
  <anchor x="260" y="714" name="topright"/>
  <anchor x="18" y="714" name="topleft"/>
  <anchor x="140" y="10" name="ogonek"/>
  <anchor x="136" y="357" name="center"/>
  <outline>
    <contour>
      <point x="185" y="-178" type="line"/>
      <point x="250" y="-178" type="line"/>
      <point x="189" y="78" type="line"/>
      <point x="144" y="25" type="line"/>
    </contour>
    <component base="O" xOffset="2"/>
  </outline>
</glyph>
<glyph name="R" format="2">
  <advance width="300"/>
  <unicode hex="0052"/>
  <anchor x="142" y="0" name="bottom"/>
  <anchor x="135" y="714" name="top"/>
  <anchor x="254" y="714" name="topright"/>
  <outline>
    <contour>
      <point x="35" y="0" type="line"/>
      <point x="93" y="0" type="line"/>
      <point x="93" y="299" type="line"/>
      <point x="133" y="299" type="line"/>
      <point x="193" y="0" type="line"/>
      <point x="257" y="0" type="line"/>
      <point x="184" y="318" type="line"/>
      <point x="218" y="343"/>
      <point x="238" y="402"/>
      <point x="238" y="513" type="curve" smooth="yes"/>
      <point x="238" y="651"/>
      <point x="198" y="714"/>
      <point x="121" y="714" type="curve" smooth="yes"/>
      <point x="35" y="714" type="line"/>
    </contour>
    <contour>
      <point x="93" y="365" type="line"/>
      <point x="93" y="648" type="line"/>
      <point x="119" y="648" type="line" smooth="yes"/>
      <point x="161" y="648"/>
      <point x="180" y="609"/>
      <point x="180" y="511" type="curve" smooth="yes"/>
      <point x="180" y="415"/>
      <point x="160" y="365"/>
      <point x="121" y="365" type="curve" smooth="yes"/>
    </contour>
  </outline>
</glyph>
<glyph name="S" format="2">
  <advance width="300"/>
  <unicode hex="0053"/>
  <anchor x="134" y="0" name="bottom"/>
  <anchor x="141" y="714" name="top"/>
  <anchor x="254" y="714" name="topright"/>
  <outline>
    <contour>
      <point x="120" y="-10" type="curve" smooth="yes"/>
      <point x="193" y="-10"/>
      <point x="239" y="60"/>
      <point x="239" y="192" type="curve" smooth="yes"/>
      <point x="239" y="309"/>
      <point x="208" y="345"/>
      <point x="154" y="396" type="curve" smooth="yes"/>
      <point x="115" y="433"/>
      <point x="95" y="463"/>
      <point x="95" y="544" type="curve" smooth="yes"/>
      <point x="95" y="615"/>
      <point x="110" y="660"/>
      <point x="146" y="660" type="curve" smooth="yes"/>
      <point x="167" y="660"/>
      <point x="190" y="648"/>
      <point x="214" y="626" type="curve"/>
      <point x="234" y="689" type="line"/>
      <point x="204" y="713"/>
      <point x="174" y="726"/>
      <point x="143" y="726" type="curve" smooth="yes"/>
      <point x="76" y="726"/>
      <point x="33" y="667"/>
      <point x="33" y="540" type="curve" smooth="yes"/>
      <point x="33" y="426"/>
      <point x="68" y="380"/>
      <point x="112" y="336" type="curve" smooth="yes"/>
      <point x="155" y="294"/>
      <point x="177" y="267"/>
      <point x="177" y="186" type="curve" smooth="yes"/>
      <point x="177" y="113"/>
      <point x="163" y="56"/>
      <point x="118" y="56" type="curve" smooth="yes"/>
      <point x="89" y="56"/>
      <point x="60" y="70"/>
      <point x="34" y="91" type="curve"/>
      <point x="34" y="22" type="line"/>
      <point x="59" y="2"/>
      <point x="90" y="-10"/>
    </contour>
  </outline>
</glyph>
<glyph name="T" format="2">
  <advance width="300"/>
  <unicode hex="0054"/>
  <anchor x="135" y="0" name="bottom"/>
  <anchor x="135" y="357" name="center"/>
  <anchor x="135" y="714" name="top"/>
  <anchor x="255" y="714" name="topright"/>
  <outline>
    <contour>
      <point x="104" y="0" type="line"/>
      <point x="166" y="0" type="line"/>
      <point x="166" y="646" type="line"/>
      <point x="252" y="646" type="line"/>
      <point x="252" y="714" type="line"/>
      <point x="19" y="714" type="line"/>
      <point x="19" y="646" type="line"/>
      <point x="104" y="646" type="line"/>
    </contour>
  </outline>
</glyph>
<glyph name="U" format="2">
  <advance width="300"/>
  <unicode hex="0055"/>
  <anchor x="135" y="0" name="bottom"/>
  <anchor x="239" y="10" name="ogonek"/>
  <anchor x="135" y="714" name="top"/>
  <anchor x="255" y="714" name="topright"/>
  <outline>
    <contour>
      <point x="135" y="-10" type="curve" smooth="yes"/>
      <point x="215" y="-10"/>
      <point x="246" y="62"/>
      <point x="246" y="221" type="curve" smooth="yes"/>
      <point x="246" y="714" type="line"/>
      <point x="185" y="714" type="line"/>
      <point x="185" y="225" type="line" smooth="yes"/>
      <point x="185" y="105"/>
      <point x="174" y="56"/>
      <point x="135" y="56" type="curve" smooth="yes"/>
      <point x="99" y="56"/>
      <point x="85" y="105"/>
      <point x="85" y="225" type="curve" smooth="yes"/>
      <point x="85" y="714" type="line"/>
      <point x="24" y="714" type="line"/>
      <point x="24" y="222" type="line" smooth="yes"/>
      <point x="24" y="65"/>
      <point x="58" y="-10"/>
    </contour>
  </outline>
</glyph>
<glyph name="V" format="2">
  <advance width="300"/>
  <unicode hex="0056"/>
  <anchor x="135" y="0" name="bottom"/>
  <anchor x="135" y="714" name="top"/>
  <anchor x="255" y="714" name="topright"/>
  <outline>
    <contour>
      <point x="99" y="0" type="line"/>
      <point x="169" y="0" type="line"/>
      <point x="260" y="714" type="line"/>
      <point x="198" y="714" type="line"/>
      <point x="150" y="233" type="line" smooth="yes"/>
      <point x="144" y="175"/>
      <point x="139" y="116"/>
      <point x="135" y="73" type="curve"/>
      <point x="134" y="73" type="line"/>
      <point x="132" y="117"/>
      <point x="125" y="176"/>
      <point x="119" y="231" type="curve" smooth="yes"/>
      <point x="71" y="714" type="line"/>
      <point x="11" y="714" type="line"/>
    </contour>
  </outline>
</glyph>
<glyph name="W" format="2">
  <advance width="300"/>
  <unicode hex="0057"/>
  <anchor x="135" y="0" name="bottom"/>
  <anchor x="135" y="714" name="top"/>
  <anchor x="255" y="714" name="topright"/>
  <outline>
    <contour>
      <point x="36" y="0" type="line"/>
      <point x="107" y="0" type="line"/>
      <point x="126" y="335" type="line" smooth="yes"/>
      <point x="129" y="392"/>
      <point x="133" y="419"/>
      <point x="134" y="449" type="curve"/>
      <point x="136" y="449" type="line"/>
      <point x="139" y="419"/>
      <point x="142" y="391"/>
      <point x="145" y="335" type="curve" smooth="yes"/>
      <point x="164" y="0" type="line"/>
      <point x="235" y="0" type="line"/>
      <point x="260" y="714" type="line"/>
      <point x="207" y="714" type="line"/>
      <point x="205" y="593"/>
      <point x="202" y="472"/>
      <point x="200" y="352" type="curve" smooth="yes"/>
      <point x="199" y="302"/>
      <point x="196" y="116"/>
      <point x="195" y="70" type="curve"/>
      <point x="192" y="70" type="line"/>
      <point x="191" y="115"/>
      <point x="183" y="211"/>
      <point x="179" y="274" type="curve" smooth="yes"/>
      <point x="162" y="534" type="line"/>
      <point x="108" y="534" type="line"/>
      <point x="93" y="275" type="line" smooth="yes"/>
      <point x="90" y="217"/>
      <point x="82" y="114"/>
      <point x="79" y="70" type="curve"/>
      <point x="78" y="70" type="line"/>
      <point x="77" y="116"/>
      <point x="72" y="294"/>
      <point x="70" y="351" type="curve" smooth="yes"/>
      <point x="66" y="473"/>
      <point x="63" y="593"/>
      <point x="60" y="714" type="curve"/>
      <point x="11" y="714" type="line"/>
    </contour>
  </outline>
</glyph>
<glyph name="X" format="2">
  <advance width="300"/>
  <unicode hex="0058"/>
  <anchor x="136" y="0" name="bottom"/>
  <anchor x="136" y="714" name="top"/>
  <anchor x="255" y="714" name="topright"/>
  <outline>
    <contour>
      <point x="13" y="0" type="line"/>
      <point x="76" y="0" type="line"/>
      <point x="133" y="309" type="line"/>
      <point x="193" y="0" type="line"/>
      <point x="259" y="0" type="line"/>
      <point x="170" y="370" type="line"/>
      <point x="252" y="714" type="line"/>
      <point x="188" y="714" type="line"/>
      <point x="135" y="436" type="line"/>
      <point x="83" y="714" type="line"/>
      <point x="19" y="714" type="line"/>
      <point x="99" y="373" type="line"/>
    </contour>
  </outline>
</glyph>
<glyph name="Y" format="2">
  <advance width="300"/>
  <unicode hex="0059"/>
  <anchor x="135" y="0" name="bottom"/>
  <anchor x="135" y="714" name="top"/>
  <anchor x="16" y="714" name="topleft"/>
  <anchor x="254" y="714" name="topright"/>
  <outline>
    <contour>
      <point x="104" y="0" type="line"/>
      <point x="164" y="0" type="line"/>
      <point x="164" y="274" type="line"/>
      <point x="258" y="714" type="line"/>
      <point x="191" y="714" type="line"/>
      <point x="135" y="343" type="line"/>
      <point x="78" y="714" type="line"/>
      <point x="12" y="714" type="line"/>
      <point x="104" y="273" type="line"/>
    </contour>
  </outline>
</glyph>
<glyph name="Z" format="2">
  <advance width="300"/>
  <unicode hex="005A"/>
  <anchor x="144" y="0" name="bottom"/>
  <anchor x="139" y="714" name="top"/>
  <anchor x="255" y="714" name="topright"/>
  <outline>
    <contour>
      <point x="34" y="0" type="line"/>
      <point x="240" y="0" type="line"/>
      <point x="240" y="69" type="line"/>
      <point x="103" y="69" type="line"/>
      <point x="239" y="653" type="line"/>
      <point x="239" y="714" type="line"/>
      <point x="38" y="714" type="line"/>
      <point x="38" y="646" type="line"/>
      <point x="172" y="646" type="line"/>
      <point x="34" y="61" type="line"/>
    </contour>
  </outline>
</glyph>
<glyph name="bracketleft" format="2">
  <advance width="300"/>
  <unicode hex="005B"/>
  <outline>
    <contour>
      <point x="97" y="-161" type="line"/>
      <point x="213" y="-161" type="line"/>
      <point x="213" y="-101" type="line"/>
      <point x="152" y="-101" type="line"/>
      <point x="152" y="659" type="line"/>
      <point x="213" y="659" type="line"/>
      <point x="213" y="718" type="line"/>
      <point x="97" y="718" type="line"/>
    </contour>
  </outline>
</glyph>
<glyph name="asciicircum" format="2">
  <advance width="300"/>
  <unicode hex="005E"/>
  <outline>
    <contour>
      <point x="21" y="330" type="line"/>
      <point x="77" y="330" type="line"/>
      <point x="135" y="623" type="line"/>
      <point x="194" y="330" type="line"/>
      <point x="250" y="330" type="line"/>
      <point x="151" y="713" type="line"/>
      <point x="119" y="713" type="line"/>
    </contour>
  </outline>
</glyph>
<glyph name="underscore" format="2">
  <advance width="300"/>
  <unicode hex="005F"/>
  <outline>
    <contour>
      <point x="5" y="-149" type="line"/>
      <point x="264" y="-149" type="line"/>
      <point x="264" y="-81" type="line"/>
      <point x="5" y="-81" type="line"/>
    </contour>
  </outline>
</glyph>
<glyph name="grave" format="2">
  <advance width="300"/>
  <unicode hex="0060"/>
  <outline>
    <contour>
      <point x="129" y="606" type="curve"/>
      <point x="170" y="606" type="line"/>
      <point x="170" y="617" type="line"/>
      <point x="157" y="655"/>
      <point x="137" y="719"/>
      <point x="127" y="766" type="curve"/>
      <point x="59" y="766" type="line"/>
      <point x="59" y="757" type="line"/>
      <point x="73" y="713"/>
      <point x="111" y="642"/>
    </contour>
  </outline>
</glyph>
<glyph name="a" format="2">
  <advance width="300"/>
  <unicode hex="0061"/>
  <anchor x="138" y="0" name="bottom"/>
  <anchor x="239" y="10" name="ogonek"/>
  <anchor x="143" y="534" name="top"/>
  <anchor x="258" y="534" name="topright"/>
  <outline>
    <contour>
      <point x="109" y="-10" type="curve" smooth="yes"/>
      <point x="140" y="-10"/>
      <point x="163" y="26"/>
      <point x="182" y="80" type="curve"/>
      <point x="183" y="80" type="line"/>
      <point x="193" y="0" type="line"/>
      <point x="239" y="0" type="line"/>
      <point x="239" y="365" type="line" smooth="yes"/>
      <point x="239" y="489"/>
      <point x="203" y="545"/>
      <point x="138" y="545" type="curve" smooth="yes"/>
      <point x="103" y="545"/>
      <point x="74" y="527"/>
      <point x="46" y="499" type="curve"/>
      <point x="67" y="441" type="line"/>
      <point x="87" y="464"/>
      <point x="108" y="481"/>
      <point x="131" y="481" type="curve" smooth="yes"/>
      <point x="159" y="481"/>
      <point x="180" y="448"/>
      <point x="180" y="355" type="curve" smooth="yes"/>
      <point x="180" y="318" type="line"/>
      <point x="133" y="314" type="line" smooth="yes"/>
      <point x="68" y="309"/>
      <point x="31" y="257"/>
      <point x="31" y="146" type="curve" smooth="yes"/>
      <point x="31" y="43"/>
      <point x="63" y="-10"/>
    </contour>
    <contour>
      <point x="128" y="54" type="curve" smooth="yes"/>
      <point x="108" y="54"/>
      <point x="91" y="82"/>
      <point x="91" y="148" type="curve" smooth="yes"/>
      <point x="91" y="221"/>
      <point x="111" y="256"/>
      <point x="149" y="261" type="curve" smooth="yes"/>
      <point x="180" y="265" type="line"/>
      <point x="180" y="216" type="line" smooth="yes"/>
      <point x="180" y="108"/>
      <point x="154" y="54"/>
    </contour>
  </outline>
</glyph>
<glyph name="b" format="2">
  <advance width="300"/>
  <unicode hex="0062"/>
  <anchor x="135" y="0" name="bottom"/>
  <anchor x="135" y="760" name="top"/>
  <anchor x="255" y="760" name="topright"/>
  <outline>
    <contour>
      <point x="158" y="-10" type="curve" smooth="yes"/>
      <point x="213" y="-10"/>
      <point x="249" y="88"/>
      <point x="249" y="269" type="curve" smooth="yes"/>
      <point x="249" y="449"/>
      <point x="217" y="545"/>
      <point x="158" y="545" type="curve" smooth="yes"/>
      <point x="128" y="545"/>
      <point x="105" y="507"/>
      <point x="90" y="456" type="curve"/>
      <point x="87" y="456" type="line"/>
      <point x="89" y="490"/>
      <point x="90" y="527"/>
      <point x="90" y="563" type="curve" smooth="yes"/>
      <point x="90" y="760" type="line"/>
      <point x="30" y="760" type="line"/>
      <point x="30" y="0" type="line"/>
      <point x="78" y="0" type="line"/>
      <point x="86" y="74" type="line"/>
      <point x="90" y="74" type="line"/>
      <point x="108" y="23"/>
      <point x="131" y="-10"/>
    </contour>
    <contour>
      <point x="138" y="55" type="curve" smooth="yes"/>
      <point x="105" y="55"/>
      <point x="89" y="125"/>
      <point x="89" y="272" type="curve" smooth="yes"/>
      <point x="89" y="412"/>
      <point x="105" y="481"/>
      <point x="137" y="481" type="curve" smooth="yes"/>
      <point x="170" y="481"/>
      <point x="186" y="410"/>
      <point x="186" y="267" type="curve" smooth="yes"/>
      <point x="186" y="129"/>
      <point x="170" y="55"/>
    </contour>
  </outline>
</glyph>
<glyph name="c" format="2">
  <advance width="300"/>
  <unicode hex="0063"/>
  <anchor x="158" y="0" name="bottom"/>
  <anchor x="155" y="534" name="top"/>
  <anchor x="255" y="534" name="topright"/>
  <outline>
    <contour>
      <point x="161" y="-10" type="curve" smooth="yes"/>
      <point x="187" y="-10"/>
      <point x="213" y="1"/>
      <point x="234" y="18" type="curve"/>
      <point x="234" y="85" type="line"/>
      <point x="213" y="67"/>
      <point x="190" y="55"/>
      <point x="167" y="55" type="curve" smooth="yes"/>
      <point x="124" y="55"/>
      <point x="99" y="124"/>
      <point x="99" y="264" type="curve" smooth="yes"/>
      <point x="99" y="410"/>
      <point x="121" y="481"/>
      <point x="167" y="481" type="curve" smooth="yes"/>
      <point x="188" y="481"/>
      <point x="205" y="475"/>
      <point x="222" y="456" type="curve"/>
      <point x="242" y="517" type="line"/>
      <point x="218" y="535"/>
      <point x="191" y="545"/>
      <point x="162" y="545" type="curve" smooth="yes"/>
      <point x="81" y="545"/>
      <point x="36" y="462"/>
      <point x="36" y="263" type="curve" smooth="yes"/>
      <point x="36" y="75"/>
      <point x="88" y="-10"/>
    </contour>
  </outline>
</glyph>
<glyph name="d" format="2">
  <advance width="300"/>
  <unicode hex="0064"/>
  <anchor x="134" y="0" name="bottom"/>
  <anchor x="134" y="267" name="center"/>
  <anchor x="134" y="760" name="top"/>
  <anchor x="259" y="760" name="topright"/>
  <outline>
    <contour>
      <point x="113" y="-10" type="curve" smooth="yes"/>
      <point x="146" y="-10"/>
      <point x="167" y="31"/>
      <point x="181" y="79" type="curve"/>
      <point x="184" y="79" type="line"/>
      <point x="191" y="0" type="line"/>
      <point x="239" y="0" type="line"/>
      <point x="239" y="760" type="line"/>
      <point x="180" y="760" type="line"/>
      <point x="180" y="542" type="line" smooth="yes"/>
      <point x="180" y="517"/>
      <point x="182" y="488"/>
      <point x="184" y="459" type="curve"/>
      <point x="180" y="459" type="line"/>
      <point x="166" y="506"/>
      <point x="144" y="545"/>
      <point x="114" y="545" type="curve" smooth="yes"/>
      <point x="56" y="545"/>
      <point x="21" y="448"/>
      <point x="21" y="265" type="curve" smooth="yes"/>
      <point x="21" y="85"/>
      <point x="55" y="-10"/>
    </contour>
    <contour>
      <point x="133" y="55" type="curve" smooth="yes"/>
      <point x="97" y="55"/>
      <point x="83" y="124"/>
      <point x="83" y="258" type="curve" smooth="yes"/>
      <point x="83" y="405"/>
      <point x="97" y="481"/>
      <point x="134" y="481" type="curve" smooth="yes"/>
      <point x="170" y="481"/>
      <point x="181" y="403"/>
      <point x="181" y="271" type="curve" smooth="yes"/>
      <point x="181" y="246" type="line" smooth="yes"/>
      <point x="181" y="128"/>
      <point x="166" y="55"/>
    </contour>
  </outline>
</glyph>
<glyph name="e" format="2">
  <advance width="300"/>
  <unicode hex="0065"/>
  <anchor x="140" y="0" name="bottom"/>
  <anchor x="143" y="10" name="ogonek"/>
  <anchor x="138" y="534" name="top"/>
  <anchor x="258" y="534" name="topright"/>
  <outline>
    <contour>
      <point x="151" y="-10" type="curve" smooth="yes"/>
      <point x="186" y="-10"/>
      <point x="210" y="2"/>
      <point x="234" y="26" type="curve"/>
      <point x="234" y="95" type="line"/>
      <point x="211" y="69"/>
      <point x="187" y="55"/>
      <point x="156" y="55" type="curve" smooth="yes"/>
      <point x="114" y="55"/>
      <point x="87" y="121"/>
      <point x="85" y="253" type="curve"/>
      <point x="246" y="253" type="line"/>
      <point x="246" y="302" type="line" smooth="yes"/>
      <point x="246" y="443"/>
      <point x="206" y="545"/>
      <point x="138" y="545" type="curve" smooth="yes"/>
      <point x="64" y="545"/>
      <point x="23" y="437"/>
      <point x="23" y="264" type="curve" smooth="yes"/>
      <point x="23" y="90"/>
      <point x="71" y="-10"/>
    </contour>
    <contour>
      <point x="86" y="315" type="line"/>
      <point x="89" y="422"/>
      <point x="107" y="481"/>
      <point x="137" y="481" type="curve" smooth="yes"/>
      <point x="169" y="481"/>
      <point x="186" y="412"/>
      <point x="186" y="315" type="curve"/>
    </contour>
  </outline>
</glyph>
<glyph name="f" format="2">
  <advance width="300"/>
  <unicode hex="0066"/>
  <anchor x="135" y="0" name="bottom"/>
  <anchor x="169" y="764" name="top"/>
  <anchor x="255" y="765" name="topright"/>
  <outline>
    <contour>
      <point x="93" y="0" type="line"/>
      <point x="154" y="0" type="line"/>
      <point x="154" y="471" type="line"/>
      <point x="236" y="471" type="line"/>
      <point x="236" y="534" type="line"/>
      <point x="154" y="534" type="line"/>
      <point x="154" y="589" type="line" smooth="yes"/>
      <point x="154" y="677"/>
      <point x="168" y="702"/>
      <point x="193" y="702" type="curve" smooth="yes"/>
      <point x="205" y="702"/>
      <point x="218" y="698"/>
      <point x="233" y="689" type="curve"/>
      <point x="249" y="749" type="line"/>
      <point x="229" y="758"/>
      <point x="205" y="765"/>
      <point x="182" y="765" type="curve" smooth="yes"/>
      <point x="123" y="765"/>
      <point x="93" y="722"/>
      <point x="93" y="590" type="curve" smooth="yes"/>
      <point x="93" y="537" type="line"/>
      <point x="26" y="523" type="line"/>
      <point x="26" y="471" type="line"/>
      <point x="93" y="471" type="line"/>
    </contour>
  </outline>
</glyph>
<glyph name="g" format="2">
  <advance width="300"/>
  <unicode hex="0067"/>
  <anchor x="134" y="-244" name="bottom"/>
  <anchor x="134" y="534" name="top"/>
  <anchor x="259" y="534" name="topright"/>
  <outline>
    <contour>
      <point x="121" y="-244" type="curve" smooth="yes"/>
      <point x="202" y="-244"/>
      <point x="239" y="-166"/>
      <point x="239" y="-17" type="curve" smooth="yes"/>
      <point x="239" y="534" type="line"/>
      <point x="189" y="534" type="line"/>
      <point x="184" y="460" type="line"/>
      <point x="180" y="460" type="line"/>
      <point x="162" y="515"/>
      <point x="142" y="545"/>
      <point x="114" y="545" type="curve" smooth="yes"/>
      <point x="56" y="545"/>
      <point x="21" y="437"/>
      <point x="21" y="264" type="curve" smooth="yes"/>
      <point x="21" y="90"/>
      <point x="55" y="-9"/>
      <point x="115" y="-9" type="curve" smooth="yes"/>
      <point x="141" y="-9"/>
      <point x="162" y="21"/>
      <point x="178" y="79" type="curve"/>
      <point x="181" y="79" type="line"/>
      <point x="179" y="61"/>
      <point x="179" y="26"/>
      <point x="179" y="7" type="curve" smooth="yes"/>
      <point x="179" y="-23" type="line" smooth="yes"/>
      <point x="179" y="-120"/>
      <point x="159" y="-180"/>
      <point x="118" y="-180" type="curve" smooth="yes"/>
      <point x="96" y="-180"/>
      <point x="66" y="-165"/>
      <point x="39" y="-140" type="curve"/>
      <point x="39" y="-211" type="line"/>
      <point x="63" y="-232"/>
      <point x="90" y="-244"/>
    </contour>
    <contour>
      <point x="136" y="55" type="curve" smooth="yes"/>
      <point x="100" y="55"/>
      <point x="85" y="127"/>
      <point x="85" y="265" type="curve" smooth="yes"/>
      <point x="85" y="402"/>
      <point x="101" y="481"/>
      <point x="136" y="481" type="curve" smooth="yes"/>
      <point x="168" y="481"/>
      <point x="181" y="412"/>
      <point x="181" y="275" type="curve" smooth="yes"/>
      <point x="181" y="244" type="line" smooth="yes"/>
      <point x="181" y="122"/>
      <point x="166" y="55"/>
    </contour>
  </outline>
</glyph>
<glyph name="h" format="2">
  <advance width="300"/>
  <unicode hex="0068"/>
  <anchor x="135" y="0" name="bottom"/>
  <anchor x="135" y="267" name="center"/>
  <anchor x="60" y="760" name="top"/>
  <anchor x="255" y="760" name="topright"/>
  <outline>
    <contour>
      <point x="30" y="0" type="line"/>
      <point x="91" y="0" type="line"/>
      <point x="91" y="283" type="line" smooth="yes"/>
      <point x="91" y="411"/>
      <point x="105" y="481"/>
      <point x="140" y="481" type="curve" smooth="yes"/>
      <point x="173" y="481"/>
      <point x="182" y="434"/>
      <point x="182" y="337" type="curve" smooth="yes"/>
      <point x="182" y="0" type="line"/>
      <point x="243" y="0" type="line"/>
      <point x="243" y="352" type="line" smooth="yes"/>
      <point x="243" y="485"/>
      <point x="210" y="545"/>
      <point x="159" y="545" type="curve" smooth="yes"/>
      <point x="126" y="545"/>
      <point x="104" y="507"/>
      <point x="91" y="455" type="curve"/>
      <point x="87" y="455" type="line"/>
      <point x="90" y="478"/>
      <point x="91" y="501"/>
      <point x="91" y="525" type="curve" smooth="yes"/>
      <point x="91" y="760" type="line"/>
      <point x="30" y="760" type="line"/>
    </contour>
  </outline>
</glyph>
<glyph name="i" format="2">
  <advance width="300"/>
  <unicode hex="0069"/>
  <anchor x="141" y="0" name="bottom"/>
  <anchor x="137" y="760" name="top"/>
  <anchor x="222" y="760" name="topright"/>
  <outline>
    <contour>
      <point x="34" y="0" type="line"/>
      <point x="234" y="0" type="line"/>
      <point x="234" y="52" type="line"/>
      <point x="169" y="61" type="line"/>
      <point x="169" y="534" type="line"/>
      <point x="42" y="534" type="line"/>
      <point x="42" y="482" type="line"/>
      <point x="109" y="471" type="line"/>
      <point x="109" y="61" type="line"/>
      <point x="34" y="52" type="line"/>
    </contour>
    <contour>
      <point x="137" y="638" type="curve" smooth="yes"/>
      <point x="162" y="638"/>
      <point x="174" y="659"/>
      <point x="174" y="698" type="curve" smooth="yes"/>
      <point x="174" y="739"/>
      <point x="162" y="760"/>
      <point x="137" y="760" type="curve" smooth="yes"/>
      <point x="114" y="760"/>
      <point x="100" y="739"/>
      <point x="100" y="698" type="curve" smooth="yes"/>
      <point x="100" y="659"/>
      <point x="114" y="638"/>
    </contour>
  </outline>
</glyph>
<glyph name="j" format="2">
  <advance width="300"/>
  <unicode hex="006A"/>
  <anchor x="96" y="-245" name="bottom"/>
  <anchor x="155" y="757" name="top"/>
  <anchor x="254" y="757" name="topright"/>
  <outline>
    <contour>
      <point x="92" y="-245" type="curve" smooth="yes"/>
      <point x="160" y="-245"/>
      <point x="190" y="-188"/>
      <point x="190" y="-67" type="curve" smooth="yes"/>
      <point x="190" y="534" type="line"/>
      <point x="46" y="534" type="line"/>
      <point x="46" y="482" type="line"/>
      <point x="129" y="471" type="line"/>
      <point x="129" y="-70" type="line" smooth="yes"/>
      <point x="129" y="-142"/>
      <point x="116" y="-181"/>
      <point x="85" y="-181" type="curve" smooth="yes"/>
      <point x="70" y="-181"/>
      <point x="44" y="-171"/>
      <point x="24" y="-162" type="curve"/>
      <point x="24" y="-228" type="line"/>
      <point x="44" y="-237"/>
      <point x="71" y="-245"/>
    </contour>
    <contour>
      <point x="155" y="636" type="curve" smooth="yes"/>
      <point x="179" y="636"/>
      <point x="194" y="656"/>
      <point x="194" y="696" type="curve" smooth="yes"/>
      <point x="194" y="737"/>
      <point x="179" y="757"/>
      <point x="155" y="757" type="curve" smooth="yes"/>
      <point x="131" y="757"/>
      <point x="117" y="737"/>
      <point x="117" y="696" type="curve" smooth="yes"/>
      <point x="117" y="657"/>
      <point x="131" y="636"/>
    </contour>
  </outline>
</glyph>
<glyph name="k" format="2">
  <advance width="300"/>
  <unicode hex="006B"/>
  <anchor x="143" y="0" name="bottom"/>
  <anchor x="152" y="760" name="top"/>
  <anchor x="256" y="760" name="topright"/>
  <outline>
    <contour>
      <point x="34" y="0" type="line"/>
      <point x="91" y="0" type="line"/>
      <point x="91" y="199" type="line"/>
      <point x="115" y="250" type="line"/>
      <point x="189" y="0" type="line"/>
      <point x="257" y="0" type="line"/>
      <point x="156" y="304" type="line"/>
      <point x="254" y="534" type="line"/>
      <point x="185" y="534" type="line"/>
      <point x="113" y="331" type="line" smooth="yes"/>
      <point x="105" y="308"/>
      <point x="97" y="288"/>
      <point x="88" y="265" type="curve"/>
      <point x="87" y="265" type="line"/>
      <point x="89" y="316"/>
      <point x="91" y="355"/>
      <point x="91" y="404" type="curve" smooth="yes"/>
      <point x="91" y="760" type="line"/>
      <point x="34" y="760" type="line"/>
    </contour>
  </outline>
</glyph>
<glyph name="l" format="2">
  <advance width="300"/>
  <unicode hex="006C"/>
  <anchor x="136" y="0" name="bottom"/>
  <anchor x="136" y="372" name="center"/>
  <anchor x="135" y="760" name="top"/>
  <anchor x="221" y="760" name="topright"/>
  <outline>
    <contour>
      <point x="34" y="0" type="line"/>
      <point x="234" y="0" type="line"/>
      <point x="234" y="52" type="line"/>
      <point x="166" y="61" type="line"/>
      <point x="166" y="760" type="line"/>
      <point x="41" y="760" type="line"/>
      <point x="41" y="708" type="line"/>
      <point x="105" y="699" type="line"/>
      <point x="105" y="61" type="line"/>
      <point x="34" y="52" type="line"/>
    </contour>
  </outline>
</glyph>
<glyph name="m" format="2">
  <advance width="300"/>
  <unicode hex="006D"/>
  <anchor x="138" y="0" name="bottom"/>
  <anchor x="143" y="534" name="top"/>
  <anchor x="259" y="534" name="topright"/>
  <outline>
    <contour>
      <point x="17" y="0" type="line"/>
      <point x="66" y="0" type="line"/>
      <point x="66" y="337" type="line" smooth="yes"/>
      <point x="66" y="405"/>
      <point x="69" y="481"/>
      <point x="92" y="481" type="curve" smooth="yes"/>
      <point x="107" y="481"/>
      <point x="110" y="454"/>
      <point x="110" y="389" type="curve" smooth="yes"/>
      <point x="110" y="0" type="line"/>
      <point x="160" y="0" type="line"/>
      <point x="160" y="346" type="line" smooth="yes"/>
      <point x="160" y="420"/>
      <point x="164" y="481"/>
      <point x="184" y="481" type="curve" smooth="yes"/>
      <point x="200" y="481"/>
      <point x="204" y="454"/>
      <point x="204" y="393" type="curve" smooth="yes"/>
      <point x="204" y="0" type="line"/>
      <point x="254" y="0" type="line"/>
      <point x="254" y="401" type="line" smooth="yes"/>
      <point x="254" y="504"/>
      <point x="243" y="545"/>
      <point x="206" y="545" type="curve" smooth="yes"/>
      <point x="182" y="545"/>
      <point x="167" y="521"/>
      <point x="157" y="475" type="curve"/>
      <point x="155" y="475" type="line"/>
      <point x="149" y="519"/>
      <point x="138" y="545"/>
      <point x="113" y="545" type="curve" smooth="yes"/>
      <point x="91" y="545"/>
      <point x="76" y="520"/>
      <point x="67" y="477" type="curve"/>
      <point x="65" y="477" type="line"/>
      <point x="57" y="534" type="line"/>
      <point x="17" y="534" type="line"/>
    </contour>
  </outline>
</glyph>
<glyph name="n" format="2">
  <advance width="300"/>
  <unicode hex="006E"/>
  <anchor x="138" y="0" name="bottom"/>
  <anchor x="142" y="534" name="top"/>
  <anchor x="259" y="534" name="topright"/>
  <outline>
    <contour>
      <point x="30" y="0" type="line"/>
      <point x="91" y="0" type="line"/>
      <point x="91" y="284" type="line" smooth="yes"/>
      <point x="91" y="412"/>
      <point x="108" y="481"/>
      <point x="143" y="481" type="curve" smooth="yes"/>
      <point x="169" y="481"/>
      <point x="182" y="436"/>
      <point x="182" y="348" type="curve" smooth="yes"/>
      <point x="182" y="0" type="line"/>
      <point x="243" y="0" type="line"/>
      <point x="243" y="352" type="line" smooth="yes"/>
      <point x="243" y="486"/>
      <point x="212" y="545"/>
      <point x="160" y="545" type="curve" smooth="yes"/>
      <point x="129" y="545"/>
      <point x="105" y="512"/>
      <point x="91" y="456" type="curve"/>
      <point x="88" y="456" type="line"/>
      <point x="81" y="534" type="line"/>
      <point x="30" y="534" type="line"/>
    </contour>
  </outline>
</glyph>
<glyph name="o" format="2">
  <advance width="300"/>
  <unicode hex="006F"/>
  <anchor x="134" y="0" name="bottom"/>
  <anchor x="134" y="267" name="center"/>
  <anchor x="135" y="11" name="ogonek"/>
  <anchor x="134" y="534" name="top"/>
  <anchor x="259" y="534" name="topright"/>
  <outline>
    <contour>
      <point x="135" y="-10" type="curve" smooth="yes"/>
      <point x="215" y="-10"/>
      <point x="249" y="91"/>
      <point x="249" y="267" type="curve" smooth="yes"/>
      <point x="249" y="442"/>
      <point x="203" y="545"/>
      <point x="134" y="545" type="curve" smooth="yes"/>
      <point x="59" y="545"/>
      <point x="21" y="444"/>
      <point x="21" y="269" type="curve" smooth="yes"/>
      <point x="21" y="91"/>
      <point x="58" y="-10"/>
    </contour>
    <contour>
      <point x="135" y="53" type="curve" smooth="yes"/>
      <point x="101" y="53"/>
      <point x="84" y="128"/>
      <point x="84" y="268" type="curve" smooth="yes"/>
      <point x="84" y="409"/>
      <point x="101" y="482"/>
      <point x="135" y="482" type="curve" smooth="yes"/>
      <point x="168" y="482"/>
      <point x="186" y="407"/>
      <point x="186" y="268" type="curve" smooth="yes"/>
      <point x="186" y="127"/>
      <point x="169" y="53"/>
    </contour>
  </outline>
</glyph>
<glyph name="p" format="2">
  <advance width="300"/>
  <unicode hex="0070"/>
  <anchor x="149" y="-240" name="bottom"/>
  <anchor x="149" y="534" name="top"/>
  <anchor x="255" y="534" name="topright"/>
  <outline>
    <contour>
      <point x="30" y="-240" type="line"/>
      <point x="90" y="-240" type="line"/>
      <point x="90" y="-7" type="line" smooth="yes"/>
      <point x="90" y="20"/>
      <point x="88" y="56"/>
      <point x="87" y="76" type="curve"/>
      <point x="90" y="76" type="line"/>
      <point x="106" y="30"/>
      <point x="127" y="-10"/>
      <point x="159" y="-10" type="curve" smooth="yes"/>
      <point x="210" y="-10"/>
      <point x="249" y="86"/>
      <point x="249" y="269" type="curve" smooth="yes"/>
      <point x="249" y="451"/>
      <point x="218" y="545"/>
      <point x="159" y="545" type="curve" smooth="yes"/>
      <point x="125" y="545"/>
      <point x="104" y="503"/>
      <point x="90" y="452" type="curve"/>
      <point x="87" y="452" type="line"/>
      <point x="78" y="534" type="line"/>
      <point x="30" y="534" type="line"/>
    </contour>
    <contour>
      <point x="141" y="55" type="curve" smooth="yes"/>
      <point x="106" y="55"/>
      <point x="90" y="131"/>
      <point x="90" y="264" type="curve" smooth="yes"/>
      <point x="90" y="287" type="line" smooth="yes"/>
      <point x="90" y="408"/>
      <point x="106" y="481"/>
      <point x="139" y="481" type="curve" smooth="yes"/>
      <point x="171" y="481"/>
      <point x="186" y="410"/>
      <point x="186" y="270" type="curve" smooth="yes"/>
      <point x="186" y="129"/>
      <point x="171" y="55"/>
    </contour>
  </outline>
</glyph>
<glyph name="q" format="2">
  <advance width="300"/>
  <unicode hex="0071"/>
  <anchor x="127" y="-238" name="bottom"/>
  <anchor x="127" y="534" name="top"/>
  <anchor x="254" y="534" name="topright"/>
  <outline>
    <contour>
      <point x="180" y="-238" type="line"/>
      <point x="239" y="-238" type="line"/>
      <point x="239" y="534" type="line"/>
      <point x="190" y="534" type="line"/>
      <point x="183" y="457" type="line"/>
      <point x="180" y="457" type="line"/>
      <point x="165" y="505"/>
      <point x="145" y="545"/>
      <point x="117" y="545" type="curve" smooth="yes"/>
      <point x="60" y="545"/>
      <point x="21" y="445"/>
      <point x="21" y="265" type="curve" smooth="yes"/>
      <point x="21" y="85"/>
      <point x="55" y="-10"/>
      <point x="115" y="-10" type="curve" smooth="yes"/>
      <point x="144" y="-10"/>
      <point x="168" y="30"/>
      <point x="181" y="80" type="curve"/>
      <point x="184" y="80" type="line"/>
      <point x="182" y="50"/>
      <point x="180" y="21"/>
      <point x="180" y="-6" type="curve" smooth="yes"/>
    </contour>
    <contour>
      <point x="135" y="55" type="curve" smooth="yes"/>
      <point x="103" y="55"/>
      <point x="85" y="125"/>
      <point x="85" y="265" type="curve" smooth="yes"/>
      <point x="85" y="404"/>
      <point x="102" y="480"/>
      <point x="135" y="480" type="curve" smooth="yes"/>
      <point x="169" y="480"/>
      <point x="181" y="401"/>
      <point x="181" y="273" type="curve" smooth="yes"/>
      <point x="181" y="245" type="line" smooth="yes"/>
      <point x="181" y="135"/>
      <point x="168" y="55"/>
    </contour>
  </outline>
</glyph>
<glyph name="r" format="2">
  <advance width="300"/>
  <unicode hex="0072"/>
  <anchor x="112" y="0" name="bottom"/>
  <anchor x="143" y="534" name="top"/>
  <anchor x="255" y="534" name="topright"/>
  <outline>
    <contour>
      <point x="22" y="0" type="line"/>
      <point x="206" y="0" type="line"/>
      <point x="206" y="52" type="line"/>
      <point x="140" y="61" type="line"/>
      <point x="140" y="273" type="line" smooth="yes"/>
      <point x="140" y="387"/>
      <point x="162" y="471"/>
      <point x="201" y="471" type="curve" smooth="yes"/>
      <point x="212" y="471"/>
      <point x="228" y="467"/>
      <point x="238" y="457" type="curve"/>
      <point x="254" y="528" type="line"/>
      <point x="238" y="540"/>
      <point x="222" y="545"/>
      <point x="210" y="545" type="curve" smooth="yes"/>
      <point x="172" y="545"/>
      <point x="148" y="502"/>
      <point x="136" y="439" type="curve"/>
      <point x="132" y="439" type="line"/>
      <point x="126" y="534" type="line"/>
      <point x="25" y="534" type="line"/>
      <point x="25" y="482" type="line"/>
      <point x="81" y="471" type="line"/>
      <point x="81" y="61" type="line"/>
      <point x="22" y="52" type="line"/>
    </contour>
  </outline>
</glyph>
<glyph name="s" format="2">
  <advance width="300"/>
  <unicode hex="0073"/>
  <anchor x="139" y="0" name="bottom"/>
  <anchor x="139" y="534" name="top"/>
  <anchor x="253" y="534" name="topright"/>
  <outline>
    <contour>
      <point x="123" y="-10" type="curve" smooth="yes"/>
      <point x="198" y="-10"/>
      <point x="234" y="43"/>
      <point x="234" y="140" type="curve" smooth="yes"/>
      <point x="234" y="230"/>
      <point x="211" y="259"/>
      <point x="165" y="301" type="curve" smooth="yes"/>
      <point x="121" y="340"/>
      <point x="105" y="361"/>
      <point x="105" y="408" type="curve" smooth="yes"/>
      <point x="105" y="456"/>
      <point x="118" y="482"/>
      <point x="147" y="482" type="curve" smooth="yes"/>
      <point x="166" y="482"/>
      <point x="186" y="474"/>
      <point x="212" y="453" type="curve"/>
      <point x="231" y="512" type="line"/>
      <point x="201" y="535"/>
      <point x="176" y="545"/>
      <point x="146" y="545" type="curve" smooth="yes"/>
      <point x="79" y="545"/>
      <point x="42" y="496"/>
      <point x="42" y="405" type="curve" smooth="yes"/>
      <point x="42" y="320"/>
      <point x="72" y="289"/>
      <point x="114" y="247" type="curve" smooth="yes"/>
      <point x="161" y="200"/>
      <point x="173" y="186"/>
      <point x="173" y="138" type="curve" smooth="yes"/>
      <point x="173" y="88"/>
      <point x="163" y="53"/>
      <point x="127" y="53" type="curve" smooth="yes"/>
      <point x="97" y="53"/>
      <point x="64" y="70"/>
      <point x="41" y="93" type="curve"/>
      <point x="41" y="24" type="line"/>
      <point x="63" y="3"/>
      <point x="90" y="-10"/>
    </contour>
  </outline>
</glyph>
<glyph name="t" format="2">
  <advance width="300"/>
  <unicode hex="0074"/>
  <anchor x="169" y="0" name="bottom"/>
  <anchor x="119" y="290" name="center"/>
  <anchor x="131" y="675" name="top"/>
  <anchor x="254" y="675" name="topright"/>
  <outline>
    <contour>
      <point x="177" y="-10" type="curve" smooth="yes"/>
      <point x="199" y="-10"/>
      <point x="225" y="-5"/>
      <point x="245" y="4" type="curve"/>
      <point x="245" y="68" type="line"/>
      <point x="224" y="59"/>
      <point x="207" y="55"/>
      <point x="193" y="55" type="curve" smooth="yes"/>
      <point x="167" y="55"/>
      <point x="148" y="89"/>
      <point x="148" y="162" type="curve" smooth="yes"/>
      <point x="148" y="471" type="line"/>
      <point x="245" y="471" type="line"/>
      <point x="245" y="534" type="line"/>
      <point x="150" y="534" type="line"/>
      <point x="150" y="675" type="line"/>
      <point x="111" y="675" type="line"/>
      <point x="91" y="537" type="line"/>
      <point x="21" y="517" type="line"/>
      <point x="21" y="471" type="line"/>
      <point x="88" y="471" type="line"/>
      <point x="88" y="149" type="line" smooth="yes"/>
      <point x="88" y="33"/>
      <point x="125" y="-10"/>
    </contour>
  </outline>
</glyph>
<glyph name="u" format="2">
  <advance width="300"/>
  <unicode hex="0075"/>
  <anchor x="135" y="0" name="bottom"/>
  <anchor x="239" y="10" name="ogonek"/>
  <anchor x="135" y="534" name="top"/>
  <anchor x="255" y="534" name="topright"/>
  <outline>
    <contour>
      <point x="109" y="-10" type="curve" smooth="yes"/>
      <point x="140" y="-10"/>
      <point x="165" y="22"/>
      <point x="178" y="80" type="curve"/>
      <point x="182" y="80" type="line"/>
      <point x="190" y="0" type="line"/>
      <point x="240" y="0" type="line"/>
      <point x="240" y="534" type="line"/>
      <point x="179" y="534" type="line"/>
      <point x="179" y="252" type="line" smooth="yes"/>
      <point x="179" y="123"/>
      <point x="166" y="54"/>
      <point x="132" y="54" type="curve" smooth="yes"/>
      <point x="102" y="54"/>
      <point x="89" y="89"/>
      <point x="89" y="188" type="curve" smooth="yes"/>
      <point x="89" y="534" type="line"/>
      <point x="28" y="534" type="line"/>
      <point x="28" y="174" type="line" smooth="yes"/>
      <point x="28" y="49"/>
      <point x="58" y="-10"/>
    </contour>
  </outline>
</glyph>
<glyph name="v" format="2">
  <advance width="300"/>
  <unicode hex="0076"/>
  <anchor x="135" y="0" name="bottom"/>
  <anchor x="135" y="534" name="top"/>
  <anchor x="255" y="534" name="topright"/>
  <outline>
    <contour>
      <point x="97" y="0" type="line"/>
      <point x="171" y="0" type="line"/>
      <point x="256" y="534" type="line"/>
      <point x="194" y="534" type="line"/>
      <point x="153" y="209" type="line" smooth="yes"/>
      <point x="148" y="166"/>
      <point x="140" y="106"/>
      <point x="136" y="63" type="curve"/>
      <point x="135" y="63" type="line"/>
      <point x="130" y="106"/>
      <point x="124" y="166"/>
      <point x="118" y="209" type="curve" smooth="yes"/>
      <point x="76" y="534" type="line"/>
      <point x="14" y="534" type="line"/>
    </contour>
  </outline>
</glyph>
<glyph name="w" format="2">
  <advance width="300"/>
  <unicode hex="0077"/>
  <anchor x="136" y="0" name="bottom"/>
  <anchor x="136" y="534" name="top"/>
  <anchor x="260" y="534" name="topright"/>
  <outline>
    <contour>
      <point x="43" y="0" type="line"/>
      <point x="106" y="0" type="line"/>
      <point x="122" y="213" type="line" smooth="yes"/>
      <point x="126" y="263"/>
      <point x="132" y="319"/>
      <point x="133" y="369" type="curve"/>
      <point x="135" y="369" type="line"/>
      <point x="138" y="319"/>
      <point x="143" y="265"/>
      <point x="146" y="215" type="curve" smooth="yes"/>
      <point x="161" y="0" type="line"/>
      <point x="226" y="0" type="line"/>
      <point x="262" y="534" type="line"/>
      <point x="210" y="534" type="line"/>
      <point x="199" y="242" type="line" smooth="yes"/>
      <point x="197" y="183"/>
      <point x="195" y="100"/>
      <point x="195" y="64" type="curve"/>
      <point x="193" y="64" type="line"/>
      <point x="190" y="102"/>
      <point x="186" y="186"/>
      <point x="181" y="229" type="curve" smooth="yes"/>
      <point x="160" y="439" type="line"/>
      <point x="109" y="439" type="line"/>
      <point x="88" y="229" type="line" smooth="yes"/>
      <point x="84" y="185"/>
      <point x="79" y="102"/>
      <point x="77" y="65" type="curve"/>
      <point x="75" y="65" type="line"/>
      <point x="74" y="102"/>
      <point x="74" y="185"/>
      <point x="71" y="242" type="curve" smooth="yes"/>
      <point x="59" y="534" type="line"/>
      <point x="9" y="534" type="line"/>
    </contour>
  </outline>
</glyph>
<glyph name="x" format="2">
  <advance width="300"/>
  <unicode hex="0078"/>
  <anchor x="135" y="0" name="bottom"/>
  <anchor x="135" y="534" name="top"/>
  <anchor x="254" y="534" name="topright"/>
  <outline>
    <contour>
      <point x="15" y="0" type="line"/>
      <point x="81" y="0" type="line"/>
      <point x="134" y="220" type="line"/>
      <point x="186" y="0" type="line"/>
      <point x="253" y="0" type="line"/>
      <point x="170" y="272" type="line"/>
      <point x="251" y="534" type="line"/>
      <point x="184" y="534" type="line"/>
      <point x="135" y="328" type="line"/>
      <point x="86" y="534" type="line"/>
      <point x="19" y="534" type="line"/>
      <point x="98" y="274" type="line"/>
    </contour>
  </outline>
</glyph>
<glyph name="y" format="2">
  <advance width="300"/>
  <unicode hex="0079"/>
  <anchor x="135" y="-245" name="bottom"/>
  <anchor x="135" y="534" name="top"/>
  <anchor x="255" y="534" name="topright"/>
  <outline>
    <contour>
      <point x="57" y="-245" type="curve" smooth="yes"/>
      <point x="110" y="-245"/>
      <point x="145" y="-179"/>
      <point x="161" y="-78" type="curve" smooth="yes"/>
      <point x="258" y="534" type="line"/>
      <point x="191" y="534" type="line"/>
      <point x="154" y="213" type="line" smooth="yes"/>
      <point x="149" y="170"/>
      <point x="143" y="114"/>
      <point x="141" y="73" type="curve"/>
      <point x="139" y="73" type="line"/>
      <point x="135" y="113"/>
      <point x="130" y="158"/>
      <point x="123" y="213" type="curve" smooth="yes"/>
      <point x="81" y="534" type="line"/>
      <point x="14" y="534" type="line"/>
      <point x="113" y="-4" type="line"/>
      <point x="103" y="-85" type="line" smooth="yes"/>
      <point x="94" y="-157"/>
      <point x="72" y="-182"/>
      <point x="48" y="-182" type="curve" smooth="yes"/>
      <point x="40" y="-182"/>
      <point x="31" y="-178"/>
      <point x="24" y="-175" type="curve"/>
      <point x="24" y="-237" type="line"/>
      <point x="34" y="-241"/>
      <point x="46" y="-245"/>
    </contour>
  </outline>
</glyph>
<glyph name="z" format="2">
  <advance width="300"/>
  <unicode hex="007A"/>
  <anchor x="136" y="0" name="bottom"/>
  <anchor x="136" y="534" name="top"/>
  <anchor x="255" y="534" name="topright"/>
  <outline>
    <contour>
      <point x="34" y="0" type="line"/>
      <point x="237" y="0" type="line"/>
      <point x="237" y="64" type="line"/>
      <point x="107" y="64" type="line"/>
      <point x="232" y="474" type="line"/>
      <point x="232" y="534" type="line"/>
      <point x="39" y="534" type="line"/>
      <point x="39" y="471" type="line"/>
      <point x="162" y="471" type="line"/>
      <point x="34" y="53" type="line"/>
    </contour>
  </outline>
</glyph>
<glyph name="braceleft" format="2">
  <advance width="300"/>
  <unicode hex="007B"/>
  <outline>
    <contour>
      <point x="212" y="-161" type="curve"/>
      <point x="212" y="-103" type="line"/>
      <point x="183" y="-102"/>
      <point x="165" y="-73"/>
      <point x="165" y="-2" type="curve" smooth="yes"/>
      <point x="165" y="153" type="line" smooth="yes"/>
      <point x="165" y="223"/>
      <point x="144" y="264"/>
      <point x="117" y="276" type="curve"/>
      <point x="117" y="280" type="line"/>
      <point x="144" y="291"/>
      <point x="165" y="330"/>
      <point x="165" y="403" type="curve" smooth="yes"/>
      <point x="165" y="558" type="line" smooth="yes"/>
      <point x="165" y="630"/>
      <point x="186" y="657"/>
      <point x="212" y="659" type="curve"/>
      <point x="212" y="717" type="line"/>
      <point x="158" y="715"/>
      <point x="109" y="664"/>
      <point x="109" y="562" type="curve" smooth="yes"/>
      <point x="109" y="407" type="line" smooth="yes"/>
      <point x="109" y="329"/>
      <point x="85" y="305"/>
      <point x="57" y="305" type="curve"/>
      <point x="57" y="251" type="line"/>
      <point x="87" y="251"/>
      <point x="109" y="219"/>
      <point x="109" y="149" type="curve" smooth="yes"/>
      <point x="109" y="-5" type="line" smooth="yes"/>
      <point x="109" y="-112"/>
      <point x="160" y="-159"/>
    </contour>
  </outline>
</glyph>
<glyph name="asciitilde" format="2">
  <advance width="300"/>
  <unicode hex="007E"/>
  <outline>
    <contour>
      <point x="32" y="292" type="line"/>
      <point x="49" y="330"/>
      <point x="66" y="351"/>
      <point x="82" y="351" type="curve" smooth="yes"/>
      <point x="94" y="351"/>
      <point x="111" y="341"/>
      <point x="128" y="324" type="curve" smooth="yes"/>
      <point x="147" y="305"/>
      <point x="164" y="295"/>
      <point x="185" y="295" type="curve" smooth="yes"/>
      <point x="205" y="295"/>
      <point x="224" y="313"/>
      <point x="237" y="343" type="curve"/>
      <point x="237" y="412" type="line"/>
      <point x="223" y="377"/>
      <point x="204" y="355"/>
      <point x="189" y="355" type="curve" smooth="yes"/>
      <point x="175" y="355"/>
      <point x="160" y="364"/>
      <point x="141" y="382" type="curve" smooth="yes"/>
      <point x="122" y="400"/>
      <point x="106" y="412"/>
      <point x="86" y="412" type="curve" smooth="yes"/>
      <point x="64" y="412"/>
      <point x="46" y="394"/>
      <point x="32" y="361" type="curve"/>
    </contour>
  </outline>
</glyph>
<glyph name="cent" format="2">
  <advance width="300"/>
  <unicode hex="00A2"/>
  <outline>
    <contour>
      <point x="140" y="-10" type="line"/>
      <point x="175" y="-10" type="line"/>
      <point x="175" y="89" type="line"/>
      <point x="193" y="93"/>
      <point x="211" y="102"/>
      <point x="224" y="114" type="curve"/>
      <point x="224" y="177" type="line"/>
      <point x="207" y="161"/>
      <point x="185" y="151"/>
      <point x="168" y="151" type="curve" smooth="yes"/>
      <point x="122" y="151"/>
      <point x="103" y="222"/>
      <point x="103" y="363" type="curve" smooth="yes"/>
      <point x="103" y="505"/>
      <point x="124" y="581"/>
      <point x="168" y="581" type="curve" smooth="yes"/>
      <point x="180" y="581"/>
      <point x="196" y="575"/>
      <point x="212" y="561" type="curve"/>
      <point x="229" y="619" type="line"/>
      <point x="214" y="633"/>
      <point x="193" y="640"/>
      <point x="175" y="642" type="curve"/>
      <point x="175" y="724" type="line"/>
      <point x="140" y="724" type="line"/>
      <point x="140" y="640" type="line"/>
      <point x="76" y="624"/>
      <point x="45" y="524"/>
      <point x="45" y="363" type="curve" smooth="yes"/>
      <point x="45" y="202"/>
      <point x="75" y="103"/>
      <point x="140" y="90" type="curve"/>
    </contour>
  </outline>
</glyph>
<glyph name="sterling" format="2">
  <advance width="300"/>
  <unicode hex="00A3"/>
  <outline>
    <contour>
      <point x="41" y="0" type="line"/>
      <point x="241" y="0" type="line"/>
      <point x="241" y="67" type="line"/>
      <point x="102" y="67" type="line"/>
      <point x="124" y="93"/>
      <point x="134" y="139"/>
      <point x="134" y="207" type="curve" smooth="yes"/>
      <point x="134" y="328" type="line"/>
      <point x="204" y="328" type="line"/>
      <point x="204" y="386" type="line"/>
      <point x="134" y="386" type="line"/>
      <point x="134" y="534" type="line" smooth="yes"/>
      <point x="134" y="620"/>
      <point x="150" y="658"/>
      <point x="177" y="658" type="curve" smooth="yes"/>
      <point x="191" y="658"/>
      <point x="207" y="648"/>
      <point x="225" y="626" type="curve"/>
      <point x="243" y="684" type="line"/>
      <point x="222" y="710"/>
      <point x="198" y="724"/>
      <point x="172" y="724" type="curve" smooth="yes"/>
      <point x="109" y="724"/>
      <point x="75" y="659"/>
      <point x="75" y="542" type="curve" smooth="yes"/>
      <point x="75" y="386" type="line"/>
      <point x="39" y="386" type="line"/>
      <point x="39" y="328" type="line"/>
      <point x="75" y="328" type="line"/>
      <point x="75" y="206" type="line" smooth="yes"/>
      <point x="75" y="129"/>
      <point x="64" y="83"/>
      <point x="41" y="62" type="curve"/>
    </contour>
  </outline>
</glyph>
<glyph name="currency" format="2">
  <advance width="300"/>
  <unicode hex="00A4"/>
  <outline>
    <contour>
      <point x="224" y="132" type="line"/>
      <point x="252" y="168" type="line"/>
      <point x="220" y="235" type="line"/>
      <point x="230" y="270"/>
      <point x="236" y="310"/>
      <point x="236" y="353" type="curve" smooth="yes"/>
      <point x="236" y="397"/>
      <point x="230" y="436"/>
      <point x="220" y="471" type="curve"/>
      <point x="252" y="538" type="line"/>
      <point x="224" y="574" type="line"/>
      <point x="191" y="506" type="line"/>
      <point x="173" y="534"/>
      <point x="156" y="547"/>
      <point x="135" y="547" type="curve" smooth="yes"/>
      <point x="114" y="547"/>
      <point x="96" y="533"/>
      <point x="80" y="505" type="curve"/>
      <point x="47" y="574" type="line"/>
      <point x="19" y="537" type="line"/>
      <point x="52" y="470" type="line"/>
      <point x="40" y="436"/>
      <point x="35" y="396"/>
      <point x="35" y="353" type="curve" smooth="yes"/>
      <point x="35" y="310"/>
      <point x="40" y="271"/>
      <point x="52" y="236" type="curve"/>
      <point x="20" y="170" type="line"/>
      <point x="47" y="133" type="line"/>
      <point x="80" y="200" type="line"/>
      <point x="95" y="173"/>
      <point x="113" y="160"/>
      <point x="135" y="160" type="curve" smooth="yes"/>
      <point x="156" y="160"/>
      <point x="174" y="173"/>
      <point x="191" y="199" type="curve"/>
    </contour>
    <contour>
      <point x="135" y="214" type="curve" smooth="yes"/>
      <point x="99" y="214"/>
      <point x="76" y="277"/>
      <point x="76" y="352" type="curve" smooth="yes"/>
      <point x="76" y="430"/>
      <point x="100" y="493"/>
      <point x="135" y="493" type="curve" smooth="yes"/>
      <point x="171" y="493"/>
      <point x="194" y="433"/>
      <point x="194" y="354" type="curve" smooth="yes"/>
      <point x="194" y="278"/>
      <point x="173" y="214"/>
    </contour>
  </outline>
</glyph>
<glyph name="yen" format="2">
  <advance width="300"/>
  <unicode hex="00A5"/>
  <outline>
    <contour>
      <point x="106" y="0" type="line"/>
      <point x="165" y="0" type="line"/>
      <point x="165" y="135" type="line"/>
      <point x="225" y="135" type="line"/>
      <point x="225" y="187" type="line"/>
      <point x="165" y="187" type="line"/>
      <point x="165" y="279" type="line"/>
      <point x="225" y="279" type="line"/>
      <point x="225" y="332" type="line"/>
      <point x="176" y="332" type="line"/>
      <point x="244" y="714" type="line"/>
      <point x="181" y="714" type="line"/>
      <point x="135" y="370" type="line"/>
      <point x="89" y="714" type="line"/>
      <point x="26" y="714" type="line"/>
      <point x="94" y="332" type="line"/>
      <point x="46" y="332" type="line"/>
      <point x="46" y="279" type="line"/>
      <point x="106" y="279" type="line"/>
      <point x="106" y="187" type="line"/>
      <point x="46" y="187" type="line"/>
      <point x="46" y="135" type="line"/>
      <point x="106" y="135" type="line"/>
    </contour>
  </outline>
</glyph>
<glyph name="brokenbar" format="2">
  <advance width="300"/>
  <unicode hex="00A6"/>
  <outline>
    <contour>
      <point x="109" y="372" type="line"/>
      <point x="161" y="372" type="line"/>
      <point x="161" y="759" type="line"/>
      <point x="109" y="759" type="line"/>
    </contour>
    <contour>
      <point x="109" y="-239" type="line"/>
      <point x="161" y="-239" type="line"/>
      <point x="161" y="150" type="line"/>
      <point x="109" y="150" type="line"/>
    </contour>
  </outline>
</glyph>
<glyph name="section" format="2">
  <advance width="300"/>
  <unicode hex="00A7"/>
  <outline>
    <contour>
      <point x="116" y="-9" type="curve" smooth="yes"/>
      <point x="176" y="-9"/>
      <point x="214" y="45"/>
      <point x="214" y="133" type="curve" smooth="yes"/>
      <point x="214" y="179"/>
      <point x="206" y="208"/>
      <point x="186" y="245" type="curve"/>
      <point x="210" y="267"/>
      <point x="225" y="318"/>
      <point x="225" y="378" type="curve" smooth="yes"/>
      <point x="225" y="468"/>
      <point x="191" y="498"/>
      <point x="155" y="535" type="curve" smooth="yes"/>
      <point x="133" y="558"/>
      <point x="113" y="590"/>
      <point x="113" y="640" type="curve" smooth="yes"/>
      <point x="113" y="687"/>
      <point x="127" y="712"/>
      <point x="150" y="712" type="curve" smooth="yes"/>
      <point x="168" y="712"/>
      <point x="184" y="704"/>
      <point x="203" y="684" type="curve"/>
      <point x="220" y="735" type="line"/>
      <point x="197" y="757"/>
      <point x="177" y="766"/>
      <point x="151" y="766" type="curve" smooth="yes"/>
      <point x="99" y="766"/>
      <point x="63" y="720"/>
      <point x="63" y="636" type="curve" smooth="yes"/>
      <point x="63" y="582"/>
      <point x="73" y="546"/>
      <point x="93" y="516" type="curve"/>
      <point x="65" y="495"/>
      <point x="48" y="454"/>
      <point x="48" y="389" type="curve" smooth="yes"/>
      <point x="48" y="325"/>
      <point x="72" y="291"/>
      <point x="117" y="242" type="curve" smooth="yes"/>
      <point x="146" y="210"/>
      <point x="164" y="185"/>
      <point x="164" y="131" type="curve" smooth="yes"/>
      <point x="164" y="74"/>
      <point x="142" y="44"/>
      <point x="117" y="44" type="curve" smooth="yes"/>
      <point x="92" y="44"/>
      <point x="63" y="61"/>
      <point x="45" y="85" type="curve"/>
      <point x="45" y="21" type="line"/>
      <point x="63" y="2"/>
      <point x="88" y="-9"/>
    </contour>
    <contour>
      <point x="155" y="274" type="curve"/>
      <point x="138" y="296" type="line" smooth="yes"/>
      <point x="118" y="321"/>
      <point x="96" y="341"/>
      <point x="96" y="399" type="curve" smooth="yes"/>
      <point x="96" y="442"/>
      <point x="105" y="476"/>
      <point x="124" y="488" type="curve"/>
      <point x="166" y="445"/>
      <point x="177" y="419"/>
      <point x="177" y="368" type="curve" smooth="yes"/>
      <point x="177" y="326"/>
      <point x="171" y="290"/>
    </contour>
  </outline>
</glyph>
<glyph name="dieresis" format="2">
  <advance width="300"/>
  <unicode hex="00A8"/>
  <anchor x="134" y="534" name="_top"/>
  <anchor x="134" y="644" name="top"/>
  <outline>
    <contour>
      <point x="184" y="627" type="curve" smooth="yes"/>
      <point x="202" y="627"/>
      <point x="213" y="646"/>
      <point x="213" y="684" type="curve" smooth="yes"/>
      <point x="213" y="721"/>
      <point x="202" y="738"/>
      <point x="184" y="738" type="curve" smooth="yes"/>
      <point x="166" y="738"/>
      <point x="154" y="721"/>
      <point x="154" y="684" type="curve" smooth="yes"/>
      <point x="154" y="647"/>
      <point x="166" y="627"/>
    </contour>
    <contour>
      <point x="85" y="627" type="curve" smooth="yes"/>
      <point x="103" y="627"/>
      <point x="115" y="646"/>
      <point x="115" y="684" type="curve" smooth="yes"/>
      <point x="115" y="720"/>
      <point x="103" y="738"/>
      <point x="85" y="738" type="curve" smooth="yes"/>
      <point x="68" y="738"/>
      <point x="55" y="720"/>
      <point x="55" y="684" type="curve" smooth="yes"/>
      <point x="55" y="647"/>
      <point x="68" y="627"/>
    </contour>
  </outline>
</glyph>
<glyph name="copyright" format="2">
  <advance width="300"/>
  <unicode hex="00A9"/>
  <outline>
    <contour>
      <point x="135" y="134" type="curve"/>
      <point x="204" y="134"/>
      <point x="256" y="225"/>
      <point x="256" y="360" type="curve" smooth="yes"/>
      <point x="256" y="493"/>
      <point x="207" y="586"/>
      <point x="135" y="586" type="curve" smooth="yes"/>
      <point x="66" y="586"/>
      <point x="14" y="493"/>
      <point x="14" y="359" type="curve" smooth="yes"/>
      <point x="14" y="227"/>
      <point x="61" y="134"/>
    </contour>
    <contour>
      <point x="138" y="218" type="curve" smooth="yes"/>
      <point x="152" y="218"/>
      <point x="164" y="223"/>
      <point x="176" y="231" type="curve"/>
      <point x="176" y="272" type="line"/>
      <point x="164" y="263"/>
      <point x="151" y="258"/>
      <point x="139" y="258" type="curve" smooth="yes"/>
      <point x="116" y="258"/>
      <point x="104" y="293"/>
      <point x="104" y="356" type="curve" smooth="yes"/>
      <point x="104" y="424"/>
      <point x="118" y="460"/>
      <point x="139" y="460" type="curve" smooth="yes"/>
      <point x="148" y="460"/>
      <point x="159" y="455"/>
      <point x="170" y="445" type="curve"/>
      <point x="182" y="483" type="line"/>
      <point x="168" y="495"/>
      <point x="153" y="501"/>
      <point x="137" y="501" type="curve" smooth="yes"/>
      <point x="95" y="501"/>
      <point x="71" y="442"/>
      <point x="71" y="356" type="curve" smooth="yes"/>
      <point x="71" y="273"/>
      <point x="94" y="218"/>
    </contour>
    <contour>
      <point x="135" y="173" type="curve"/>
      <point x="82" y="173"/>
      <point x="43" y="249"/>
      <point x="43" y="360" type="curve" smooth="yes"/>
      <point x="43" y="475"/>
      <point x="82" y="546"/>
      <point x="134" y="546" type="curve" smooth="yes"/>
      <point x="188" y="546"/>
      <point x="225" y="471"/>
      <point x="225" y="358" type="curve" smooth="yes"/>
      <point x="225" y="244"/>
      <point x="188" y="173"/>
    </contour>
  </outline>
</glyph>
<glyph name="ordfeminine" format="2">
  <advance width="300"/>
  <unicode hex="00AA"/>
  <outline>
    <contour>
      <point x="115" y="384" type="curve" smooth="yes"/>
      <point x="139" y="384"/>
      <point x="153" y="401"/>
      <point x="164" y="437" type="curve"/>
      <point x="171" y="390" type="line"/>
      <point x="202" y="390" type="line"/>
      <point x="202" y="613" type="line" smooth="yes"/>
      <point x="202" y="686"/>
      <point x="179" y="722"/>
      <point x="135" y="722" type="curve" smooth="yes"/>
      <point x="114" y="722"/>
      <point x="95" y="713"/>
      <point x="75" y="696" type="curve"/>
      <point x="89" y="654" type="line"/>
      <point x="103" y="668"/>
      <point x="116" y="676"/>
      <point x="131" y="676" type="curve" smooth="yes"/>
      <point x="150" y="676"/>
      <point x="159" y="659"/>
      <point x="159" y="617" type="curve" smooth="yes"/>
      <point x="159" y="593" type="line"/>
      <point x="138" y="589" type="line" smooth="yes"/>
      <point x="95" y="581"/>
      <point x="64" y="549"/>
      <point x="64" y="481" type="curve" smooth="yes"/>
      <point x="64" y="420"/>
      <point x="85" y="384"/>
    </contour>
    <contour>
      <point x="128" y="432" type="curve" smooth="yes"/>
      <point x="115" y="432"/>
      <point x="106" y="449"/>
      <point x="106" y="484" type="curve" smooth="yes"/>
      <point x="106" y="527"/>
      <point x="119" y="539"/>
      <point x="142" y="544" type="curve" smooth="yes"/>
      <point x="159" y="548" type="line"/>
      <point x="159" y="520" type="line" smooth="yes"/>
      <point x="159" y="466"/>
      <point x="148" y="432"/>
    </contour>
  </outline>
</glyph>
<glyph name="guillemotleft" format="2">
  <advance width="300"/>
  <unicode hex="00AB"/>
  <outline>
    <contour>
      <point x="207" y="67" type="line"/>
      <point x="248" y="94" type="line"/>
      <point x="196" y="265" type="line"/>
      <point x="248" y="438" type="line"/>
      <point x="207" y="463" type="line"/>
      <point x="130" y="271" type="line"/>
      <point x="130" y="258" type="line"/>
    </contour>
    <contour>
      <point x="99" y="67" type="line"/>
      <point x="140" y="94" type="line"/>
      <point x="88" y="265" type="line"/>
      <point x="141" y="438" type="line"/>
      <point x="99" y="463" type="line"/>
      <point x="22" y="271" type="line"/>
      <point x="22" y="258" type="line"/>
    </contour>
  </outline>
</glyph>
<glyph name="logicalnot" format="2">
  <advance width="300"/>
  <unicode hex="00AC"/>
  <outline>
    <contour>
      <point x="186" y="122" type="line"/>
      <point x="235" y="122" type="line"/>
      <point x="235" y="383" type="line"/>
      <point x="36" y="383" type="line"/>
      <point x="36" y="323" type="line"/>
      <point x="186" y="323" type="line"/>
    </contour>
  </outline>
</glyph>
<glyph name="registered" format="2">
  <advance width="300"/>
  <unicode hex="00AE"/>
  <outline>
    <contour>
      <point x="136" y="134" type="curve"/>
      <point x="205" y="134"/>
      <point x="256" y="225"/>
      <point x="256" y="360" type="curve" smooth="yes"/>
      <point x="256" y="493"/>
      <point x="207" y="586"/>
      <point x="136" y="586" type="curve" smooth="yes"/>
      <point x="67" y="586"/>
      <point x="16" y="493"/>
      <point x="16" y="359" type="curve" smooth="yes"/>
      <point x="16" y="227"/>
      <point x="62" y="134"/>
    </contour>
    <contour>
      <point x="136" y="173" type="curve"/>
      <point x="84" y="173"/>
      <point x="45" y="249"/>
      <point x="45" y="360" type="curve" smooth="yes"/>
      <point x="45" y="475"/>
      <point x="82" y="546"/>
      <point x="135" y="546" type="curve" smooth="yes"/>
      <point x="188" y="546"/>
      <point x="226" y="471"/>
      <point x="226" y="358" type="curve" smooth="yes"/>
      <point x="226" y="244"/>
      <point x="189" y="173"/>
    </contour>
    <contour>
      <point x="87" y="221" type="line"/>
      <point x="116" y="221" type="line"/>
      <point x="116" y="329" type="line"/>
      <point x="131" y="329" type="line"/>
      <point x="160" y="221" type="line"/>
      <point x="193" y="221" type="line"/>
      <point x="158" y="340" type="line"/>
      <point x="172" y="350"/>
      <point x="182" y="373"/>
      <point x="182" y="419" type="curve" smooth="yes"/>
      <point x="182" y="471"/>
      <point x="165" y="501"/>
      <point x="129" y="501" type="curve" smooth="yes"/>
      <point x="87" y="501" type="line"/>
    </contour>
    <contour>
      <point x="116" y="366" type="line"/>
      <point x="116" y="463" type="line"/>
      <point x="128" y="463" type="line" smooth="yes"/>
      <point x="145" y="463"/>
      <point x="153" y="447"/>
      <point x="153" y="415" type="curve" smooth="yes"/>
      <point x="153" y="382"/>
      <point x="143" y="366"/>
      <point x="128" y="366" type="curve" smooth="yes"/>
    </contour>
  </outline>
</glyph>
<glyph name="overscore" format="2">
  <advance width="300"/>
  <unicode hex="00AF"/>
  <outline>
    <contour>
      <point x="65" y="631" type="line"/>
      <point x="200" y="631" type="line"/>
      <point x="200" y="686" type="line"/>
      <point x="65" y="686" type="line"/>
    </contour>
  </outline>
</glyph>
<glyph name="degree" format="2">
  <advance width="300"/>
  <unicode hex="00B0"/>
  <outline>
    <contour>
      <point x="134" y="456" type="curve" smooth="yes"/>
      <point x="173" y="456"/>
      <point x="208" y="507"/>
      <point x="208" y="589" type="curve" smooth="yes"/>
      <point x="208" y="672"/>
      <point x="174" y="723"/>
      <point x="134" y="723" type="curve" smooth="yes"/>
      <point x="94" y="723"/>
      <point x="61" y="673"/>
      <point x="61" y="589" type="curve" smooth="yes"/>
      <point x="61" y="506"/>
      <point x="93" y="456"/>
    </contour>
    <contour>
      <point x="134" y="503" type="curve" smooth="yes"/>
      <point x="114" y="503"/>
      <point x="97" y="534"/>
      <point x="97" y="589" type="curve" smooth="yes"/>
      <point x="97" y="641"/>
      <point x="112" y="676"/>
      <point x="134" y="676" type="curve" smooth="yes"/>
      <point x="155" y="676"/>
      <point x="171" y="643"/>
      <point x="171" y="589" type="curve" smooth="yes"/>
      <point x="171" y="535"/>
      <point x="155" y="503"/>
    </contour>
  </outline>
</glyph>
<glyph name="plusminus" format="2">
  <advance width="300"/>
  <unicode hex="00B1"/>
  <outline>
    <contour>
      <point x="111" y="135" type="line"/>
      <point x="160" y="135" type="line"/>
      <point x="160" y="337" type="line"/>
      <point x="236" y="337" type="line"/>
      <point x="236" y="397" type="line"/>
      <point x="160" y="397" type="line"/>
      <point x="160" y="602" type="line"/>
      <point x="111" y="602" type="line"/>
      <point x="111" y="397" type="line"/>
      <point x="34" y="397" type="line"/>
      <point x="34" y="337" type="line"/>
      <point x="111" y="337" type="line"/>
    </contour>
    <contour>
      <point x="34" y="0" type="line"/>
      <point x="236" y="0" type="line"/>
      <point x="236" y="60" type="line"/>
      <point x="34" y="60" type="line"/>
    </contour>
  </outline>
</glyph>
<glyph name="twosuperior" format="2">
  <advance width="300"/>
  <unicode hex="00B2"/>
  <outline>
    <contour>
      <point x="68" y="415" type="line"/>
      <point x="212" y="415" type="line"/>
      <point x="212" y="466" type="line"/>
      <point x="118" y="466" type="line"/>
      <point x="140" y="534" type="line" smooth="yes"/>
      <point x="172" y="634"/>
      <point x="206" y="669"/>
      <point x="206" y="739" type="curve" smooth="yes"/>
      <point x="206" y="808"/>
      <point x="180" y="853"/>
      <point x="136" y="853" type="curve" smooth="yes"/>
      <point x="106" y="853"/>
      <point x="80" y="833"/>
      <point x="67" y="799" type="curve"/>
      <point x="89" y="759" type="line"/>
      <point x="102" y="787"/>
      <point x="116" y="800"/>
      <point x="131" y="800" type="curve" smooth="yes"/>
      <point x="150" y="800"/>
      <point x="161" y="774"/>
      <point x="161" y="737" type="curve" smooth="yes"/>
      <point x="161" y="682"/>
      <point x="147" y="647"/>
      <point x="116" y="575" type="curve" smooth="yes"/>
      <point x="68" y="464" type="line"/>
    </contour>
  </outline>
</glyph>
<glyph name="threesuperior" format="2">
  <advance width="300"/>
  <unicode hex="00B3"/>
  <outline>
    <contour>
      <point x="127" y="408" type="curve" smooth="yes"/>
      <point x="175" y="408"/>
      <point x="209" y="452"/>
      <point x="209" y="532" type="curve" smooth="yes"/>
      <point x="209" y="589"/>
      <point x="192" y="624"/>
      <point x="166" y="639" type="curve"/>
      <point x="166" y="642" type="line"/>
      <point x="190" y="658"/>
      <point x="202" y="694"/>
      <point x="202" y="744" type="curve" smooth="yes"/>
      <point x="202" y="812"/>
      <point x="174" y="853"/>
      <point x="134" y="853" type="curve" smooth="yes"/>
      <point x="108" y="853"/>
      <point x="87" y="837"/>
      <point x="67" y="807" type="curve"/>
      <point x="88" y="764" type="line"/>
      <point x="102" y="788"/>
      <point x="114" y="800"/>
      <point x="128" y="800" type="curve" smooth="yes"/>
      <point x="149" y="800"/>
      <point x="160" y="777"/>
      <point x="160" y="736" type="curve" smooth="yes"/>
      <point x="160" y="692"/>
      <point x="146" y="661"/>
      <point x="119" y="661" type="curve" smooth="yes"/>
      <point x="102" y="661" type="line"/>
      <point x="102" y="612" type="line"/>
      <point x="121" y="612" type="line" smooth="yes"/>
      <point x="150" y="612"/>
      <point x="165" y="584"/>
      <point x="165" y="535" type="curve" smooth="yes"/>
      <point x="165" y="488"/>
      <point x="154" y="461"/>
      <point x="126" y="461" type="curve" smooth="yes"/>
      <point x="105" y="461"/>
      <point x="86" y="470"/>
      <point x="70" y="490" type="curve"/>
      <point x="70" y="431" type="line"/>
      <point x="87" y="416"/>
      <point x="106" y="408"/>
    </contour>
  </outline>
</glyph>
<glyph name="acute" format="2">
  <advance width="300"/>
  <unicode hex="00B4"/>
  <outline>
    <contour>
      <point x="102" y="606" type="line"/>
      <point x="141" y="606" type="line"/>
      <point x="164" y="643"/>
      <point x="199" y="714"/>
      <point x="212" y="757" type="curve"/>
      <point x="212" y="766" type="line"/>
      <point x="145" y="766" type="line"/>
      <point x="134" y="720"/>
      <point x="120" y="669"/>
      <point x="102" y="617" type="curve"/>
    </contour>
  </outline>
</glyph>
<glyph name="micro" format="2">
  <advance width="300"/>
  <unicode hex="00B5"/>
  <anchor x="141" y="534" name="top"/>
  <anchor x="245" y="10" name="ogonek"/>
  <anchor x="261" y="534" name="topright"/>
  <anchor x="141" y="0" name="bottom"/>
  <outline>
    <contour>
      <point x="28" y="-240" type="line"/>
      <point x="88" y="-240" type="line"/>
      <point x="88" y="227" type="line"/>
      <point x="28" y="227" type="line"/>
    </contour>
    <component base="u" xOffset="6"/>
  </outline>
</glyph>
<glyph name="paragraph" format="2">
  <advance width="300"/>
  <unicode hex="00B6"/>
  <outline>
    <contour>
      <point x="122" y="-127" type="line"/>
      <point x="158" y="-127" type="line"/>
      <point x="158" y="708" type="line"/>
      <point x="188" y="708" type="line"/>
      <point x="188" y="-127" type="line"/>
      <point x="224" y="-127" type="line"/>
      <point x="224" y="760" type="line"/>
      <point x="110" y="760" type="line" smooth="yes"/>
      <point x="56" y="760"/>
      <point x="32" y="677"/>
      <point x="32" y="517" type="curve" smooth="yes"/>
      <point x="32" y="361"/>
      <point x="54" y="279"/>
      <point x="100" y="279" type="curve" smooth="yes"/>
      <point x="109" y="279"/>
      <point x="116" y="282"/>
      <point x="122" y="288" type="curve"/>
    </contour>
  </outline>
</glyph>
<glyph name="cedilla" format="2">
  <advance width="300"/>
  <unicode hex="00B8"/>
  <outline>
    <contour>
      <point x="119" y="-240" type="curve" smooth="yes"/>
      <point x="161" y="-240"/>
      <point x="184" y="-204"/>
      <point x="184" y="-142" type="curve" smooth="yes"/>
      <point x="184" y="-93"/>
      <point x="170" y="-64"/>
      <point x="142" y="-52" type="curve"/>
      <point x="151" y="0" type="line"/>
      <point x="119" y="0" type="line"/>
      <point x="101" y="-80" type="line"/>
      <point x="124" y="-86"/>
      <point x="139" y="-102"/>
      <point x="139" y="-139" type="curve" smooth="yes"/>
      <point x="139" y="-171"/>
      <point x="129" y="-191"/>
      <point x="110" y="-191" type="curve" smooth="yes"/>
      <point x="103" y="-191"/>
      <point x="95" y="-189"/>
      <point x="87" y="-185" type="curve"/>
      <point x="87" y="-234" type="line"/>
      <point x="95" y="-238"/>
      <point x="108" y="-240"/>
    </contour>
  </outline>
</glyph>
<glyph name="onesuperior" format="2">
  <advance width="300"/>
  <unicode hex="00B9"/>
  <outline>
    <contour>
      <point x="125" y="415" type="line"/>
      <point x="168" y="415" type="line"/>
      <point x="168" y="843" type="line"/>
      <point x="131" y="843" type="line"/>
      <point x="62" y="750" type="line"/>
      <point x="84" y="709" type="line"/>
      <point x="109" y="751" type="line" smooth="yes"/>
      <point x="115" y="760"/>
      <point x="120" y="768"/>
      <point x="126" y="776" type="curve"/>
      <point x="125" y="745"/>
      <point x="125" y="713"/>
      <point x="125" y="682" type="curve" smooth="yes"/>
    </contour>
    <contour>
      <point x="75" y="415" type="line"/>
      <point x="214" y="415" type="line"/>
      <point x="214" y="456" type="line"/>
      <point x="154" y="461" type="line"/>
      <point x="136" y="461" type="line"/>
      <point x="75" y="456" type="line"/>
    </contour>
  </outline>
</glyph>
<glyph name="ordmasculine" format="2">
  <advance width="300"/>
  <unicode hex="00BA"/>
  <outline>
    <contour>
      <point x="138" y="384" type="curve" smooth="yes"/>
      <point x="184" y="384"/>
      <point x="211" y="448"/>
      <point x="211" y="555" type="curve" smooth="yes"/>
      <point x="211" y="663"/>
      <point x="182" y="722"/>
      <point x="138" y="722" type="curve" smooth="yes"/>
      <point x="91" y="722"/>
      <point x="64" y="660"/>
      <point x="64" y="555" type="curve" smooth="yes"/>
      <point x="64" y="449"/>
      <point x="91" y="384"/>
    </contour>
    <contour>
      <point x="138" y="432" type="curve" smooth="yes"/>
      <point x="118" y="432"/>
      <point x="107" y="473"/>
      <point x="107" y="555" type="curve" smooth="yes"/>
      <point x="107" y="637"/>
      <point x="117" y="675"/>
      <point x="138" y="675" type="curve" smooth="yes"/>
      <point x="158" y="675"/>
      <point x="168" y="636"/>
      <point x="168" y="555" type="curve" smooth="yes"/>
      <point x="168" y="474"/>
      <point x="159" y="432"/>
    </contour>
  </outline>
</glyph>
<glyph name="AE" format="2">
  <advance width="300"/>
  <unicode hex="00C6"/>
  <anchor x="135" y="0" name="bottom"/>
  <anchor x="153" y="714" name="top"/>
  <outline>
    <contour>
      <point x="13" y="0" type="line"/>
      <point x="69" y="0" type="line"/>
      <point x="124" y="644" type="line"/>
      <point x="134" y="644" type="line"/>
      <point x="134" y="0" type="line"/>
      <point x="254" y="0" type="line"/>
      <point x="254" y="70" type="line"/>
      <point x="187" y="70" type="line"/>
      <point x="187" y="338" type="line"/>
      <point x="246" y="338" type="line"/>
      <point x="246" y="408" type="line"/>
      <point x="187" y="408" type="line"/>
      <point x="187" y="644" type="line"/>
      <point x="254" y="644" type="line"/>
      <point x="254" y="714" type="line"/>
      <point x="82" y="714" type="line"/>
    </contour>
    <contour>
      <point x="74" y="236" type="line"/>
      <point x="146" y="236" type="line"/>
      <point x="147" y="303" type="line"/>
      <point x="84" y="303" type="line"/>
    </contour>
  </outline>
</glyph>
<glyph name="multiply" format="2">
  <advance width="300"/>
  <unicode hex="00D7"/>
  <outline>
    <contour>
      <point x="67" y="169" type="line"/>
      <point x="134" y="311" type="line"/>
      <point x="202" y="170" type="line"/>
      <point x="234" y="211" type="line"/>
      <point x="168" y="353" type="line"/>
      <point x="236" y="497" type="line"/>
      <point x="202" y="538" type="line"/>
      <point x="134" y="395" type="line"/>
      <point x="67" y="537" type="line"/>
      <point x="35" y="494" type="line"/>
      <point x="101" y="353" type="line"/>
      <point x="35" y="211" type="line"/>
    </contour>
  </outline>
</glyph>
<glyph name="Oslash" format="2">
  <advance width="300"/>
  <unicode hex="00D8"/>
  <anchor x="135" y="0" name="bottom"/>
  <anchor x="135" y="714" name="top"/>
  <anchor x="21" y="714" name="topleft"/>
  <anchor x="143" y="10" name="ogonek"/>
  <anchor x="139" y="357" name="center"/>
  <anchor x="270" y="714" name="topright"/>
  <outline>
    <contour>
      <point x="42" y="-38" type="line"/>
      <point x="261" y="719" type="line"/>
      <point x="227" y="748" type="line"/>
      <point x="8" y="-10" type="line"/>
    </contour>
    <component base="O" xOffset="5"/>
  </outline>
</glyph>
<glyph name="Thorn" format="2">
  <advance width="300"/>
  <unicode hex="00DE"/>
  <anchor x="135" y="0" name="bottom"/>
  <anchor x="135" y="714" name="top"/>
  <outline>
    <contour>
      <point x="34" y="0" type="line"/>
      <point x="94" y="0" type="line"/>
      <point x="94" y="162" type="line"/>
      <point x="130" y="162" type="line" smooth="yes"/>
      <point x="214" y="162"/>
      <point x="246" y="252"/>
      <point x="246" y="385" type="curve" smooth="yes"/>
      <point x="246" y="520"/>
      <point x="211" y="592"/>
      <point x="134" y="592" type="curve" smooth="yes"/>
      <point x="94" y="592" type="line"/>
      <point x="94" y="714" type="line"/>
      <point x="34" y="714" type="line"/>
    </contour>
    <contour>
      <point x="94" y="229" type="line"/>
      <point x="94" y="525" type="line"/>
      <point x="132" y="525" type="line" smooth="yes"/>
      <point x="168" y="525"/>
      <point x="185" y="481"/>
      <point x="185" y="382" type="curve" smooth="yes"/>
      <point x="185" y="270"/>
      <point x="168" y="229"/>
      <point x="125" y="229" type="curve" smooth="yes"/>
    </contour>
  </outline>
</glyph>
<glyph name="germandbls" format="2">
  <advance width="300"/>
  <unicode hex="00DF"/>
  <anchor x="135" y="0" name="bottom"/>
  <anchor x="135" y="765" name="top"/>
  <outline>
    <contour>
      <point x="167" y="-10" type="curve" smooth="yes"/>
      <point x="218" y="-10"/>
      <point x="248" y="51"/>
      <point x="248" y="145" type="curve" smooth="yes"/>
      <point x="248" y="215"/>
      <point x="233" y="247"/>
      <point x="208" y="312" type="curve" smooth="yes"/>
      <point x="192" y="354"/>
      <point x="187" y="376"/>
      <point x="187" y="411" type="curve" smooth="yes"/>
      <point x="187" y="497"/>
      <point x="225" y="510"/>
      <point x="225" y="623" type="curve" smooth="yes"/>
      <point x="225" y="710"/>
      <point x="187" y="765"/>
      <point x="132" y="765" type="curve" smooth="yes"/>
      <point x="68" y="765"/>
      <point x="34" y="693"/>
      <point x="34" y="586" type="curve" smooth="yes"/>
      <point x="34" y="0" type="line"/>
      <point x="92" y="0" type="line"/>
      <point x="92" y="571" type="line" smooth="yes"/>
      <point x="92" y="657"/>
      <point x="102" y="702"/>
      <point x="129" y="702" type="curve" smooth="yes"/>
      <point x="154" y="702"/>
      <point x="165" y="671"/>
      <point x="165" y="619" type="curve" smooth="yes"/>
      <point x="165" y="523"/>
      <point x="125" y="509"/>
      <point x="125" y="410" type="curve" smooth="yes"/>
      <point x="125" y="346"/>
      <point x="144" y="305"/>
      <point x="162" y="266" type="curve" smooth="yes"/>
      <point x="181" y="224"/>
      <point x="189" y="197"/>
      <point x="189" y="143" type="curve" smooth="yes"/>
      <point x="189" y="88"/>
      <point x="179" y="55"/>
      <point x="159" y="55" type="curve" smooth="yes"/>
      <point x="143" y="55"/>
      <point x="129" y="68"/>
      <point x="115" y="87" type="curve"/>
      <point x="115" y="17" type="line"/>
      <point x="130" y="-2"/>
      <point x="148" y="-10"/>
    </contour>
  </outline>
</glyph>
<glyph name="ae" format="2">
  <advance width="300"/>
  <unicode hex="00E6"/>
  <anchor x="135" y="0" name="bottom"/>
  <anchor x="135" y="534" name="top"/>
  <outline>
    <contour>
      <point x="75" y="-10" type="curve" smooth="yes"/>
      <point x="103" y="-10"/>
      <point x="121" y="24"/>
      <point x="134" y="109" type="curve"/>
      <point x="150" y="23"/>
      <point x="172" y="-10"/>
      <point x="201" y="-10" type="curve" smooth="yes"/>
      <point x="219" y="-10"/>
      <point x="235" y="-1"/>
      <point x="250" y="25" type="curve"/>
      <point x="250" y="94" type="line"/>
      <point x="235" y="65"/>
      <point x="223" y="55"/>
      <point x="209" y="55" type="curve" smooth="yes"/>
      <point x="181" y="55"/>
      <point x="162" y="109"/>
      <point x="161" y="256" type="curve"/>
      <point x="259" y="256" type="line"/>
      <point x="259" y="304" type="line" smooth="yes"/>
      <point x="259" y="454"/>
      <point x="239" y="544"/>
      <point x="191" y="544" type="curve" smooth="yes"/>
      <point x="169" y="544"/>
      <point x="151" y="506"/>
      <point x="139" y="451" type="curve"/>
      <point x="128" y="517"/>
      <point x="107" y="544"/>
      <point x="84" y="544" type="curve" smooth="yes"/>
      <point x="60" y="544"/>
      <point x="37" y="525"/>
      <point x="20" y="499" type="curve"/>
      <point x="37" y="445" type="line"/>
      <point x="49" y="467"/>
      <point x="64" y="480"/>
      <point x="77" y="480" type="curve" smooth="yes"/>
      <point x="97" y="480"/>
      <point x="110" y="448"/>
      <point x="110" y="357" type="curve" smooth="yes"/>
      <point x="110" y="318" type="line"/>
      <point x="84" y="315" type="line" smooth="yes"/>
      <point x="37" y="310"/>
      <point x="11" y="253"/>
      <point x="11" y="143" type="curve" smooth="yes"/>
      <point x="11" y="45"/>
      <point x="34" y="-10"/>
    </contour>
    <contour>
      <point x="82" y="55" type="curve" smooth="yes"/>
      <point x="69" y="55"/>
      <point x="59" y="83"/>
      <point x="59" y="144" type="curve" smooth="yes"/>
      <point x="59" y="220"/>
      <point x="74" y="255"/>
      <point x="96" y="258" type="curve" smooth="yes"/>
      <point x="109" y="260" type="line"/>
      <point x="109" y="212" type="line" smooth="yes"/>
      <point x="109" y="104"/>
      <point x="99" y="55"/>
    </contour>
    <contour>
      <point x="162" y="318" type="line"/>
      <point x="162" y="425"/>
      <point x="172" y="481"/>
      <point x="188" y="481" type="curve" smooth="yes"/>
      <point x="205" y="481"/>
      <point x="213" y="422"/>
      <point x="213" y="318" type="curve"/>
    </contour>
  </outline>
</glyph>
<glyph name="eth" format="2">
  <advance width="300"/>
  <unicode hex="00F0"/>
  <anchor x="134" y="0" name="bottom"/>
  <anchor x="134" y="267" name="center"/>
  <anchor x="134" y="763" name="top"/>
  <anchor x="254" y="760" name="topright"/>
  <outline>
    <contour>
      <point x="135" y="-10" type="curve" smooth="yes"/>
      <point x="208" y="-10"/>
      <point x="249" y="85"/>
      <point x="249" y="268" type="curve" smooth="yes"/>
      <point x="249" y="484"/>
      <point x="196" y="668"/>
      <point x="99" y="762" type="curve"/>
      <point x="74" y="715" type="line"/>
      <point x="118" y="650"/>
      <point x="165" y="547"/>
      <point x="178" y="418" type="curve"/>
      <point x="176" y="416" type="line"/>
      <point x="164" y="453"/>
      <point x="147" y="472"/>
      <point x="125" y="472" type="curve" smooth="yes"/>
      <point x="65" y="472"/>
      <point x="21" y="383"/>
      <point x="21" y="231" type="curve" smooth="yes"/>
      <point x="21" y="92"/>
      <point x="64" y="-10"/>
    </contour>
    <contour>
      <point x="136" y="53" type="curve" smooth="yes"/>
      <point x="97" y="53"/>
      <point x="81" y="128"/>
      <point x="81" y="229" type="curve" smooth="yes"/>
      <point x="81" y="345"/>
      <point x="98" y="409"/>
      <point x="136" y="409" type="curve" smooth="yes"/>
      <point x="172" y="409"/>
      <point x="188" y="336"/>
      <point x="188" y="245" type="curve" smooth="yes"/>
      <point x="188" y="122"/>
      <point x="173" y="53"/>
    </contour>
    <contour>
      <point x="90" y="563" type="line"/>
      <point x="215" y="716" type="line"/>
      <point x="191" y="763" type="line"/>
      <point x="66" y="611" type="line"/>
    </contour>
  </outline>
</glyph>
<glyph name="divide" format="2">
  <advance width="300"/>
  <unicode hex="00F7"/>
  <outline>
    <contour>
      <point x="34" y="323" type="line"/>
      <point x="236" y="323" type="line"/>
      <point x="236" y="383" type="line"/>
      <point x="34" y="383" type="line"/>
    </contour>
    <contour>
      <point x="136" y="117" type="curve" smooth="yes"/>
      <point x="155" y="117"/>
      <point x="167" y="137"/>
      <point x="167" y="174" type="curve" smooth="yes"/>
      <point x="167" y="211"/>
      <point x="157" y="231"/>
      <point x="136" y="231" type="curve" smooth="yes"/>
      <point x="114" y="231"/>
      <point x="104" y="211"/>
      <point x="104" y="174" type="curve" smooth="yes"/>
      <point x="104" y="138"/>
      <point x="115" y="117"/>
    </contour>
    <contour>
      <point x="136" y="474" type="curve" smooth="yes"/>
      <point x="155" y="474"/>
      <point x="167" y="493"/>
      <point x="167" y="531" type="curve" smooth="yes"/>
      <point x="167" y="568"/>
      <point x="157" y="588"/>
      <point x="136" y="588" type="curve" smooth="yes"/>
      <point x="114" y="588"/>
      <point x="104" y="568"/>
      <point x="104" y="531" type="curve" smooth="yes"/>
      <point x="104" y="494"/>
      <point x="115" y="474"/>
    </contour>
  </outline>
</glyph>
<glyph name="oslash" format="2">
  <advance width="300"/>
  <unicode hex="00F8"/>
  <anchor x="135" y="0" name="bottom"/>
  <anchor x="135" y="534" name="top"/>
  <anchor x="141" y="11" name="ogonek"/>
  <anchor x="265" y="534" name="topright"/>
  <anchor x="140" y="267" name="center"/>
  <outline>
    <contour>
      <point x="69" y="-51" type="line"/>
      <point x="242" y="547" type="line"/>
      <point x="208" y="574" type="line"/>
      <point x="37" y="-22" type="line"/>
    </contour>
    <component base="o" xOffset="6"/>
  </outline>
</glyph>
<glyph name="thorn" format="2">
  <advance width="300"/>
  <unicode hex="00FE"/>
  <anchor x="146" y="-240" name="bottom"/>
  <anchor x="146" y="752" name="top"/>
  <outline>
    <contour>
      <point x="30" y="-240" type="line"/>
      <point x="90" y="-240" type="line"/>
      <point x="90" y="-7" type="line" smooth="yes"/>
      <point x="90" y="21"/>
      <point x="89" y="49"/>
      <point x="87" y="76" type="curve"/>
      <point x="90" y="76" type="line"/>
      <point x="106" y="30"/>
      <point x="127" y="-10"/>
      <point x="159" y="-10" type="curve" smooth="yes"/>
      <point x="210" y="-10"/>
      <point x="249" y="86"/>
      <point x="249" y="269" type="curve" smooth="yes"/>
      <point x="249" y="451"/>
      <point x="218" y="545"/>
      <point x="159" y="545" type="curve" smooth="yes"/>
      <point x="125" y="545"/>
      <point x="104" y="503"/>
      <point x="90" y="452" type="curve"/>
      <point x="87" y="452" type="line"/>
      <point x="89" y="484"/>
      <point x="90" y="507"/>
      <point x="90" y="542" type="curve" smooth="yes"/>
      <point x="90" y="752" type="line"/>
      <point x="30" y="752" type="line"/>
    </contour>
    <contour>
      <point x="141" y="55" type="curve" smooth="yes"/>
      <point x="106" y="55"/>
      <point x="90" y="131"/>
      <point x="90" y="264" type="curve" smooth="yes"/>
      <point x="90" y="287" type="line" smooth="yes"/>
      <point x="90" y="408"/>
      <point x="106" y="481"/>
      <point x="139" y="481" type="curve" smooth="yes"/>
      <point x="171" y="481"/>
      <point x="186" y="410"/>
      <point x="186" y="270" type="curve" smooth="yes"/>
      <point x="186" y="129"/>
      <point x="171" y="55"/>
    </contour>
  </outline>
</glyph>
<glyph name="dcaron" format="2">
  <advance width="300"/>
  <unicode hex="010F"/>
  <anchor x="117" y="0" name="bottom"/>
  <anchor x="117" y="267" name="center"/>
  <anchor x="132" y="760" name="top"/>
  <anchor x="237" y="760" name="topright"/>
  <outline>
    <contour>
      <point x="102" y="-10" type="curve" smooth="yes"/>
      <point x="131" y="-10"/>
      <point x="152" y="30"/>
      <point x="164" y="79" type="curve"/>
      <point x="167" y="79" type="line"/>
      <point x="174" y="0" type="line"/>
      <point x="223" y="0" type="line"/>
      <point x="223" y="760" type="line"/>
      <point x="163" y="760" type="line"/>
      <point x="163" y="542" type="line" smooth="yes"/>
      <point x="163" y="514"/>
      <point x="165" y="488"/>
      <point x="166" y="459" type="curve"/>
      <point x="163" y="459" type="line"/>
      <point x="150" y="506"/>
      <point x="131" y="545"/>
      <point x="104" y="545" type="curve" smooth="yes"/>
      <point x="50" y="545"/>
      <point x="16" y="448"/>
      <point x="16" y="263" type="curve" smooth="yes"/>
      <point x="16" y="86"/>
      <point x="48" y="-10"/>
    </contour>
    <contour>
      <point x="120" y="55" type="curve" smooth="yes"/>
      <point x="89" y="55"/>
      <point x="77" y="123"/>
      <point x="77" y="260" type="curve" smooth="yes"/>
      <point x="77" y="407"/>
      <point x="89" y="481"/>
      <point x="122" y="481" type="curve" smooth="yes"/>
      <point x="152" y="481"/>
      <point x="164" y="401"/>
      <point x="164" y="271" type="curve" smooth="yes"/>
      <point x="164" y="246" type="line" smooth="yes"/>
      <point x="164" y="130"/>
      <point x="151" y="55"/>
    </contour>
    <component base="caroncommaaccent" xOffset="141"/>
  </outline>
</glyph>
<glyph name="dcroat" format="2">
  <advance width="300"/>
  <unicode hex="0111"/>
  <anchor x="134" y="0" name="bottom"/>
  <anchor x="134" y="267" name="center"/>
  <anchor x="134" y="760" name="top"/>
  <anchor x="254" y="760" name="topright"/>
  <outline>
    <contour>
      <point x="113" y="-10" type="curve" smooth="yes"/>
      <point x="146" y="-10"/>
      <point x="167" y="31"/>
      <point x="181" y="79" type="curve"/>
      <point x="184" y="79" type="line"/>
      <point x="191" y="0" type="line"/>
      <point x="239" y="0" type="line"/>
      <point x="239" y="760" type="line"/>
      <point x="180" y="760" type="line"/>
      <point x="180" y="538" type="line" smooth="yes"/>
      <point x="180" y="514"/>
      <point x="182" y="480"/>
      <point x="184" y="454" type="curve"/>
      <point x="180" y="454" type="line"/>
      <point x="166" y="502"/>
      <point x="144" y="541"/>
      <point x="114" y="541" type="curve" smooth="yes"/>
      <point x="56" y="541"/>
      <point x="21" y="443"/>
      <point x="21" y="260" type="curve" smooth="yes"/>
      <point x="21" y="83"/>
      <point x="55" y="-10"/>
    </contour>
    <contour>
      <point x="133" y="55" type="curve" smooth="yes"/>
      <point x="97" y="55"/>
      <point x="83" y="122"/>
      <point x="83" y="254" type="curve" smooth="yes"/>
      <point x="83" y="400"/>
      <point x="97" y="477"/>
      <point x="134" y="477" type="curve" smooth="yes"/>
      <point x="170" y="477"/>
      <point x="181" y="399"/>
      <point x="181" y="267" type="curve" smooth="yes"/>
      <point x="181" y="242" type="line" smooth="yes"/>
      <point x="181" y="127"/>
      <point x="166" y="55"/>
    </contour>
    <contour>
      <point x="105" y="610" type="line"/>
      <point x="265" y="610" type="line"/>
      <point x="265" y="668" type="line"/>
      <point x="105" y="668" type="line"/>
    </contour>
  </outline>
</glyph>
<glyph name="eogonek" format="2">
  <advance width="300"/>
  <unicode hex="0119"/>
  <anchor x="137" y="-222" name="bottom"/>
  <anchor x="132" y="534" name="top"/>
  <anchor x="145" y="10" name="ogonek"/>
  <anchor x="260" y="534" name="topright"/>
  <outline>
    <contour>
      <point x="203" y="-222" type="curve" smooth="yes"/>
      <point x="214" y="-222"/>
      <point x="225" y="-219"/>
      <point x="232" y="-214" type="curve"/>
      <point x="232" y="-165" type="line"/>
      <point x="227" y="-168"/>
      <point x="222" y="-171"/>
      <point x="215" y="-171" type="curve" smooth="yes"/>
      <point x="199" y="-171"/>
      <point x="191" y="-147"/>
      <point x="191" y="-111" type="curve" smooth="yes"/>
      <point x="191" y="-64"/>
      <point x="202" y="-12"/>
      <point x="231" y="26" type="curve"/>
      <point x="202" y="38" type="line"/>
      <point x="172" y="1"/>
      <point x="146" y="-52"/>
      <point x="146" y="-119" type="curve" smooth="yes"/>
      <point x="146" y="-181"/>
      <point x="164" y="-222"/>
    </contour>
    <component base="e" xOffset="2"/>
  </outline>
</glyph>
<glyph name="Hbar" format="2">
  <advance width="300"/>
  <unicode hex="0126"/>
  <anchor x="135" y="0" name="bottom"/>
  <anchor x="135" y="357" name="center"/>
  <anchor x="135" y="714" name="top"/>
  <anchor x="16" y="714" name="topleft"/>
  <outline>
    <contour>
      <point x="5" y="531" type="line"/>
      <point x="264" y="531" type="line"/>
      <point x="264" y="591" type="line"/>
      <point x="5" y="591" type="line"/>
    </contour>
    <contour>
      <point x="26" y="0" type="line"/>
      <point x="87" y="0" type="line"/>
      <point x="87" y="336" type="line"/>
      <point x="182" y="336" type="line"/>
      <point x="182" y="0" type="line"/>
      <point x="244" y="0" type="line"/>
      <point x="244" y="714" type="line"/>
      <point x="182" y="714" type="line"/>
      <point x="182" y="404" type="line"/>
      <point x="87" y="404" type="line"/>
      <point x="87" y="714" type="line"/>
      <point x="26" y="714" type="line"/>
    </contour>
  </outline>
</glyph>
<glyph name="hbar" format="2">
  <advance width="300"/>
  <unicode hex="0127"/>
  <anchor x="135" y="0" name="bottom"/>
  <anchor x="135" y="267" name="center"/>
  <anchor x="60" y="760" name="top"/>
  <outline>
    <contour>
      <point x="5" y="610" type="line"/>
      <point x="164" y="610" type="line"/>
      <point x="164" y="668" type="line"/>
      <point x="5" y="668" type="line"/>
    </contour>
    <contour>
      <point x="29" y="0" type="line"/>
      <point x="91" y="0" type="line"/>
      <point x="91" y="283" type="line" smooth="yes"/>
      <point x="91" y="411"/>
      <point x="104" y="481"/>
      <point x="140" y="481" type="curve" smooth="yes"/>
      <point x="172" y="481"/>
      <point x="181" y="434"/>
      <point x="181" y="337" type="curve" smooth="yes"/>
      <point x="181" y="0" type="line"/>
      <point x="243" y="0" type="line"/>
      <point x="243" y="352" type="line" smooth="yes"/>
      <point x="243" y="485"/>
      <point x="208" y="545"/>
      <point x="159" y="545" type="curve" smooth="yes"/>
      <point x="126" y="545"/>
      <point x="103" y="507"/>
      <point x="90" y="455" type="curve"/>
      <point x="87" y="455" type="line"/>
      <point x="89" y="478"/>
      <point x="91" y="501"/>
      <point x="91" y="525" type="curve" smooth="yes"/>
      <point x="91" y="760" type="line"/>
      <point x="29" y="760" type="line"/>
    </contour>
  </outline>
</glyph>
<glyph name="idotless" format="2">
  <advance width="270"/>
  <unicode hex="0131"/>
  <anchor x="135" y="0" name="bottom"/>
  <anchor x="238" y="10" name="ogonek"/>
  <anchor x="135" y="534" name="top"/>
  <outline>
    <contour>
      <point x="34" y="0" type="line"/>
      <point x="234" y="0" type="line"/>
      <point x="234" y="52" type="line"/>
      <point x="169" y="61" type="line"/>
      <point x="169" y="534" type="line"/>
      <point x="42" y="534" type="line"/>
      <point x="42" y="482" type="line"/>
      <point x="109" y="471" type="line"/>
      <point x="109" y="61" type="line"/>
      <point x="34" y="52" type="line"/>
    </contour>
  </outline>
</glyph>
<glyph name="IJ" format="2">
  <advance width="300"/>
  <unicode hex="0132"/>
  <anchor x="135" y="0" name="bottom"/>
  <anchor x="5" y="0" name="caret_1"/>
  <anchor x="135" y="714" name="top"/>
  <anchor x="16" y="714" name="topleft"/>
  <outline>
    <contour>
      <point x="118" y="-11" type="curve" smooth="yes"/>
      <point x="192" y="-11"/>
      <point x="229" y="66"/>
      <point x="229" y="202" type="curve" smooth="yes"/>
      <point x="229" y="714" type="line"/>
      <point x="167" y="714" type="line"/>
      <point x="167" y="213" type="line" smooth="yes"/>
      <point x="167" y="102"/>
      <point x="144" y="58"/>
      <point x="109" y="58" type="curve" smooth="yes"/>
      <point x="89" y="58"/>
      <point x="62" y="80"/>
      <point x="45" y="92" type="curve"/>
      <point x="45" y="21" type="line"/>
      <point x="66" y="2"/>
      <point x="95" y="-11"/>
    </contour>
    <contour>
      <point x="45" y="174" type="line"/>
      <point x="106" y="174" type="line"/>
      <point x="106" y="714" type="line"/>
      <point x="45" y="714" type="line"/>
    </contour>
  </outline>
</glyph>
<glyph name="ij" format="2">
  <advance width="300"/>
  <unicode hex="0133"/>
  <anchor x="143" y="-245" name="bottom"/>
  <anchor x="6" y="0" name="caret_1"/>
  <anchor x="138" y="757" name="top"/>
  <outline>
    <contour>
      <point x="127" y="-245" type="curve" smooth="yes"/>
      <point x="195" y="-245"/>
      <point x="226" y="-188"/>
      <point x="226" y="-67" type="curve" smooth="yes"/>
      <point x="226" y="534" type="line"/>
      <point x="165" y="534" type="line"/>
      <point x="165" y="-70" type="line" smooth="yes"/>
      <point x="165" y="-142"/>
      <point x="151" y="-181"/>
      <point x="118" y="-181" type="curve" smooth="yes"/>
      <point x="103" y="-181"/>
      <point x="80" y="-171"/>
      <point x="61" y="-162" type="curve"/>
      <point x="61" y="-228" type="line"/>
      <point x="82" y="-237"/>
      <point x="105" y="-245"/>
    </contour>
    <contour>
      <point x="46" y="0" type="line"/>
      <point x="106" y="0" type="line"/>
      <point x="106" y="534" type="line"/>
      <point x="46" y="534" type="line"/>
    </contour>
    <contour>
      <point x="77" y="636" type="curve" smooth="yes"/>
      <point x="102" y="636"/>
      <point x="115" y="656"/>
      <point x="115" y="697" type="curve" smooth="yes"/>
      <point x="115" y="737"/>
      <point x="101" y="757"/>
      <point x="77" y="757" type="curve" smooth="yes"/>
      <point x="53" y="757"/>
      <point x="39" y="737"/>
      <point x="39" y="697" type="curve" smooth="yes"/>
      <point x="39" y="657"/>
      <point x="53" y="636"/>
    </contour>
    <contour>
      <point x="193" y="636" type="curve" smooth="yes"/>
      <point x="216" y="636"/>
      <point x="231" y="656"/>
      <point x="231" y="697" type="curve" smooth="yes"/>
      <point x="231" y="737"/>
      <point x="217" y="757"/>
      <point x="193" y="757" type="curve" smooth="yes"/>
      <point x="169" y="757"/>
      <point x="155" y="737"/>
      <point x="155" y="697" type="curve" smooth="yes"/>
      <point x="155" y="657"/>
      <point x="168" y="636"/>
    </contour>
  </outline>
</glyph>
<glyph name="kgreenlandic" format="2">
  <advance width="300"/>
  <unicode hex="0138"/>
  <anchor x="135" y="0" name="bottom"/>
  <anchor x="135" y="534" name="top"/>
  <outline>
    <contour>
      <point x="30" y="0" type="line"/>
      <point x="90" y="0" type="line"/>
      <point x="90" y="199" type="line"/>
      <point x="113" y="250" type="line"/>
      <point x="186" y="0" type="line"/>
      <point x="257" y="0" type="line"/>
      <point x="155" y="304" type="line"/>
      <point x="254" y="534" type="line"/>
      <point x="182" y="534" type="line"/>
      <point x="112" y="331" type="line" smooth="yes"/>
      <point x="104" y="308"/>
      <point x="95" y="288"/>
      <point x="87" y="265" type="curve"/>
      <point x="86" y="265" type="line"/>
      <point x="88" y="316"/>
      <point x="90" y="355"/>
      <point x="90" y="404" type="curve" smooth="yes"/>
      <point x="90" y="534" type="line"/>
      <point x="30" y="534" type="line"/>
    </contour>
  </outline>
</glyph>
<glyph name="lslash" format="2">
  <advance width="300"/>
  <unicode hex="0142"/>
  <anchor x="135" y="0" name="bottom"/>
  <anchor x="135" y="760" name="top"/>
  <anchor x="227" y="760" name="topright"/>
  <anchor x="142" y="372" name="center"/>
  <outline>
    <contour>
      <point x="56" y="290" type="line"/>
      <point x="235" y="455" type="line"/>
      <point x="235" y="516" type="line"/>
      <point x="56" y="349" type="line"/>
    </contour>
    <component base="l" xOffset="6"/>
  </outline>
</glyph>
<glyph name="napostrophe" format="2">
  <advance width="300"/>
  <unicode hex="0149"/>
  <anchor x="141" y="0" name="bottom"/>
  <anchor x="145" y="534" name="top"/>
  <outline>
    <contour>
      <point x="36" y="0" type="line"/>
      <point x="96" y="0" type="line"/>
      <point x="96" y="284" type="line" smooth="yes"/>
      <point x="96" y="412"/>
      <point x="110" y="481"/>
      <point x="143" y="481" type="curve" smooth="yes"/>
      <point x="168" y="481"/>
      <point x="182" y="436"/>
      <point x="182" y="348" type="curve" smooth="yes"/>
      <point x="182" y="0" type="line"/>
      <point x="243" y="0" type="line"/>
      <point x="243" y="352" type="line" smooth="yes"/>
      <point x="243" y="486"/>
      <point x="213" y="545"/>
      <point x="164" y="545" type="curve" smooth="yes"/>
      <point x="133" y="545"/>
      <point x="110" y="512"/>
      <point x="97" y="456" type="curve"/>
      <point x="94" y="456" type="line"/>
      <point x="86" y="534" type="line"/>
      <point x="36" y="534" type="line"/>
    </contour>
    <component base="quoteright" xOffset="-132"/>
  </outline>
</glyph>
<glyph name="Eng" format="2">
  <advance width="300"/>
  <unicode hex="014A"/>
  <anchor x="131" y="-189" name="bottom"/>
  <anchor x="131" y="714" name="top"/>
  <anchor x="264" y="714" name="topright"/>
  <outline>
    <contour>
      <point x="153" y="-189" type="curve" smooth="yes"/>
      <point x="214" y="-189"/>
      <point x="244" y="-128"/>
      <point x="244" y="3" type="curve" smooth="yes"/>
      <point x="244" y="61" type="line"/>
      <point x="195" y="61" type="line"/>
      <point x="195" y="1" type="line" smooth="yes"/>
      <point x="195" y="-94"/>
      <point x="175" y="-133"/>
      <point x="145" y="-133" type="curve" smooth="yes"/>
      <point x="134" y="-133"/>
      <point x="124" y="-129"/>
      <point x="115" y="-123" type="curve"/>
      <point x="115" y="-177" type="line"/>
      <point x="126" y="-184"/>
      <point x="139" y="-189"/>
    </contour>
    <component base="N"/>
  </outline>
</glyph>
<glyph name="eng" format="2">
  <advance width="300"/>
  <unicode hex="014B"/>
  <anchor x="136" y="-240" name="bottom"/>
  <anchor x="139" y="534" name="top"/>
  <anchor x="259" y="534" name="topright"/>
  <outline>
    <contour>
      <point x="164" y="-240" type="curve" smooth="yes"/>
      <point x="216" y="-240"/>
      <point x="240" y="-184"/>
      <point x="240" y="-87" type="curve" smooth="yes"/>
      <point x="240" y="262" type="line"/>
      <point x="186" y="258" type="line"/>
      <point x="175" y="-88" type="line" smooth="yes"/>
      <point x="174" y="-149"/>
      <point x="167" y="-176"/>
      <point x="152" y="-176" type="curve" smooth="yes"/>
      <point x="144" y="-176"/>
      <point x="136" y="-173"/>
      <point x="128" y="-167" type="curve"/>
      <point x="128" y="-230" type="line"/>
      <point x="139" y="-236"/>
      <point x="150" y="-240"/>
    </contour>
    <component base="n"/>
  </outline>
</glyph>
<glyph name="OE" format="2">
  <advance width="300"/>
  <unicode hex="0152"/>
  <anchor x="134" y="0" name="bottom"/>
  <anchor x="134" y="714" name="top"/>
  <outline>
    <contour>
      <point x="113" y="-8" type="curve" smooth="yes"/>
      <point x="123" y="-8"/>
      <point x="135" y="-4"/>
      <point x="146" y="0" type="curve"/>
      <point x="254" y="0" type="line"/>
      <point x="254" y="70" type="line"/>
      <point x="192" y="70" type="line"/>
      <point x="192" y="337" type="line"/>
      <point x="245" y="337" type="line"/>
      <point x="245" y="408" type="line"/>
      <point x="192" y="408" type="line"/>
      <point x="192" y="644" type="line"/>
      <point x="254" y="644" type="line"/>
      <point x="254" y="714" type="line"/>
      <point x="146" y="714" type="line"/>
      <point x="133" y="718"/>
      <point x="121" y="722"/>
      <point x="112" y="722" type="curve" smooth="yes"/>
      <point x="39" y="722"/>
      <point x="15" y="577"/>
      <point x="15" y="359" type="curve" smooth="yes"/>
      <point x="15" y="135"/>
      <point x="38" y="-8"/>
    </contour>
    <contour>
      <point x="117" y="58" type="curve" smooth="yes"/>
      <point x="82" y="58"/>
      <point x="72" y="174"/>
      <point x="72" y="358" type="curve" smooth="yes"/>
      <point x="72" y="539"/>
      <point x="84" y="658"/>
      <point x="118" y="658" type="curve" smooth="yes"/>
      <point x="125" y="658"/>
      <point x="132" y="656"/>
      <point x="136" y="646" type="curve"/>
      <point x="136" y="69" type="line"/>
      <point x="130" y="61"/>
      <point x="123" y="58"/>
    </contour>
  </outline>
</glyph>
<glyph name="oe" format="2">
  <advance width="300"/>
  <unicode hex="0153"/>
  <anchor x="134" y="0" name="bottom"/>
  <anchor x="134" y="534" name="top"/>
  <outline>
    <contour>
      <point x="87" y="-10" type="curve" smooth="yes"/>
      <point x="111" y="-10"/>
      <point x="128" y="23"/>
      <point x="142" y="97" type="curve"/>
      <point x="154" y="24"/>
      <point x="177" y="-10"/>
      <point x="203" y="-10" type="curve" smooth="yes"/>
      <point x="222" y="-10"/>
      <point x="239" y="1"/>
      <point x="252" y="24" type="curve"/>
      <point x="252" y="91" type="line"/>
      <point x="239" y="68"/>
      <point x="224" y="54"/>
      <point x="211" y="54" type="curve" smooth="yes"/>
      <point x="183" y="54"/>
      <point x="166" y="118"/>
      <point x="165" y="254" type="curve"/>
      <point x="259" y="254" type="line"/>
      <point x="259" y="304" type="line" smooth="yes"/>
      <point x="259" y="452"/>
      <point x="240" y="544"/>
      <point x="193" y="544" type="curve" smooth="yes"/>
      <point x="168" y="544"/>
      <point x="152" y="507"/>
      <point x="140" y="437" type="curve"/>
      <point x="129" y="512"/>
      <point x="110" y="544"/>
      <point x="85" y="544" type="curve" smooth="yes"/>
      <point x="34" y="544"/>
      <point x="13" y="469"/>
      <point x="13" y="264" type="curve" smooth="yes"/>
      <point x="13" y="81"/>
      <point x="34" y="-10"/>
    </contour>
    <contour>
      <point x="88" y="54" type="curve" smooth="yes"/>
      <point x="68" y="54"/>
      <point x="61" y="133"/>
      <point x="61" y="267" type="curve" smooth="yes"/>
      <point x="61" y="413"/>
      <point x="68" y="481"/>
      <point x="88" y="481" type="curve" smooth="yes"/>
      <point x="107" y="481"/>
      <point x="115" y="407"/>
      <point x="115" y="267" type="curve" smooth="yes"/>
      <point x="115" y="132"/>
      <point x="107" y="54"/>
    </contour>
    <contour>
      <point x="164" y="318" type="line"/>
      <point x="164" y="397"/>
      <point x="173" y="481"/>
      <point x="189" y="481" type="curve" smooth="yes"/>
      <point x="204" y="481"/>
      <point x="212" y="424"/>
      <point x="213" y="318" type="curve"/>
    </contour>
  </outline>
</glyph>
<glyph name="tbar" format="2">
  <advance width="300"/>
  <unicode hex="0167"/>
  <anchor x="157" y="0" name="bottom"/>
  <anchor x="128" y="675" name="top"/>
  <anchor x="254" y="675" name="topright"/>
  <anchor x="119" y="290" name="center"/>
  <outline>
    <contour>
      <point x="21" y="279" type="line"/>
      <point x="246" y="279" type="line"/>
      <point x="246" y="336" type="line"/>
      <point x="21" y="336" type="line"/>
    </contour>
    <component base="t"/>
  </outline>
</glyph>
<glyph name="Uogonek" format="2">
  <advance width="300"/>
  <unicode hex="0172"/>
  <anchor x="149" y="-222" name="bottom"/>
  <anchor x="129" y="714" name="top"/>
  <anchor x="239" y="10" name="ogonek"/>
  <anchor x="255" y="714" name="topright"/>
  <outline>
    <contour>
      <point x="148" y="-222" type="curve" smooth="yes"/>
      <point x="162" y="-222"/>
      <point x="171" y="-219"/>
      <point x="178" y="-214" type="curve"/>
      <point x="178" y="-165" type="line"/>
      <point x="174" y="-168"/>
      <point x="169" y="-171"/>
      <point x="162" y="-171" type="curve" smooth="yes"/>
      <point x="146" y="-171"/>
      <point x="138" y="-152"/>
      <point x="138" y="-121" type="curve" smooth="yes"/>
      <point x="138" y="-68"/>
      <point x="159" y="-28"/>
      <point x="191" y="15" type="curve"/>
      <point x="159" y="25" type="line"/>
      <point x="118" y="-10"/>
      <point x="93" y="-67"/>
      <point x="93" y="-136" type="curve" smooth="yes"/>
      <point x="93" y="-190"/>
      <point x="111" y="-222"/>
    </contour>
    <component base="U"/>
  </outline>
</glyph>
<glyph name="longs" format="2">
  <advance width="300"/>
  <unicode hex="017F"/>
  <anchor x="135" y="0" name="bottom"/>
  <anchor x="172" y="765" name="top"/>
  <outline>
    <contour>
      <point x="94" y="0" type="line"/>
      <point x="155" y="0" type="line"/>
      <point x="155" y="566" type="line" smooth="yes"/>
      <point x="155" y="666"/>
      <point x="169" y="702"/>
      <point x="192" y="702" type="curve" smooth="yes"/>
      <point x="204" y="702"/>
      <point x="215" y="696"/>
      <point x="224" y="690" type="curve"/>
      <point x="238" y="750" type="line"/>
      <point x="218" y="759"/>
      <point x="203" y="765"/>
      <point x="185" y="765" type="curve" smooth="yes"/>
      <point x="122" y="765"/>
      <point x="94" y="702"/>
      <point x="94" y="576" type="curve" smooth="yes"/>
    </contour>
  </outline>
</glyph>
<glyph name="uni0180" format="2">
  <advance width="300"/>
  <unicode hex="0180"/>
  <anchor x="135" y="0" name="bottom"/>
  <anchor x="137" y="760" name="top"/>
  <anchor x="260" y="760" name="topright"/>
  <outline>
    <contour>
      <point x="6" y="610" type="line"/>
      <point x="150" y="610" type="line"/>
      <point x="150" y="667" type="line"/>
      <point x="6" y="667" type="line"/>
    </contour>
    <component base="b" xOffset="5"/>
  </outline>
</glyph>
<glyph name="uni0181" format="2">
  <advance width="300"/>
  <unicode hex="0181"/>
  <anchor x="144" y="0" name="bottom"/>
  <anchor x="144" y="714" name="top"/>
  <outline>
    <contour>
      <point x="71" y="0" type="line"/>
      <point x="150" y="0" type="line" smooth="yes"/>
      <point x="216" y="0"/>
      <point x="254" y="74"/>
      <point x="254" y="204" type="curve" smooth="yes"/>
      <point x="254" y="308"/>
      <point x="230" y="358"/>
      <point x="194" y="374" type="curve"/>
      <point x="194" y="379" type="line"/>
      <point x="226" y="394"/>
      <point x="247" y="454"/>
      <point x="247" y="542" type="curve" smooth="yes"/>
      <point x="247" y="661"/>
      <point x="211" y="714"/>
      <point x="141" y="714" type="curve" smooth="yes"/>
      <point x="71" y="714" type="line"/>
    </contour>
    <contour>
      <point x="125" y="66" type="line"/>
      <point x="125" y="341" type="line"/>
      <point x="143" y="341" type="line" smooth="yes"/>
      <point x="184" y="341"/>
      <point x="200" y="295"/>
      <point x="200" y="205" type="curve" smooth="yes"/>
      <point x="200" y="116"/>
      <point x="183" y="66"/>
      <point x="146" y="66" type="curve" smooth="yes"/>
    </contour>
    <contour>
      <point x="12" y="524" type="curve"/>
      <point x="54" y="524" type="line"/>
      <point x="52" y="533"/>
      <point x="51" y="556"/>
      <point x="51" y="583" type="curve" smooth="yes"/>
      <point x="51" y="627"/>
      <point x="57" y="649"/>
      <point x="73" y="649" type="curve" smooth="yes"/>
      <point x="85" y="649" type="line"/>
      <point x="85" y="714" type="line"/>
      <point x="77" y="714" type="line" smooth="yes"/>
      <point x="28" y="714"/>
      <point x="8" y="663"/>
      <point x="8" y="588" type="curve" smooth="yes"/>
      <point x="8" y="559"/>
      <point x="10" y="536"/>
    </contour>
    <contour>
      <point x="125" y="407" type="line"/>
      <point x="125" y="648" type="line"/>
      <point x="137" y="648" type="line" smooth="yes"/>
      <point x="178" y="648"/>
      <point x="192" y="613"/>
      <point x="192" y="530" type="curve" smooth="yes"/>
      <point x="192" y="448"/>
      <point x="177" y="407"/>
      <point x="140" y="407" type="curve" smooth="yes"/>
    </contour>
  </outline>
</glyph>
<glyph name="uni0183" format="2">
  <advance width="300"/>
  <unicode hex="0183"/>
  <anchor x="135" y="0" name="bottom"/>
  <anchor x="135" y="760" name="top"/>
  <anchor x="261" y="760" name="topright"/>
  <outline>
    <contour>
      <point x="62" y="699" type="line"/>
      <point x="215" y="699" type="line"/>
      <point x="215" y="760" type="line"/>
      <point x="62" y="760" type="line"/>
    </contour>
    <component base="b" xOffset="6"/>
  </outline>
</glyph>
<glyph name="uni0184" format="2">
  <advance width="300"/>
  <unicode hex="0184"/>
  <anchor x="135" y="0" name="bottom"/>
  <anchor x="135" y="760" name="top"/>
  <outline>
    <contour>
      <point x="138" y="-6" type="curve" smooth="yes"/>
      <point x="209" y="-6"/>
      <point x="245" y="75"/>
      <point x="245" y="208" type="curve" smooth="yes"/>
      <point x="245" y="339"/>
      <point x="212" y="412"/>
      <point x="131" y="412" type="curve" smooth="yes"/>
      <point x="95" y="412" type="line"/>
      <point x="95" y="714" type="line"/>
      <point x="34" y="714" type="line"/>
      <point x="34" y="203" type="line" smooth="yes"/>
      <point x="34" y="56"/>
      <point x="69" y="-6"/>
    </contour>
    <contour>
      <point x="139" y="63" type="curve" smooth="yes"/>
      <point x="110" y="63"/>
      <point x="95" y="98"/>
      <point x="95" y="211" type="curve" smooth="yes"/>
      <point x="95" y="347" type="line"/>
      <point x="125" y="347" type="line" smooth="yes"/>
      <point x="164" y="347"/>
      <point x="185" y="307"/>
      <point x="185" y="208" type="curve" smooth="yes"/>
      <point x="185" y="107"/>
      <point x="168" y="63"/>
    </contour>
  </outline>
</glyph>
<glyph name="uni0185" format="2">
  <advance width="300"/>
  <unicode hex="0185"/>
  <anchor x="135" y="0" name="bottom"/>
  <anchor x="135" y="760" name="top"/>
  <outline>
    <contour>
      <point x="137" y="-10" type="curve" smooth="yes"/>
      <point x="206" y="-10"/>
      <point x="249" y="92"/>
      <point x="249" y="269" type="curve" smooth="yes"/>
      <point x="249" y="449"/>
      <point x="216" y="545"/>
      <point x="160" y="545" type="curve" smooth="yes"/>
      <point x="125" y="545"/>
      <point x="103" y="508"/>
      <point x="90" y="456" type="curve"/>
      <point x="87" y="456" type="line"/>
      <point x="89" y="490"/>
      <point x="90" y="527"/>
      <point x="90" y="563" type="curve" smooth="yes"/>
      <point x="90" y="760" type="line"/>
      <point x="30" y="760" type="line"/>
      <point x="30" y="257" type="line" smooth="yes"/>
      <point x="30" y="58"/>
      <point x="67" y="-10"/>
    </contour>
    <contour>
      <point x="139" y="55" type="curve" smooth="yes"/>
      <point x="109" y="55"/>
      <point x="90" y="98"/>
      <point x="90" y="259" type="curve" smooth="yes"/>
      <point x="90" y="272" type="line" smooth="yes"/>
      <point x="90" y="413"/>
      <point x="108" y="481"/>
      <point x="139" y="481" type="curve" smooth="yes"/>
      <point x="172" y="481"/>
      <point x="186" y="414"/>
      <point x="186" y="267" type="curve" smooth="yes"/>
      <point x="186" y="121"/>
      <point x="168" y="55"/>
    </contour>
  </outline>
</glyph>
<glyph name="uni0187" format="2">
  <advance width="300"/>
  <unicode hex="0187"/>
  <anchor x="158" y="0" name="bottom"/>
  <anchor x="158" y="864" name="top"/>
  <anchor x="259" y="714" name="topright"/>
  <outline>
    <contour>
      <point x="201" y="689" type="line"/>
      <point x="254" y="689" type="line"/>
      <point x="254" y="744" type="line" smooth="yes"/>
      <point x="254" y="789"/>
      <point x="262" y="800"/>
      <point x="274" y="800" type="curve" smooth="yes"/>
      <point x="282" y="800"/>
      <point x="289" y="793"/>
      <point x="293" y="789" type="curve"/>
      <point x="293" y="852" type="line"/>
      <point x="287" y="858"/>
      <point x="278" y="864"/>
      <point x="263" y="864" type="curve" smooth="yes"/>
      <point x="232" y="864"/>
      <point x="201" y="834"/>
      <point x="201" y="754" type="curve" smooth="yes"/>
    </contour>
    <component base="C" xOffset="5"/>
  </outline>
</glyph>
<glyph name="uni0188" format="2">
  <advance width="300"/>
  <unicode hex="0188"/>
  <anchor x="134" y="0" name="bottom"/>
  <anchor x="134" y="767" name="top"/>
  <anchor x="261" y="534" name="topright"/>
  <outline>
    <contour>
      <point x="189" y="517" type="line"/>
      <point x="240" y="517" type="line"/>
      <point x="240" y="649" type="line" smooth="yes"/>
      <point x="240" y="694"/>
      <point x="249" y="706"/>
      <point x="259" y="706" type="curve" smooth="yes"/>
      <point x="269" y="706"/>
      <point x="276" y="700"/>
      <point x="281" y="695" type="curve"/>
      <point x="281" y="756" type="line"/>
      <point x="276" y="762"/>
      <point x="265" y="767"/>
      <point x="248" y="767" type="curve" smooth="yes"/>
      <point x="215" y="767"/>
      <point x="189" y="733"/>
      <point x="189" y="652" type="curve" smooth="yes"/>
    </contour>
    <component base="c" xOffset="6"/>
  </outline>
</glyph>
<glyph name="uni018A" format="2">
  <advance width="300"/>
  <unicode hex="018A"/>
  <anchor x="135" y="0" name="bottom"/>
  <anchor x="135" y="714" name="top"/>
  <outline>
    <contour>
      <point x="70" y="0" type="line"/>
      <point x="136" y="0" type="line" smooth="yes"/>
      <point x="219" y="0"/>
      <point x="251" y="125"/>
      <point x="251" y="365" type="curve" smooth="yes"/>
      <point x="251" y="593"/>
      <point x="220" y="714"/>
      <point x="139" y="714" type="curve" smooth="yes"/>
      <point x="70" y="714" type="line"/>
    </contour>
    <contour>
      <point x="125" y="69" type="line"/>
      <point x="125" y="646" type="line"/>
      <point x="135" y="646" type="line" smooth="yes"/>
      <point x="184" y="646"/>
      <point x="197" y="554"/>
      <point x="197" y="364" type="curve" smooth="yes"/>
      <point x="197" y="170"/>
      <point x="179" y="69"/>
      <point x="135" y="69" type="curve" smooth="yes"/>
    </contour>
    <contour>
      <point x="12" y="524" type="curve"/>
      <point x="53" y="524" type="line"/>
      <point x="52" y="533"/>
      <point x="49" y="556"/>
      <point x="49" y="583" type="curve" smooth="yes"/>
      <point x="49" y="623"/>
      <point x="57" y="646"/>
      <point x="73" y="646" type="curve" smooth="yes"/>
      <point x="85" y="646" type="line"/>
      <point x="85" y="714" type="line"/>
      <point x="77" y="714" type="line" smooth="yes"/>
      <point x="28" y="714"/>
      <point x="8" y="663"/>
      <point x="8" y="588" type="curve" smooth="yes"/>
      <point x="8" y="559"/>
      <point x="10" y="536"/>
    </contour>
  </outline>
</glyph>
<glyph name="uni018B" format="2">
  <advance width="300"/>
  <unicode hex="018B"/>
  <anchor x="135" y="0" name="bottom"/>
  <anchor x="141" y="714" name="top"/>
  <anchor x="0" y="0" name="topright"/>
  <outline>
    <contour>
      <point x="47" y="647" type="line"/>
      <point x="201" y="647" type="line"/>
      <point x="201" y="714" type="line"/>
      <point x="47" y="714" type="line"/>
    </contour>
    <component base="P" xScale="-1" yScale="-1" xOffset="265" yOffset="714"/>
  </outline>
</glyph>
<glyph name="uni018C" format="2">
  <advance width="300"/>
  <unicode hex="018C"/>
  <anchor x="134" y="0" name="bottom"/>
  <anchor x="143" y="760" name="top"/>
  <anchor x="264" y="760" name="topright"/>
  <anchor x="139" y="267" name="center"/>
  <outline>
    <contour>
      <point x="53" y="699" type="line"/>
      <point x="206" y="699" type="line"/>
      <point x="206" y="760" type="line"/>
      <point x="53" y="760" type="line"/>
    </contour>
    <component base="d" xOffset="5"/>
  </outline>
</glyph>
<glyph name="uni0191" format="2">
  <advance width="300"/>
  <unicode hex="0191"/>
  <anchor x="140" y="-185" name="bottom"/>
  <anchor x="143" y="714" name="top"/>
  <outline>
    <contour>
      <point x="8" y="-185" type="curve" smooth="yes"/>
      <point x="60" y="-185"/>
      <point x="96" y="-139"/>
      <point x="96" y="-15" type="curve" smooth="yes"/>
      <point x="96" y="309" type="line"/>
      <point x="232" y="309" type="line"/>
      <point x="232" y="378" type="line"/>
      <point x="96" y="378" type="line"/>
      <point x="96" y="646" type="line"/>
      <point x="239" y="646" type="line"/>
      <point x="239" y="714" type="line"/>
      <point x="33" y="714" type="line"/>
      <point x="33" y="0" type="line" smooth="yes"/>
      <point x="33" y="-89"/>
      <point x="25" y="-124"/>
      <point x="-1" y="-124" type="curve" smooth="yes"/>
      <point x="-12" y="-124"/>
      <point x="-22" y="-118"/>
      <point x="-30" y="-112" type="curve"/>
      <point x="-30" y="-174" type="line"/>
      <point x="-19" y="-182"/>
      <point x="-6" y="-185"/>
    </contour>
  </outline>
</glyph>
<glyph name="florin" format="2">
  <advance width="300"/>
  <unicode hex="0192"/>
  <anchor x="129" y="-240" name="bottom"/>
  <anchor x="179" y="724" name="top"/>
  <outline>
    <contour>
      <point x="77" y="-240" type="curve" smooth="yes"/>
      <point x="139" y="-240"/>
      <point x="163" y="-175"/>
      <point x="163" y="-55" type="curve" smooth="yes"/>
      <point x="163" y="406" type="line"/>
      <point x="222" y="406" type="line"/>
      <point x="222" y="466" type="line"/>
      <point x="163" y="466" type="line"/>
      <point x="163" y="540" type="line" smooth="yes"/>
      <point x="163" y="627"/>
      <point x="172" y="661"/>
      <point x="196" y="661" type="curve" smooth="yes"/>
      <point x="207" y="661"/>
      <point x="215" y="657"/>
      <point x="226" y="647" type="curve"/>
      <point x="239" y="705" type="line"/>
      <point x="219" y="718"/>
      <point x="205" y="724"/>
      <point x="185" y="724" type="curve" smooth="yes"/>
      <point x="128" y="724"/>
      <point x="104" y="664"/>
      <point x="104" y="542" type="curve" smooth="yes"/>
      <point x="104" y="468" type="line"/>
      <point x="47" y="446" type="line"/>
      <point x="47" y="406" type="line"/>
      <point x="104" y="406" type="line"/>
      <point x="104" y="-69" type="line" smooth="yes"/>
      <point x="104" y="-142"/>
      <point x="93" y="-177"/>
      <point x="66" y="-177" type="curve" smooth="yes"/>
      <point x="57" y="-177"/>
      <point x="48" y="-174"/>
      <point x="37" y="-168" type="curve"/>
      <point x="37" y="-232" type="line"/>
      <point x="48" y="-237"/>
      <point x="61" y="-240"/>
    </contour>
  </outline>
</glyph>
<glyph name="uni0193" format="2">
  <advance width="300"/>
  <unicode hex="0193"/>
  <anchor x="134" y="0" name="bottom"/>
  <anchor x="134" y="864" name="top"/>
  <anchor x="259" y="714" name="topright"/>
  <outline>
    <contour>
      <point x="193" y="682" type="line"/>
      <point x="246" y="682" type="line"/>
      <point x="246" y="744" type="line" smooth="yes"/>
      <point x="246" y="789"/>
      <point x="253" y="800"/>
      <point x="264" y="800" type="curve" smooth="yes"/>
      <point x="273" y="800"/>
      <point x="282" y="793"/>
      <point x="286" y="789" type="curve"/>
      <point x="286" y="852" type="line"/>
      <point x="281" y="858"/>
      <point x="270" y="864"/>
      <point x="254" y="864" type="curve" smooth="yes"/>
      <point x="224" y="864"/>
      <point x="193" y="834"/>
      <point x="193" y="754" type="curve" smooth="yes"/>
    </contour>
    <component base="G" xOffset="5"/>
  </outline>
</glyph>
<glyph name="uni0194" format="2">
  <advance width="300"/>
  <unicode hex="0194"/>
  <anchor x="135" y="-240" name="bottom"/>
  <anchor x="135" y="714" name="top"/>
  <outline>
    <contour>
      <point x="134" y="-240" type="curve" smooth="yes"/>
      <point x="186" y="-240"/>
      <point x="208" y="-190"/>
      <point x="208" y="-107" type="curve" smooth="yes"/>
      <point x="208" y="-43"/>
      <point x="194" y="34"/>
      <point x="171" y="123" type="curve"/>
      <point x="258" y="714" type="line"/>
      <point x="191" y="714" type="line"/>
      <point x="150" y="314" type="line" smooth="yes"/>
      <point x="146" y="279"/>
      <point x="137" y="228"/>
      <point x="135" y="186" type="curve"/>
      <point x="132" y="229"/>
      <point x="125" y="277"/>
      <point x="121" y="315" type="curve" smooth="yes"/>
      <point x="79" y="714" type="line"/>
      <point x="12" y="714" type="line"/>
      <point x="97" y="122" type="line"/>
      <point x="76" y="48"/>
      <point x="62" y="-38"/>
      <point x="62" y="-108" type="curve" smooth="yes"/>
      <point x="62" y="-191"/>
      <point x="84" y="-240"/>
    </contour>
    <contour>
      <point x="135" y="-185" type="curve" smooth="yes"/>
      <point x="125" y="-185"/>
      <point x="116" y="-159"/>
      <point x="116" y="-108" type="curve" smooth="yes"/>
      <point x="116" y="-63"/>
      <point x="121" y="-7"/>
      <point x="135" y="59" type="curve"/>
      <point x="149" y="-7"/>
      <point x="155" y="-64"/>
      <point x="155" y="-111" type="curve" smooth="yes"/>
      <point x="155" y="-161"/>
      <point x="146" y="-185"/>
    </contour>
  </outline>
</glyph>
<glyph name="uni0195" format="2">
  <advance width="300"/>
  <unicode hex="0195"/>
  <anchor x="137" y="0" name="bottom"/>
  <anchor x="54" y="760" name="top"/>
  <outline>
    <contour>
      <point x="179" y="-11" type="curve" smooth="yes"/>
      <point x="221" y="-11"/>
      <point x="243" y="34"/>
      <point x="243" y="113" type="curve" smooth="yes"/>
      <point x="243" y="534" type="line"/>
      <point x="197" y="534" type="line"/>
      <point x="197" y="118" type="line" smooth="yes"/>
      <point x="197" y="69"/>
      <point x="190" y="48"/>
      <point x="179" y="48" type="curve" smooth="yes"/>
      <point x="168" y="48"/>
      <point x="160" y="68"/>
      <point x="160" y="124" type="curve" smooth="yes"/>
      <point x="160" y="420" type="line" smooth="yes"/>
      <point x="160" y="511"/>
      <point x="143" y="543"/>
      <point x="115" y="543" type="curve" smooth="yes"/>
      <point x="96" y="543"/>
      <point x="82" y="522"/>
      <point x="76" y="488" type="curve"/>
      <point x="73" y="488" type="line"/>
      <point x="75" y="508"/>
      <point x="77" y="529"/>
      <point x="77" y="553" type="curve" smooth="yes"/>
      <point x="77" y="760" type="line"/>
      <point x="30" y="760" type="line"/>
      <point x="30" y="0" type="line"/>
      <point x="76" y="0" type="line"/>
      <point x="76" y="356" type="line" smooth="yes"/>
      <point x="76" y="458"/>
      <point x="84" y="485"/>
      <point x="98" y="485" type="curve" smooth="yes"/>
      <point x="108" y="485"/>
      <point x="115" y="463"/>
      <point x="115" y="403" type="curve" smooth="yes"/>
      <point x="115" y="119" type="line" smooth="yes"/>
      <point x="115" y="23"/>
      <point x="136" y="-11"/>
    </contour>
  </outline>
</glyph>
<glyph name="uni0196" format="2">
  <advance width="300"/>
  <unicode hex="0196"/>
  <anchor x="160" y="0" name="bottom"/>
  <anchor x="122" y="714" name="top"/>
  <outline>
    <contour>
      <point x="167" y="-10" type="curve" smooth="yes"/>
      <point x="188" y="-10"/>
      <point x="210" y="-4"/>
      <point x="225" y="6" type="curve"/>
      <point x="225" y="69" type="line"/>
      <point x="212" y="61"/>
      <point x="197" y="57"/>
      <point x="185" y="57" type="curve" smooth="yes"/>
      <point x="165" y="57"/>
      <point x="150" y="77"/>
      <point x="150" y="140" type="curve" smooth="yes"/>
      <point x="150" y="714" type="line"/>
      <point x="89" y="714" type="line"/>
      <point x="89" y="135" type="line" smooth="yes"/>
      <point x="89" y="32"/>
      <point x="117" y="-10"/>
    </contour>
  </outline>
</glyph>
<glyph name="uni0198" format="2">
  <advance width="300"/>
  <unicode hex="0198"/>
  <anchor x="135" y="0" name="bottom"/>
  <anchor x="135" y="714" name="top"/>
  <outline>
    <contour>
      <point x="24" y="0" type="line"/>
      <point x="84" y="0" type="line"/>
      <point x="84" y="268" type="line"/>
      <point x="115" y="344" type="line"/>
      <point x="188" y="0" type="line"/>
      <point x="257" y="0" type="line"/>
      <point x="160" y="397" type="line"/>
      <point x="212" y="603" type="line" smooth="yes"/>
      <point x="223" y="645"/>
      <point x="228" y="655"/>
      <point x="238" y="655" type="curve" smooth="yes"/>
      <point x="246" y="655"/>
      <point x="254" y="652"/>
      <point x="258" y="649" type="curve"/>
      <point x="258" y="713" type="line"/>
      <point x="251" y="718"/>
      <point x="240" y="721"/>
      <point x="226" y="721" type="curve" smooth="yes"/>
      <point x="195" y="721"/>
      <point x="181" y="702"/>
      <point x="164" y="632" type="curve" smooth="yes"/>
      <point x="121" y="459" type="line" smooth="yes"/>
      <point x="110" y="412"/>
      <point x="95" y="378"/>
      <point x="84" y="348" type="curve"/>
      <point x="84" y="714" type="line"/>
      <point x="24" y="714" type="line"/>
    </contour>
  </outline>
</glyph>
<glyph name="uni0199" format="2">
  <advance width="300"/>
  <unicode hex="0199"/>
  <anchor x="135" y="0" name="bottom"/>
  <anchor x="135" y="765" name="top"/>
  <outline>
    <contour>
      <point x="30" y="0" type="line"/>
      <point x="90" y="0" type="line"/>
      <point x="90" y="199" type="line"/>
      <point x="113" y="250" type="line"/>
      <point x="186" y="0" type="line"/>
      <point x="257" y="0" type="line"/>
      <point x="155" y="304" type="line"/>
      <point x="254" y="534" type="line"/>
      <point x="182" y="534" type="line"/>
      <point x="112" y="331" type="line" smooth="yes"/>
      <point x="104" y="308"/>
      <point x="95" y="288"/>
      <point x="87" y="265" type="curve"/>
      <point x="86" y="265" type="line"/>
      <point x="88" y="316"/>
      <point x="90" y="355"/>
      <point x="90" y="404" type="curve" smooth="yes"/>
      <point x="90" y="628" type="line" smooth="yes"/>
      <point x="90" y="683"/>
      <point x="97" y="701"/>
      <point x="113" y="701" type="curve" smooth="yes"/>
      <point x="120" y="701"/>
      <point x="127" y="698"/>
      <point x="133" y="693" type="curve"/>
      <point x="133" y="756" type="line"/>
      <point x="127" y="761"/>
      <point x="112" y="765"/>
      <point x="100" y="765" type="curve" smooth="yes"/>
      <point x="53" y="765"/>
      <point x="30" y="719"/>
      <point x="30" y="632" type="curve" smooth="yes"/>
    </contour>
  </outline>
</glyph>
<glyph name="uni019B" format="2">
  <advance width="300"/>
  <unicode hex="019B"/>
  <anchor x="141" y="0" name="bottom"/>
  <anchor x="144" y="766" name="top"/>
  <outline>
    <contour>
      <point x="66" y="535" type="line"/>
      <point x="196" y="615" type="line"/>
      <point x="180" y="663" type="line"/>
      <point x="51" y="586" type="line"/>
    </contour>
    <component base="lambda" xOffset="11"/>
  </outline>
</glyph>
<glyph name="uni019C" format="2">
  <advance width="300"/>
  <unicode hex="019C"/>
  <anchor x="135" y="0" name="bottom"/>
  <anchor x="135" y="357" name="center"/>
  <anchor x="135" y="714" name="top"/>
  <anchor x="16" y="714" name="topleft"/>
  <outline>
    <contour>
      <point x="64" y="-11" type="curve" smooth="yes"/>
      <point x="89" y="-11"/>
      <point x="103" y="13"/>
      <point x="114" y="60" type="curve"/>
      <point x="115" y="60" type="line"/>
      <point x="123" y="16"/>
      <point x="135" y="-11"/>
      <point x="159" y="-11" type="curve" smooth="yes"/>
      <point x="179" y="-11"/>
      <point x="194" y="15"/>
      <point x="203" y="57" type="curve"/>
      <point x="205" y="57" type="line"/>
      <point x="212" y="0" type="line"/>
      <point x="253" y="0" type="line"/>
      <point x="253" y="714" type="line"/>
      <point x="204" y="714" type="line"/>
      <point x="204" y="197" type="line" smooth="yes"/>
      <point x="204" y="127"/>
      <point x="200" y="54"/>
      <point x="178" y="54" type="curve" smooth="yes"/>
      <point x="163" y="54"/>
      <point x="159" y="81"/>
      <point x="159" y="145" type="curve" smooth="yes"/>
      <point x="159" y="714" type="line"/>
      <point x="110" y="714" type="line"/>
      <point x="110" y="189" type="line" smooth="yes"/>
      <point x="110" y="111"/>
      <point x="107" y="54"/>
      <point x="86" y="54" type="curve" smooth="yes"/>
      <point x="69" y="54"/>
      <point x="66" y="83"/>
      <point x="66" y="142" type="curve" smooth="yes"/>
      <point x="66" y="714" type="line"/>
      <point x="17" y="714" type="line"/>
      <point x="17" y="133" type="line" smooth="yes"/>
      <point x="17" y="29"/>
      <point x="30" y="-11"/>
    </contour>
  </outline>
</glyph>
<glyph name="uni019D" format="2">
  <advance width="300"/>
  <unicode hex="019D"/>
  <anchor x="135" y="-175" name="bottom"/>
  <anchor x="135" y="714" name="top"/>
  <anchor x="270" y="714" name="topright"/>
  <outline>
    <contour>
      <point x="4" y="-175" type="curve" smooth="yes"/>
      <point x="55" y="-175"/>
      <point x="79" y="-126"/>
      <point x="79" y="-5" type="curve" smooth="yes"/>
      <point x="79" y="121" type="line"/>
      <point x="23" y="108" type="line"/>
      <point x="23" y="10" type="line" smooth="yes"/>
      <point x="23" y="-77"/>
      <point x="16" y="-113"/>
      <point x="-5" y="-113" type="curve" smooth="yes"/>
      <point x="-17" y="-113"/>
      <point x="-26" y="-109"/>
      <point x="-34" y="-103" type="curve"/>
      <point x="-34" y="-164" type="line"/>
      <point x="-22" y="-172"/>
      <point x="-10" y="-175"/>
    </contour>
    <component base="N" xOffset="6"/>
  </outline>
</glyph>
<glyph name="uni01A2" format="2">
  <advance width="300"/>
  <unicode hex="01A2"/>
  <anchor x="54" y="0" name="bottom"/>
  <anchor x="63" y="10" name="ogonek"/>
  <anchor x="150" y="714" name="top"/>
  <anchor x="-68" y="714" name="topleft"/>
  <anchor x="377" y="714" name="topright"/>
  <outline>
    <contour>
      <point x="52" y="-10" type="curve" smooth="yes"/>
      <point x="148" y="-10"/>
      <point x="191" y="153"/>
      <point x="191" y="357" type="curve" smooth="yes"/>
      <point x="191" y="545"/>
      <point x="155" y="724"/>
      <point x="55" y="724" type="curve" smooth="yes"/>
      <point x="-32" y="724"/>
      <point x="-87" y="605"/>
      <point x="-87" y="357" type="curve" smooth="yes"/>
      <point x="-87" y="158"/>
      <point x="-45" y="-10"/>
    </contour>
    <contour>
      <point x="53" y="58" type="curve" smooth="yes"/>
      <point x="3" y="58"/>
      <point x="-23" y="164"/>
      <point x="-23" y="356" type="curve" smooth="yes"/>
      <point x="-23" y="551"/>
      <point x="4" y="657"/>
      <point x="53" y="657" type="curve" smooth="yes"/>
      <point x="102" y="657"/>
      <point x="127" y="558"/>
      <point x="127" y="361" type="curve" smooth="yes"/>
      <point x="127" y="160"/>
      <point x="101" y="58"/>
    </contour>
    <contour>
      <point x="295" y="0" type="line"/>
      <point x="356" y="0" type="line"/>
      <point x="356" y="514" type="line" smooth="yes"/>
      <point x="356" y="658"/>
      <point x="315" y="724"/>
      <point x="253" y="724" type="curve" smooth="yes"/>
      <point x="209" y="724"/>
      <point x="172" y="682"/>
      <point x="140" y="616" type="curve"/>
      <point x="158" y="566" type="line"/>
      <point x="179" y="619"/>
      <point x="204" y="657"/>
      <point x="233" y="657" type="curve" smooth="yes"/>
      <point x="274" y="657"/>
      <point x="295" y="609"/>
      <point x="295" y="500" type="curve" smooth="yes"/>
    </contour>
  </outline>
</glyph>
<glyph name="uni01A3" format="2">
  <advance width="300"/>
  <unicode hex="01A3"/>
  <anchor x="90" y="0" name="bottom"/>
  <anchor x="90" y="277" name="center"/>
  <anchor x="91" y="10" name="ogonek"/>
  <anchor x="140" y="534" name="top"/>
  <outline>
    <contour>
      <point x="195" y="-238" type="line"/>
      <point x="247" y="-238" type="line"/>
      <point x="247" y="406" type="line" smooth="yes"/>
      <point x="247" y="509"/>
      <point x="226" y="546"/>
      <point x="193" y="546" type="curve" smooth="yes"/>
      <point x="163" y="546"/>
      <point x="151" y="514"/>
      <point x="143" y="484" type="curve"/>
      <point x="133" y="525"/>
      <point x="119" y="546"/>
      <point x="90" y="546" type="curve" smooth="yes"/>
      <point x="36" y="546"/>
      <point x="17" y="467"/>
      <point x="17" y="269" type="curve" smooth="yes"/>
      <point x="17" y="79"/>
      <point x="37" y="-10"/>
      <point x="89" y="-10" type="curve" smooth="yes"/>
      <point x="144" y="-10"/>
      <point x="160" y="80"/>
      <point x="160" y="268" type="curve" smooth="yes"/>
      <point x="160" y="329"/>
      <point x="158" y="401"/>
      <point x="154" y="440" type="curve"/>
      <point x="158" y="457"/>
      <point x="165" y="482"/>
      <point x="176" y="482" type="curve" smooth="yes"/>
      <point x="188" y="482"/>
      <point x="195" y="464"/>
      <point x="195" y="412" type="curve" smooth="yes"/>
    </contour>
    <contour>
      <point x="90" y="53" type="curve" smooth="yes"/>
      <point x="76" y="53"/>
      <point x="69" y="107"/>
      <point x="69" y="269" type="curve" smooth="yes"/>
      <point x="69" y="432"/>
      <point x="76" y="483"/>
      <point x="90" y="483" type="curve" smooth="yes"/>
      <point x="103" y="483"/>
      <point x="109" y="426"/>
      <point x="109" y="268" type="curve" smooth="yes"/>
      <point x="109" y="104"/>
      <point x="104" y="53"/>
    </contour>
  </outline>
</glyph>
<glyph name="uni01A4" format="2">
  <advance width="300"/>
  <unicode hex="01A4"/>
  <anchor x="154" y="0" name="bottom"/>
  <anchor x="154" y="714" name="top"/>
  <outline>
    <contour>
      <point x="77" y="0" type="line"/>
      <point x="134" y="0" type="line"/>
      <point x="134" y="283" type="line"/>
      <point x="143" y="283" type="line" smooth="yes"/>
      <point x="218" y="283"/>
      <point x="249" y="374"/>
      <point x="249" y="507" type="curve" smooth="yes"/>
      <point x="249" y="643"/>
      <point x="216" y="714"/>
      <point x="147" y="714" type="curve" smooth="yes"/>
      <point x="82" y="714" type="line" smooth="yes"/>
      <point x="30" y="714"/>
      <point x="11" y="661"/>
      <point x="11" y="588" type="curve" smooth="yes"/>
      <point x="11" y="559"/>
      <point x="14" y="536"/>
      <point x="15" y="524" type="curve"/>
      <point x="57" y="524" type="line"/>
      <point x="56" y="533"/>
      <point x="54" y="556"/>
      <point x="54" y="583" type="curve" smooth="yes"/>
      <point x="54" y="621"/>
      <point x="60" y="649"/>
      <point x="77" y="650" type="curve"/>
    </contour>
    <contour>
      <point x="134" y="351" type="line"/>
      <point x="134" y="650" type="line"/>
      <point x="145" y="650" type="line" smooth="yes"/>
      <point x="177" y="650"/>
      <point x="192" y="602"/>
      <point x="192" y="503" type="curve" smooth="yes"/>
      <point x="192" y="392"/>
      <point x="176" y="351"/>
      <point x="141" y="351" type="curve" smooth="yes"/>
    </contour>
  </outline>
</glyph>
<glyph name="uni01A5" format="2">
  <advance width="300"/>
  <unicode hex="01A5"/>
  <anchor x="146" y="-240" name="bottom"/>
  <anchor x="146" y="765" name="top"/>
  <outline>
    <contour>
      <point x="30" y="-240" type="line"/>
      <point x="90" y="-240" type="line"/>
      <point x="90" y="-7" type="line" smooth="yes"/>
      <point x="90" y="17"/>
      <point x="89" y="53"/>
      <point x="87" y="76" type="curve"/>
      <point x="91" y="76" type="line"/>
      <point x="107" y="30"/>
      <point x="127" y="-10"/>
      <point x="159" y="-10" type="curve" smooth="yes"/>
      <point x="210" y="-10"/>
      <point x="249" y="86"/>
      <point x="249" y="269" type="curve" smooth="yes"/>
      <point x="249" y="451"/>
      <point x="218" y="545"/>
      <point x="159" y="545" type="curve" smooth="yes"/>
      <point x="125" y="545"/>
      <point x="104" y="503"/>
      <point x="90" y="452" type="curve"/>
      <point x="87" y="452" type="line"/>
      <point x="89" y="484"/>
      <point x="90" y="507"/>
      <point x="90" y="542" type="curve" smooth="yes"/>
      <point x="90" y="628" type="line" smooth="yes"/>
      <point x="90" y="683"/>
      <point x="97" y="701"/>
      <point x="112" y="701" type="curve" smooth="yes"/>
      <point x="119" y="701"/>
      <point x="125" y="698"/>
      <point x="133" y="693" type="curve"/>
      <point x="133" y="756" type="line"/>
      <point x="126" y="761"/>
      <point x="109" y="765"/>
      <point x="99" y="765" type="curve" smooth="yes"/>
      <point x="52" y="765"/>
      <point x="30" y="719"/>
      <point x="30" y="632" type="curve" smooth="yes"/>
    </contour>
    <contour>
      <point x="141" y="55" type="curve" smooth="yes"/>
      <point x="106" y="55"/>
      <point x="90" y="131"/>
      <point x="90" y="264" type="curve" smooth="yes"/>
      <point x="90" y="287" type="line" smooth="yes"/>
      <point x="90" y="408"/>
      <point x="106" y="481"/>
      <point x="139" y="481" type="curve" smooth="yes"/>
      <point x="171" y="481"/>
      <point x="186" y="410"/>
      <point x="186" y="270" type="curve" smooth="yes"/>
      <point x="186" y="129"/>
      <point x="171" y="55"/>
    </contour>
  </outline>
</glyph>
<glyph name="uni01A6" format="2">
  <advance width="300"/>
  <unicode hex="01A6"/>
  <anchor x="143" y="-99" name="bottom"/>
  <anchor x="143" y="714" name="top"/>
  <outline>
    <contour>
      <point x="191" y="-100" type="line"/>
      <point x="253" y="-100" type="line"/>
      <point x="176" y="216" type="line"/>
      <point x="220" y="249"/>
      <point x="238" y="318"/>
      <point x="238" y="417" type="curve" smooth="yes"/>
      <point x="238" y="551"/>
      <point x="197" y="614"/>
      <point x="112" y="614" type="curve" smooth="yes"/>
      <point x="92" y="614" type="line"/>
      <point x="92" y="714" type="line"/>
      <point x="35" y="714" type="line"/>
      <point x="35" y="0" type="line"/>
      <point x="92" y="0" type="line"/>
      <point x="92" y="203" type="line"/>
      <point x="123" y="203" type="line"/>
    </contour>
    <contour>
      <point x="92" y="269" type="line"/>
      <point x="92" y="547" type="line"/>
      <point x="111" y="547" type="line" smooth="yes"/>
      <point x="159" y="547"/>
      <point x="181" y="509"/>
      <point x="181" y="412" type="curve" smooth="yes"/>
      <point x="181" y="314"/>
      <point x="157" y="269"/>
      <point x="115" y="269" type="curve" smooth="yes"/>
    </contour>
  </outline>
</glyph>
<glyph name="uni01AA" format="2">
  <advance width="300"/>
  <unicode hex="01AA"/>
  <anchor x="139" y="-240" name="bottom"/>
  <anchor x="139" y="770" name="top"/>
  <outline>
    <contour>
      <point x="188" y="-240" type="curve" smooth="yes"/>
      <point x="210" y="-240"/>
      <point x="229" y="-233"/>
      <point x="244" y="-221" type="curve"/>
      <point x="244" y="-159" type="line"/>
      <point x="231" y="-169"/>
      <point x="219" y="-176"/>
      <point x="204" y="-176" type="curve" smooth="yes"/>
      <point x="181" y="-176"/>
      <point x="168" y="-144"/>
      <point x="168" y="-76" type="curve" smooth="yes"/>
      <point x="168" y="618" type="line" smooth="yes"/>
      <point x="168" y="717"/>
      <point x="145" y="765"/>
      <point x="95" y="765" type="curve" smooth="yes"/>
      <point x="45" y="765"/>
      <point x="23" y="709"/>
      <point x="23" y="651" type="curve" smooth="yes"/>
      <point x="23" y="581"/>
      <point x="43" y="535"/>
      <point x="94" y="535" type="curve" smooth="yes"/>
      <point x="107" y="535" type="line"/>
      <point x="107" y="-78" type="line" smooth="yes"/>
      <point x="107" y="-193"/>
      <point x="137" y="-240"/>
    </contour>
    <contour>
      <point x="95" y="595" type="line" smooth="yes"/>
      <point x="78" y="595"/>
      <point x="70" y="615"/>
      <point x="70" y="650" type="curve" smooth="yes"/>
      <point x="70" y="683"/>
      <point x="77" y="703"/>
      <point x="86" y="703" type="curve" smooth="yes"/>
      <point x="100" y="703"/>
      <point x="107" y="673"/>
      <point x="107" y="621" type="curve" smooth="yes"/>
      <point x="107" y="595" type="line"/>
    </contour>
  </outline>
</glyph>
